<svg width="71" height="72" viewBox="0 0 71 72" fill="none" xmlns="http://www.w3.org/2000/svg">
<path d="M10.1101 17.9688C10.2875 17.6809 10.2228 17.3617 10.2249 17.053C10.2249 13.1454 10.2249 9.2358 10.2249 5.32618C10.2249 2.07163 12.3111 0 15.5427 0H65.0284C68.1933 0 70.3129 2.12588 70.3129 5.29905C70.3129 15.5397 70.3129 25.7811 70.3129 36.0232C70.3129 39.1526 68.1787 41.2868 65.0743 41.2889C58.2217 41.2972 51.3677 41.3021 44.5123 41.3035C43.7028 41.7374 42.8141 41.4161 41.9733 41.5768C37.344 41.4725 32.7125 41.558 28.0831 41.5288C27.4573 41.5288 27.1401 41.8209 26.9566 42.3862C26.3985 43.9915 26.2924 45.7192 26.6499 47.3807C26.8039 47.9862 26.9983 48.5808 27.2319 49.1603C27.6492 50.2034 27.524 50.5977 26.6186 51.3049C25.8801 51.6909 25.3001 51.2799 24.7576 50.8877C23.2139 49.7723 21.9153 48.3522 20.9419 46.7152C20.1095 45.3579 19.5259 43.863 19.2187 42.3007C19.106 41.6748 18.8181 41.4808 18.2173 41.5058C17.3598 41.5434 16.5003 41.5058 15.6408 41.5058C12.6553 41.5058 10.8215 40.0747 10.0601 37.1644C9.99471 36.4117 9.97729 35.6557 10.0079 34.9008C10.0079 30.6824 10.0079 26.4647 10.0079 22.2477C10.0304 21.7535 9.99394 21.2584 9.89941 20.7727C10.0872 19.8423 9.96826 18.8972 10.1101 17.9688Z" fill="#4098F9"/>
<path d="M10.1101 17.9688C10.2624 18.8512 10.4919 19.74 9.96403 20.5828C9.78879 20.9458 9.41535 20.9458 9.10032 21.0314C7.49392 21.4716 5.88751 21.9222 4.26858 22.3165C3.67609 22.4625 3.4466 22.6858 3.62393 23.3471C6.94523 35.6685 10.2186 48.0023 13.5545 60.3216C13.7965 61.2062 13.8361 61.2229 14.6706 60.9892C24.2757 58.3021 33.8828 55.6178 43.4921 52.9363C44.723 52.5942 44.7209 52.59 44.3662 51.3341C43.8634 49.5545 43.4253 47.7562 42.9246 45.9766C42.8196 45.7115 42.7935 45.4217 42.8495 45.1421C42.8834 45.0526 42.9486 44.9784 43.0331 44.9335C43.8467 44.7812 44.6583 44.6456 45.4448 45.0482C46.2209 47.8772 47.0032 50.7061 47.773 53.5371C48.3572 55.6943 48.9344 57.8501 49.5046 60.0045C50.0283 61.9739 49.3878 63.1193 47.4351 63.6429C37.8995 66.2048 28.3619 68.7612 18.8222 71.312C18.1692 71.4872 17.5162 71.6562 16.8632 71.8314C14.9272 72.3509 13.7673 71.675 13.2457 69.7243C11.9161 64.7535 10.5871 59.7827 9.25888 54.8119C6.4494 44.3208 3.63784 33.8298 0.824187 23.3387C0.379816 21.6697 1.03281 20.4034 2.58081 19.9736C5.0843 19.2852 7.60031 18.6363 10.1101 17.9688Z" fill="#044387"/>
<path d="M45.4447 45.0462H42.9579C42.8721 45.0186 42.795 44.9694 42.7339 44.9032C42.6729 44.8371 42.63 44.7562 42.6095 44.6685C42.3049 43.7694 42.09 42.8473 41.8563 41.9293C41.8303 41.8426 41.8251 41.7509 41.8411 41.6618C41.857 41.5726 41.8937 41.4885 41.9481 41.4161C42.7951 41.1553 43.6609 41.3431 44.5184 41.3055L45.4447 45.0462Z" fill="#043D7C"/>
<path d="M42.9244 45.2005C43.5503 47.5329 44.1595 49.8736 44.8417 52.1936C45.0503 52.9175 44.5496 52.8528 44.2033 52.9509C36.8472 55.0135 29.489 57.0705 22.1287 59.122C19.5522 59.8438 16.9695 60.551 14.4096 61.3063C13.8004 61.4857 13.5751 61.3626 13.4166 60.7451C10.5529 49.9689 7.67523 39.1969 4.78369 28.4291C4.30594 26.6475 3.86366 24.8533 3.33584 23.0863C3.15433 22.4833 3.33584 22.3394 3.86783 22.2059C5.90818 21.6864 7.93809 21.1273 9.97218 20.5828C10.3894 20.7413 10.2288 21.1085 10.2288 21.3881C10.2392 25.959 10.2288 30.53 10.2392 35.0988C10.2392 35.852 10.2643 36.6051 10.2789 37.3583C10.4875 38.2512 10.4771 39.1587 10.4875 40.0704C10.4809 40.6902 10.5965 41.3052 10.8277 41.8803C11.0589 42.4554 11.4012 42.9793 11.8351 43.422C12.2689 43.8647 12.7857 44.2176 13.356 44.4605C13.9262 44.7034 14.5388 44.8315 15.1586 44.8374C16.2518 44.8583 17.3471 44.8604 18.4423 44.8374C19.1245 44.8208 19.4604 45.0461 19.6002 45.77C20.2574 49.1852 22.014 51.9453 24.7282 54.1046C24.9711 54.3017 25.2323 54.475 25.5085 54.6219C25.9257 54.8306 26.3054 54.8306 26.6621 54.5093C26.84 54.3728 26.9663 54.1801 27.0205 53.9626C27.0747 53.7451 27.0535 53.5157 26.9605 53.3118C26.7574 52.8594 26.5832 52.3946 26.4389 51.9202C26.3876 51.7999 26.3686 51.6682 26.384 51.5383C26.3994 51.4083 26.4485 51.2847 26.5265 51.1796C27.361 50.5079 27.4507 50.2012 27.0585 49.254C26.8311 48.7054 26.5724 48.165 26.5182 47.5621C26.3763 47.2116 26.4327 46.8382 26.4368 46.4814C26.4556 45.3507 27.0001 44.8124 28.1329 44.8124C32.6935 44.7999 37.254 44.7999 41.8145 44.8124C42.2234 44.7999 42.6678 44.754 42.9244 45.2005Z" fill="#CBDCE6"/>
<path d="M32.1534 20.925C34.4483 20.8582 36.6472 21.5717 38.8878 21.9347C40.7467 22.2372 42.5888 22.6357 44.4393 22.9904C44.7418 23.0467 45.0819 23.0363 45.1466 23.4514C45.2023 23.5548 45.2342 23.6694 45.2399 23.7867C45.2457 23.904 45.2252 24.0211 45.1799 24.1294C44.7627 25.7984 44.2933 27.4382 43.8969 29.1051C43.8481 29.335 43.7327 29.5454 43.5652 29.7102C43.3566 30.2401 42.9748 30.4049 42.4073 30.3694C41.2912 30.3006 40.1709 30.3235 39.0526 30.2567C38.6917 30.2359 38.6145 30.4445 38.4873 30.674C37.9469 31.6128 38.0074 32.6371 38.1368 33.6427C38.2661 34.6483 38.1117 35.0885 37.2564 35.4619C35.0426 36.4381 32.6966 37.0813 30.2946 37.3708C27.1952 37.7727 24.0491 37.6215 21.0024 36.9244C19.4391 36.5409 17.9119 36.0229 16.4377 35.3764C15.693 35.0572 15.6325 34.3854 15.7368 33.7199C16.0914 31.4584 16.6046 29.2407 17.6144 27.1587C18.6888 24.9327 20.193 23.1447 22.4774 22.087C23.1742 21.7657 23.9169 21.6698 24.6576 21.5613C24.9788 21.5091 25.1937 21.7282 25.4336 21.8721C26.3431 22.4507 27.4173 22.7149 28.4914 22.6241C29.5655 22.5332 30.5801 22.0925 31.3794 21.3693C31.6089 21.167 31.7904 20.8707 32.1534 20.925Z" fill="#044387"/>
<path d="M45.6349 19.5564C45.5535 15.4945 45.4638 11.4201 45.395 7.36856C45.3783 6.39637 45.8498 5.95616 46.8428 5.94364C52.2858 5.87897 57.7288 5.76005 63.1677 5.52639C64.24 5.47632 64.7198 5.90192 64.8367 6.94087C65.3854 11.9604 65.9215 16.9799 66.2783 22.0182C66.3951 23.6538 66.0592 24.0043 64.4007 23.9625C63.756 24.0815 63.1072 24.0085 62.4584 24.0105C59.4681 24.0217 56.4778 24.0217 53.4875 24.0105C53.3164 24.0105 53.0869 24.0981 52.9847 23.9104C52.8825 23.7226 53.0431 23.514 53.1767 23.3638C53.6882 22.7727 54.2373 22.2152 54.8206 21.6948C56.3707 20.3283 57.7184 18.7115 59.7337 17.925C60.6058 17.5849 60.9604 16.6857 61.3151 15.8742C61.7657 14.8498 61.7803 13.7566 61.7094 12.6614C61.8465 12.2396 61.8414 11.7844 61.6948 11.3658C61.5926 11.0466 61.5362 10.6669 61.1232 10.621C60.756 10.5793 60.5849 10.8881 60.4264 11.1551C60.0654 11.7601 59.6878 12.3443 59.0745 12.7323C58.8812 12.862 58.6799 12.9791 58.4715 13.0828C58.1816 13.2163 57.9208 13.2226 57.7101 12.9409C57.5717 12.8049 57.4711 12.6352 57.418 12.4486C57.3617 12.121 57.6642 11.8102 57.418 11.3741C56.625 11.8698 55.9992 12.5923 55.6217 13.4479C55.2805 14.1527 55.0799 14.9173 55.0313 15.6989C55.0294 15.9195 54.9708 16.1359 54.8612 16.3273C54.7517 16.5188 54.5947 16.6788 54.4055 16.7921C51.9166 18.4966 49.4256 20.1948 46.9471 21.9139C46.8016 22.0236 46.6387 22.1082 46.4652 22.1642C45.9311 22.3144 45.71 22.1454 45.687 21.5759C45.6578 20.902 45.7517 20.2198 45.6349 19.5564Z" fill="#FEFEFE"/>
<path d="M32.1533 20.925C30.9809 22.1058 29.6311 22.8714 27.9037 22.8402C26.6519 22.8193 25.6088 22.2894 24.6512 21.555C23.868 20.7533 23.2711 19.7888 22.9029 18.7302C22.8769 18.5924 22.7996 18.4697 22.6864 18.3868C22.5733 18.3039 22.433 18.2671 22.2937 18.2838C21.1442 18.2671 20.4912 17.7038 20.4161 16.7441C20.3348 15.701 20.9731 14.927 22.1206 14.7038C22.3918 14.9625 22.3292 15.3109 22.3793 15.6322C22.3045 15.036 22.3413 14.4311 22.4878 13.8484C22.7444 12.6551 23.3014 11.7768 24.6658 11.6767C25.373 11.6245 25.9175 11.2031 26.4495 10.7733C27.0587 10.2726 27.6783 10.1474 28.3772 10.6106C28.6311 10.7739 28.9214 10.8722 29.2224 10.8966C29.5233 10.9209 29.8257 10.8707 30.1026 10.7503C31.0455 10.3999 31.7716 10.6836 32.3703 11.4451C33.0734 12.3497 33.5646 13.4006 33.8077 14.5202C33.8411 14.103 33.3425 13.6502 33.7493 13.1433C34.8175 13.0828 35.5769 13.6899 35.6958 14.6996C35.7296 15.1417 35.5957 15.5803 35.3209 15.9282C35.046 16.2761 34.6503 16.5078 34.2125 16.5772C33.8912 16.6357 33.7243 16.6941 33.6888 17.0759C33.5628 18.4811 33.0291 19.8188 32.1533 20.925V20.925Z" fill="#CBDCE6"/>
<path d="M61.878 12.5154C62.1513 14.3388 61.7862 16.0016 60.6492 17.4807C60.4885 17.6893 60.3529 17.9147 60.0963 18.0085C57.7347 18.8618 56.1909 20.7749 54.4175 22.3897L52.9843 23.6998L53.0803 23.9502H64.4023C64.1061 24.1004 63.789 24.0336 63.4802 24.0336C60.1213 24.0336 56.7625 24.0524 53.4057 24.0336C53.188 24.0251 52.971 24.0631 52.7692 24.1451C52.5674 24.2271 52.3853 24.3513 52.2353 24.5093C50.5017 26.1991 48.72 27.8473 47.0051 29.5476C46.3271 30.2256 45.647 30.4279 44.7645 30.0649C44.3739 29.9236 43.9763 29.8024 43.5732 29.7019C43.9905 27.5865 44.6372 25.5294 45.1546 23.4432C45.3758 23.3869 45.6428 23.558 45.8201 23.3013C46.2082 23.3092 46.588 23.189 46.9008 22.9592C48.9578 21.5385 50.9711 20.0385 53.1011 18.7429C54.2799 18.0252 54.7388 17.0927 54.9558 15.8388C55.0548 15.2058 55.2818 14.5997 55.6229 14.0573C55.9641 13.515 56.4121 13.0478 56.9398 12.6844C57.1046 12.5697 57.2611 12.4007 57.501 12.4967L57.8077 12.8159C57.8778 12.9547 57.9152 13.1077 57.917 13.2632C57.9189 13.4187 57.885 13.5726 57.8181 13.713C57.7451 13.9028 57.6408 14.1302 57.8369 14.2929C58.0685 14.4828 58.2813 14.2929 58.4628 14.1657C59.0334 13.7978 59.5185 13.3119 59.8856 12.7408C60.0108 12.5322 60.1234 12.3381 60.2611 12.1483C60.4823 11.852 60.7138 11.5224 61.1394 11.6371C61.565 11.7519 61.8905 12.0085 61.878 12.5154Z" fill="#CBDCE6"/>
<path d="M26.5199 51.1694C26.5199 51.8662 26.7973 52.49 27.1082 53.0866C27.4441 53.725 27.2897 54.2278 26.8015 54.693C26.3133 55.1583 25.8356 55.0978 25.3161 54.766C23.5809 53.6205 22.136 52.0871 21.0956 50.2869C20.1751 48.8068 19.5753 47.1502 19.3348 45.4239C19.2764 44.9878 18.9843 45.0462 18.709 45.0462C17.5907 45.0462 16.4683 45.0087 15.3522 45.0462C12.5316 45.1568 10.0364 42.6032 10.2534 39.9308C10.3223 39.0754 10.2722 38.2138 10.2764 37.3542C11.2298 40.3501 13.4516 41.4746 16.0511 41.2952C16.8856 41.2388 17.7201 41.3181 18.5546 41.2743C19.1012 41.2472 19.2722 41.4037 19.3891 41.9753C20.0557 45.5687 22.1051 48.7574 25.097 50.8564C25.5205 51.1777 25.9753 51.3905 26.5199 51.1694Z" fill="#B7C6CF"/>
<path d="M42.9248 45.2006C42.6223 44.992 42.2759 45.0462 41.9401 45.0462H28.4212C27.0338 45.0462 26.6416 45.4197 26.5269 46.8508C26.5102 47.0845 26.5269 47.3202 26.5269 47.5539C25.9281 45.5469 26.2181 43.6067 26.9587 41.6978C26.9904 41.5709 27.0661 41.4593 27.1723 41.3829C27.2785 41.3065 27.4083 41.2702 27.5387 41.2805C32.2495 41.2889 36.9602 41.2945 41.6709 41.2972C41.7724 41.3168 41.8693 41.355 41.9567 41.4099C42.2739 42.6241 42.5346 43.855 42.9665 45.0379L42.9248 45.2006Z" fill="#B7C6CF"/>
<path d="M33.7618 13.1432L34.01 15.0208C33.4801 13.9777 33.1046 12.8595 32.4579 11.879C31.6734 10.6919 31.3647 10.5813 30.0107 11.009C29.4078 11.1989 28.8216 11.1926 28.3021 10.8004C27.7304 10.3685 27.1859 10.4124 26.6769 10.8672C25.9709 11.5328 25.0559 11.9331 24.0879 12C23.4244 12.0459 23.1386 12.5695 22.9237 13.1245C22.5461 14.0966 22.5169 15.1314 22.3959 16.3832C22.2853 15.6697 22.2102 15.1878 22.133 14.7142C22.0705 13.9151 22.0913 13.0973 21.9244 12.3192C21.3945 9.80107 23.4077 7.45195 25.7089 7.32678C27.019 7.25584 28.3125 6.89075 29.6373 6.88449C30.5569 6.86657 31.4503 7.19095 32.1442 7.79465C32.8381 8.39836 33.283 9.23833 33.3925 10.1516C33.5281 11.1404 33.6387 12.1439 33.7618 13.1432Z" fill="#044388"/>
<path d="M57.5007 12.5008C55.7149 13.6545 54.943 15.3568 54.8366 17.416C54.8361 17.5312 54.8061 17.6445 54.7495 17.7449C54.6929 17.8453 54.6116 17.9296 54.5132 17.9897C51.8804 19.7908 49.2531 21.5989 46.6314 23.4139C46.3101 23.6372 46.0598 23.5683 45.8199 23.3075C45.4965 22.0704 45.6425 20.804 45.6342 19.5523C45.9075 20.1218 45.6926 20.7289 45.7698 21.3131C45.8011 21.553 45.6446 21.868 45.9617 22.0057C46.2788 22.1434 46.5 21.9744 46.7482 21.7971C48.3651 20.6768 49.9923 19.5669 51.6154 18.4591C52.5355 17.8332 53.4472 17.1886 54.3756 16.5815C54.5192 16.4949 54.6378 16.3724 54.7197 16.2261C54.8017 16.0798 54.8441 15.9147 54.8429 15.747C54.9514 14.1072 55.523 12.6677 56.7956 11.5745C57.0543 11.3513 57.3401 10.9131 57.676 11.1364C58.0119 11.3596 57.7386 11.804 57.6426 12.1461C57.6013 12.2666 57.5539 12.385 57.5007 12.5008V12.5008Z" fill="#E5E5E5"/>
<path d="M30.659 65.387C30.2554 65.3904 29.8552 65.3135 29.4815 65.1609C29.1079 65.0083 28.7682 64.783 28.4824 64.4981C28.1965 64.2131 27.97 63.8743 27.8161 63.5012C27.6623 63.128 27.584 62.728 27.586 62.3244C27.5837 61.9144 27.6633 61.508 27.8202 61.1292C27.9771 60.7504 28.2081 60.4067 28.4996 60.1183C28.791 59.8299 29.1372 59.6027 29.5177 59.4498C29.8982 59.297 30.3054 59.2218 30.7154 59.2284C31.5308 59.2262 32.3139 59.5473 32.893 60.1214C33.4721 60.6954 33.8001 61.4756 33.8051 62.2911C33.7963 63.1181 33.4604 63.908 32.8709 64.4882C32.2813 65.0683 31.4861 65.3915 30.659 65.387V65.387Z" fill="#FEFEFE"/>
<path d="M61.8777 12.5154L61.5334 12.0982C61.1162 11.5871 60.7594 11.681 60.4548 12.2213C59.9541 13.1184 59.3324 13.9091 58.4374 14.4452C58.1996 14.5871 57.9409 14.8354 57.6614 14.5913C57.3818 14.3472 57.4527 14.0196 57.6009 13.7276C57.753 13.4532 57.8253 13.1417 57.8095 12.8284C58.0035 13.0975 58.208 13.037 58.4666 12.8993C59.2484 12.4918 59.8793 11.8448 60.2671 11.053C60.4569 10.6837 60.6843 10.2748 61.1767 10.352C61.669 10.4292 61.8026 10.8506 61.8735 11.27C61.9444 11.6893 62.2156 12.0982 61.8777 12.5154Z" fill="#E5E5E5"/>
</svg>
