<svg width="575" height="448" viewBox="0 0 575 448" fill="none" xmlns="http://www.w3.org/2000/svg">
<path d="M296.919 108.396H233.256V157.637H296.919V108.396Z" fill="#111217"/>
<path d="M238.193 153.151L255.806 126.17L270.207 143.419L278.965 134.254L291.985 153.151H238.193Z" fill="#F5F5F5" fill-opacity="0.05"/>
<path d="M272.882 127.808C272.882 128.579 272.654 129.332 272.226 129.973C271.797 130.614 271.189 131.114 270.477 131.409C269.765 131.704 268.981 131.781 268.225 131.63C267.469 131.48 266.774 131.109 266.229 130.564C265.684 130.019 265.313 129.324 265.163 128.568C265.012 127.812 265.09 127.029 265.385 126.317C265.68 125.604 266.179 124.996 266.82 124.568C267.461 124.139 268.214 123.911 268.985 123.911C270.019 123.911 271.01 124.321 271.741 125.052C272.472 125.783 272.882 126.774 272.882 127.808Z" fill="#F5F5F5" fill-opacity="0.05"/>
<path d="M192.42 177.552L155.834 191.921C152.941 174.151 147.264 156.948 139.014 140.945L172.473 126.555C185.267 142.262 189.978 159.458 192.42 177.552Z" fill="#111217"/>
<path d="M111.081 62.9994L27 64.7339L29.2592 174.372L113.383 174.758L111.081 62.9994Z" fill="#111217"/>
<path d="M105.63 67.0144L32.0527 68.5348L34.1085 167.97L107.729 168.933L105.63 67.0144Z" fill="#15161C"/>
<path d="M93.126 85.3446L44.2598 84.4987L45.6945 153.997L94.5179 152.991L93.126 85.3446Z" fill="#111217"/>
<path d="M56.7167 141.492L83.7481 120.564L55.9102 101.876L56.7167 141.492Z" fill="#F5F5F5" fill-opacity="0.05"/>
<path d="M335.968 0L275.484 1.25271L277.112 80.1196L337.616 80.3873L335.968 0Z" fill="#111217"/>
<path d="M332.04 2.89087L279.127 3.98297L280.594 75.5157L333.561 76.2116L332.04 2.89087Z" fill="#15161C"/>
<path d="M323.045 16.0818L287.895 15.4715L288.922 65.4619L324.052 64.7446L323.045 16.0818Z" fill="#111217"/>
<path d="M300.396 51.5536L312.874 41.9401L300.025 33.3519L300.396 51.5536Z" fill="#F5F5F5" fill-opacity="0.05"/>
<path d="M147.432 197.124L86.9492 198.366L88.5767 277.233L149.081 277.501L147.432 197.124Z" fill="#111217"/>
<path d="M143.502 200.005L90.5781 201.097L92.0557 272.629L145.012 273.325L143.502 200.005Z" fill="#15161C"/>
<path d="M134.506 213.196L99.3555 212.585L100.383 262.576L135.502 261.858L134.506 213.196Z" fill="#111217"/>
<path d="M111.07 251.772L129.786 237.069L110.514 223.934L111.07 251.772Z" fill="#F5F5F5" fill-opacity="0.05"/>
<path d="M376.796 167.466L340.596 168.216L341.57 215.423L377.791 215.583L376.796 167.466Z" fill="#111217"/>
<path d="M374.447 169.201L342.766 169.854L343.654 212.671L375.347 213.078L374.447 169.201Z" fill="#15161C"/>
<path d="M369.062 177.092L348.023 176.728L348.634 206.654L369.662 206.215L369.062 177.092Z" fill="#111217"/>
<path d="M354.874 197.167L363.194 191.509L354.629 186.46L354.874 197.167Z" fill="#F5F5F5" fill-opacity="0.05"/>
<path d="M172.923 26.3068C172.54 26.028 172.182 25.7164 171.853 25.3753C171.071 24.6794 170.086 23.8014 168.919 22.7415C167.752 21.6815 166.189 20.3217 164.497 18.9191C163.651 18.2124 162.752 17.4951 161.799 16.7777C161.317 16.4244 160.825 16.0818 160.311 15.707C159.835 15.3734 159.295 15.1403 158.726 15.0218C158.167 15.1315 157.642 15.3739 157.195 15.7284C156.692 16.0604 156.21 16.4244 155.75 16.7991C154.818 17.5486 153.962 18.3088 153.148 19.0476C151.52 20.5251 150.096 21.9063 148.865 23.0627L146.049 25.8572C145.723 26.2174 145.365 26.5471 144.979 26.8422C145.24 26.429 145.549 26.0481 145.899 25.7073C146.51 25.0113 147.43 24.0263 148.587 22.8164C149.743 21.6065 151.146 20.2039 152.752 18.705C153.565 17.9448 154.422 17.1739 155.364 16.403C155.835 16.0282 156.317 15.6535 156.842 15.3323C157.383 14.9109 158.025 14.6378 158.705 14.54C159.371 14.658 160.004 14.9212 160.557 15.3109C161.092 15.6428 161.628 16.0068 162.077 16.3816C163.052 17.0989 163.94 17.8377 164.786 18.5229C166.467 19.9577 167.923 21.3067 169.133 22.4524C170.343 23.598 171.275 24.5937 171.96 25.2147C172.315 25.5469 172.638 25.9126 172.923 26.3068Z" fill="white" fill-opacity="0.5"/>
<path d="M130.055 26.4245L130.922 69.1557L186.651 68.0208L186.855 25.2682L130.055 26.4245Z" fill="#111217"/>
<path d="M132.09 29.1977L132.85 66.5861L183.397 65.5583L183.9 28.1377L132.09 29.1977Z" fill="#15161C"/>
<path d="M141.402 35.5576L140.963 60.3868L176.296 59.6695L175.792 34.8616L141.402 35.5576Z" fill="#111217"/>
<path d="M170.6 41.9174C170.6 42.078 165.14 42.1958 158.394 42.1958C151.649 42.1958 146.199 42.078 146.199 41.9174C146.199 41.7568 151.66 41.639 158.394 41.639C165.129 41.639 170.6 41.7996 170.6 41.9174Z" fill="white" fill-opacity="0.5"/>
<path d="M170.6 45.8148C170.6 45.9647 165.14 46.0931 158.394 46.0931C151.649 46.0931 146.199 45.9647 146.199 45.8148C146.199 45.6649 151.66 45.5364 158.394 45.5364C165.129 45.5364 170.6 45.6542 170.6 45.8148Z" fill="white" fill-opacity="0.5"/>
<path d="M170.6 49.6692C170.6 49.8191 165.14 49.9476 158.394 49.9476C151.649 49.9476 146.199 49.8191 146.199 49.6692C146.199 49.5193 151.66 49.3909 158.394 49.3909C165.129 49.3909 170.6 49.5193 170.6 49.6692Z" fill="white" fill-opacity="0.5"/>
<path d="M154.872 53.5237C153.445 53.8046 151.987 53.8981 150.536 53.8021C149.084 53.8981 147.626 53.8046 146.199 53.5237C149.078 53.1525 151.993 53.1525 154.872 53.5237Z" fill="white" fill-opacity="0.5"/>
<path d="M150.92 40.1937C150.92 40.1937 150.92 39.8403 150.684 39.2408C150.442 38.3831 149.923 37.63 149.207 37.0994C148.69 36.7271 148.09 36.4874 147.459 36.4015C146.828 36.3157 146.185 36.3862 145.588 36.6069C144.865 36.8776 144.242 37.3625 143.803 37.9968C143.363 38.6311 143.127 39.3844 143.127 40.1562C143.127 40.928 143.363 41.6813 143.803 42.3156C144.242 42.9498 144.865 43.4348 145.588 43.7055C146.186 43.9247 146.829 43.9934 147.46 43.9057C148.091 43.8179 148.691 43.5764 149.207 43.2023C149.916 42.6883 150.435 41.9543 150.684 41.1145C150.866 40.5149 150.866 40.1508 150.92 40.1508C151.011 40.502 151.011 40.8704 150.92 41.2215C150.729 42.1545 150.213 42.9894 149.464 43.577C148.901 44.0138 148.238 44.3033 147.535 44.4192C146.832 44.5351 146.111 44.4738 145.438 44.2409C144.608 43.9429 143.889 43.3958 143.382 42.6742C142.874 41.9527 142.602 41.092 142.602 40.2097C142.602 39.3275 142.874 38.4667 143.382 37.7452C143.889 37.0237 144.608 36.4765 145.438 36.1786C146.11 35.9387 146.832 35.8738 147.537 35.9899C148.241 36.106 148.904 36.3994 149.464 36.8424C150.215 37.4281 150.732 38.2639 150.92 39.1979C151.001 39.5249 151.001 39.8667 150.92 40.1937Z" fill="white" fill-opacity="0.5"/>
<path d="M172.303 52.8706C172.303 52.8706 172.218 53.1811 171.918 53.6843C171.514 54.4304 170.857 55.0077 170.066 55.3118C169.77 55.4103 169.455 55.4383 169.146 55.3937C168.838 55.3491 168.544 55.2331 168.288 55.0548C167.975 54.8304 167.76 54.4938 167.688 54.1149C167.616 53.736 167.693 53.3441 167.903 53.0205C168.032 52.8402 168.205 52.6964 168.406 52.6029C168.53 52.5524 168.666 52.5347 168.799 52.5516C168.932 52.5684 169.058 52.6193 169.166 52.6993C169.328 52.8512 169.453 53.0384 169.531 53.2464C169.609 53.4543 169.638 53.6775 169.616 53.8985C169.593 54.7258 169.278 55.5183 168.727 56.1362C168.434 56.4645 168.067 56.7178 167.657 56.875C167.451 56.9601 167.231 57.0039 167.009 57.0039C166.786 57.0039 166.566 56.9601 166.361 56.875C165.994 56.7076 165.681 56.4399 165.46 56.1027C165.238 55.7655 165.116 55.3726 165.108 54.9691C165.073 54.274 165.236 53.5832 165.579 52.9777C165.633 52.8824 165.708 52.8014 165.799 52.7417C165.891 52.6821 165.995 52.6455 166.104 52.635C166.212 52.6365 166.319 52.6659 166.412 52.7202C166.506 52.7746 166.584 52.8522 166.639 52.9455C166.795 53.2026 166.891 53.4919 166.918 53.7914C166.963 54.2168 166.909 54.647 166.761 55.0482C166.612 55.4494 166.373 55.8108 166.061 56.1041C165.611 56.5109 165.269 56.5645 165.269 56.5324C165.269 56.5002 165.547 56.3717 165.901 55.9542C166.156 55.6652 166.344 55.3233 166.451 54.9531C166.558 54.5828 166.582 54.1934 166.522 53.8128C166.489 53.5812 166.409 53.3589 166.286 53.1597C166.147 53.0098 166.104 53.0098 165.954 53.1597C165.701 53.6861 165.587 54.2684 165.622 54.8514C165.633 55.1552 165.726 55.4504 165.892 55.7052C166.058 55.9599 166.291 56.1644 166.564 56.2968C166.878 56.3798 167.209 56.3647 167.513 56.2537C167.818 56.1426 168.081 55.9409 168.267 55.6758C168.734 55.161 169.004 54.497 169.027 53.8021C169.044 53.665 169.033 53.5259 168.995 53.3932C168.956 53.2606 168.891 53.1374 168.802 53.0312C168.684 52.9241 168.438 53.0312 168.278 53.2346C168.151 53.4538 168.107 53.7107 168.152 53.9596C168.197 54.2085 168.329 54.4334 168.524 54.5944C168.721 54.7407 168.949 54.84 169.19 54.8845C169.431 54.929 169.679 54.9177 169.916 54.8514C170.643 54.5929 171.27 54.1091 171.704 53.4702C172.089 53.1061 172.271 52.8492 172.303 52.8706Z" fill="white" fill-opacity="0.5"/>
<path d="M201.437 115.067L162.817 132.23L161.896 102.797L200.473 84.5629L201.437 115.067Z" fill="#111217"/>
<path d="M393.262 87.2183C392.647 86.7988 392.074 86.322 391.549 85.7943L387.052 81.747C385.136 80.0554 382.866 78.0318 380.275 75.8797C378.968 74.809 377.598 73.7383 376.131 72.6676C375.392 72.1323 374.632 71.5969 373.84 71.1044C373.112 70.5918 372.289 70.2279 371.42 70.0337C370.56 70.1964 369.752 70.5636 369.065 71.1044C368.294 71.6183 367.555 72.1751 366.837 72.7533C365.424 73.8989 364.097 75.0767 362.844 76.2009C360.349 78.4707 358.165 80.5907 356.345 82.3681L352.062 86.6508C351.568 87.205 351.02 87.7073 350.424 88.1498C350.826 87.5252 351.297 86.9471 351.826 86.426C352.779 85.3553 354.182 83.8349 355.949 81.9933C357.715 80.1517 359.878 77.9782 362.373 75.6655C363.615 74.5092 364.942 73.3207 366.377 72.143C367.094 71.5648 367.855 70.9866 368.647 70.4406C369.474 69.7848 370.461 69.3599 371.506 69.2093C372.532 69.3866 373.506 69.7928 374.354 70.3978C375.167 70.9117 375.938 71.4684 376.688 72.0038C378.176 73.0745 379.547 74.2415 380.842 75.3443C383.422 77.4857 385.66 79.6271 387.523 81.3723C389.386 83.1175 390.853 84.5844 391.806 85.6551C392.343 86.1253 392.831 86.6491 393.262 87.2183Z" fill="white" fill-opacity="0.5"/>
<path d="M327.455 87.4003L328.793 153.001L414.331 151.267L414.641 85.6337L327.455 87.4003Z" fill="#111217"/>
<path d="M330.594 91.6616L331.75 149.05L409.332 147.477L410.103 90.0449L330.594 91.6616Z" fill="#15161C"/>
<path d="M344.885 101.426L344.211 139.543L398.441 138.44L397.66 100.356L344.885 101.426Z" fill="#111217"/>
<path d="M389.696 111.245C389.696 111.48 381.313 111.673 370.97 111.673C360.627 111.673 352.297 111.512 352.297 111.245C352.297 110.977 360.68 110.816 371.023 110.816C381.366 110.816 389.696 111.009 389.696 111.245Z" fill="white" fill-opacity="0.5"/>
<path d="M389.697 117.165C389.697 117.401 381.313 117.594 370.97 117.594C360.628 117.594 352.244 117.401 352.244 117.165C352.244 116.93 360.628 116.737 370.97 116.737C381.313 116.737 389.697 116.93 389.697 117.165Z" fill="white" fill-opacity="0.5"/>
<path d="M389.696 123.086C389.696 123.322 381.313 123.515 370.97 123.515C360.627 123.515 352.297 123.29 352.297 123.086C352.297 122.883 360.68 122.658 371.023 122.658C381.366 122.658 389.696 122.851 389.696 123.086Z" fill="white" fill-opacity="0.5"/>
<path d="M365.564 129.007C365.564 129.243 362.587 129.436 358.904 129.436C355.221 129.436 352.244 129.243 352.244 129.007C352.244 128.772 355.221 128.579 358.904 128.579C362.587 128.579 365.564 128.772 365.564 129.007Z" fill="white" fill-opacity="0.5"/>
<path d="M359.492 108.546C359.406 108.546 359.406 108 359.139 107.08C358.747 105.79 357.947 104.662 356.858 103.868C355.991 103.227 354.963 102.839 353.889 102.748C352.815 102.657 351.736 102.866 350.773 103.351C349.811 103.837 349.002 104.58 348.437 105.498C347.871 106.417 347.572 107.474 347.572 108.552C347.572 109.63 347.871 110.687 348.437 111.605C349.002 112.523 349.811 113.267 350.773 113.752C351.736 114.238 352.815 114.447 353.889 114.355C354.963 114.264 355.991 113.877 356.858 113.236C357.945 112.44 358.745 111.313 359.139 110.024C359.406 109.103 359.406 108.546 359.492 108.546C359.619 109.056 359.619 109.589 359.492 110.099C359.199 111.532 358.406 112.815 357.254 113.718C356.397 114.4 355.379 114.852 354.298 115.03C353.216 115.208 352.108 115.106 351.076 114.735C349.796 114.283 348.688 113.445 347.904 112.337C347.12 111.228 346.699 109.904 346.699 108.546C346.699 107.189 347.12 105.865 347.904 104.756C348.688 103.648 349.796 102.81 351.076 102.358C352.112 101.994 353.223 101.901 354.305 102.088C355.386 102.276 356.402 102.737 357.254 103.429C358.403 104.329 359.196 105.607 359.492 107.037C359.612 107.533 359.612 108.05 359.492 108.546Z" fill="white" fill-opacity="0.5"/>
<path d="M392.317 128.001C392.2 128.448 392.001 128.869 391.728 129.243C391.111 130.393 390.1 131.283 388.88 131.748C388.424 131.896 387.939 131.938 387.464 131.869C386.989 131.8 386.536 131.623 386.139 131.352C385.662 131.004 385.335 130.485 385.228 129.904C385.12 129.322 385.24 128.722 385.561 128.226C385.754 127.947 386.021 127.728 386.332 127.594C386.521 127.516 386.726 127.488 386.929 127.512C387.131 127.537 387.324 127.613 387.489 127.733C387.74 127.965 387.934 128.252 388.055 128.572C388.175 128.891 388.22 129.235 388.185 129.575C388.154 130.845 387.672 132.064 386.825 133.012C386.393 133.509 385.85 133.898 385.24 134.147C384.927 134.279 384.59 134.347 384.25 134.347C383.91 134.347 383.573 134.279 383.259 134.147C382.699 133.885 382.222 133.474 381.882 132.958C381.542 132.442 381.351 131.841 381.332 131.224C381.284 130.156 381.532 129.096 382.049 128.161C382.136 128.018 382.254 127.897 382.395 127.808C382.537 127.719 382.697 127.664 382.863 127.647C383.029 127.65 383.192 127.695 383.336 127.777C383.48 127.86 383.601 127.977 383.688 128.119C383.921 128.514 384.064 128.957 384.105 129.414C384.175 130.067 384.093 130.727 383.866 131.344C383.64 131.96 383.275 132.516 382.799 132.969C382.114 133.59 381.578 133.665 381.578 133.633C381.578 133.601 382.007 133.376 382.553 132.733C382.932 132.297 383.213 131.785 383.377 131.23C383.542 130.676 383.585 130.094 383.506 129.521C383.453 129.166 383.333 128.825 383.152 128.515C382.938 128.279 382.863 128.29 382.638 128.579C382.253 129.39 382.072 130.284 382.114 131.181C382.133 131.647 382.279 132.1 382.535 132.49C382.792 132.881 383.149 133.194 383.57 133.397C384.049 133.526 384.557 133.504 385.024 133.336C385.491 133.167 385.895 132.86 386.182 132.455C386.898 131.658 387.311 130.635 387.349 129.564C387.376 129.356 387.359 129.144 387.298 128.943C387.237 128.741 387.134 128.556 386.996 128.397C386.825 128.215 386.439 128.397 386.204 128.697C385.975 129.031 385.885 129.442 385.953 129.841C386.021 130.24 386.241 130.598 386.568 130.838C386.873 131.059 387.224 131.209 387.594 131.275C387.965 131.342 388.346 131.324 388.709 131.224C389.829 130.823 390.79 130.072 391.45 129.082C391.975 128.365 392.264 127.969 392.317 128.001Z" fill="white" fill-opacity="0.5"/>
<path d="M575 439.475C575 439.635 478.797 439.753 360.157 439.753C241.516 439.753 145.301 439.635 145.301 439.475C145.301 439.314 241.479 439.196 360.157 439.196C478.835 439.196 575 439.325 575 439.475Z" fill="#263238"/>
<path d="M194.51 181.942L192.219 439.475H294.234V185.454L194.51 181.942Z" fill="#455A64"/>
<path d="M197.711 224.737V260.841H246.031V226.451L197.711 224.737Z" fill="#263238"/>
<path d="M249.471 183.88L248.561 439.475H294.236V185.454L249.471 183.88Z" fill="#263238"/>
<path d="M197.711 185.122V221.226H246.031V186.824L197.711 185.122Z" fill="#263238"/>
<path d="M214.371 195.047V200.379H229.157V194.566L214.371 195.047Z" fill="#263238"/>
<path d="M229.639 204.866H214.371V207.05H229.639V204.866Z" fill="#263238"/>
<g opacity="0.4">
<path opacity="0.4" d="M214.373 195.047V200.379H229.159V194.566L214.373 195.047Z" fill="#6C3939"/>
<path opacity="0.4" d="M229.641 204.866H214.373V207.05H229.641V204.866Z" fill="#6C3939"/>
</g>
<path d="M197.711 311.624V347.717H246.031V313.326L197.711 311.624Z" fill="#263238"/>
<path d="M214.371 321.549V326.881H229.157V321.067L214.371 321.549Z" fill="#263238"/>
<path d="M229.639 331.367H214.371V333.552H229.639V331.367Z" fill="#263238"/>
<g opacity="0.4">
<path opacity="0.4" d="M214.373 321.549V326.881H229.159V321.067L214.373 321.549Z" fill="#6C3939"/>
<path opacity="0.4" d="M229.641 331.367H214.373V333.552H229.641V331.367Z" fill="#6C3939"/>
</g>
<path d="M197.711 352.31V388.403H246.031V354.012L197.711 352.31Z" fill="#263238"/>
<path d="M214.371 362.235V367.567H229.157V361.753L214.371 362.235Z" fill="#263238"/>
<path d="M229.639 372.053H214.371V374.238H229.639V372.053Z" fill="#263238"/>
<g opacity="0.4">
<path opacity="0.4" d="M214.373 362.235V367.567H229.159V361.754L214.373 362.235Z" fill="#6C3939"/>
<path opacity="0.4" d="M229.641 372.054H214.373V374.238H229.641V372.054Z" fill="#6C3939"/>
</g>
<path d="M197.199 392.996V429.089H245.519V394.699L197.199 392.996Z" fill="#263238"/>
<path d="M213.848 402.922V408.254H228.634V402.44L213.848 402.922Z" fill="#263238"/>
<path d="M229.116 412.74H213.848V414.924H229.116V412.74Z" fill="#263238"/>
<g opacity="0.4">
<path opacity="0.4" d="M213.848 402.922V408.254H228.634V402.44L213.848 402.922Z" fill="#6C3939"/>
<path opacity="0.4" d="M229.116 412.74H213.848V414.924H229.116V412.74Z" fill="#6C3939"/>
</g>
<path d="M196.791 267.297H148.471V303.401H196.791V267.297Z" fill="#455A64"/>
<path d="M165.451 283.561V288.572H179.349V283.111L165.451 283.561Z" fill="#263238"/>
<path d="M179.798 292.79H165.451V294.835H179.798V292.79Z" fill="#263238"/>
<g opacity="0.4">
<path opacity="0.4" d="M165.451 283.561V288.572H179.349V283.111L165.451 283.561Z" fill="#6C3939"/>
<path opacity="0.4" d="M179.798 292.79H165.451V294.835H179.798V292.79Z" fill="#6C3939"/>
</g>
<path d="M196.791 267.297L244.426 266.944L243.559 303.39H196.791V267.297Z" fill="#263238"/>
<path opacity="0.4" d="M196.791 267.297L244.426 266.944L243.559 303.39H196.791V267.297Z" fill="#6C3939"/>
<path d="M242.736 234.513H195.111V266.933H242.736V234.513Z" fill="#15161C"/>
<path d="M183.557 239.684L185.955 267.233L242.702 266.944L239.34 239.995C239.223 239.156 238.779 238.397 238.105 237.884C237.432 237.37 236.582 237.144 235.742 237.254L212.84 239.245L208.943 236.354C208.587 236.106 208.155 235.988 207.722 236.023L185.11 238.014C184.684 238.036 184.285 238.223 183.995 238.535C183.705 238.846 183.548 239.259 183.557 239.684Z" fill="#263238"/>
<path d="M183.557 239.684L185.955 267.233L242.702 266.944L239.34 239.995C239.223 239.156 238.779 238.397 238.105 237.884C237.432 237.37 236.582 237.144 235.742 237.254L212.84 239.245L208.943 236.354C208.587 236.106 208.155 235.988 207.722 236.023L185.11 238.014C184.684 238.036 184.285 238.223 183.995 238.535C183.705 238.846 183.548 239.259 183.557 239.684Z" fill="#4098F9"/>
<path d="M167.271 260.06L166.072 252.886L218.568 249.417L223.183 267.222L168.31 266.944L167.271 260.06Z" fill="#15161C"/>
<path d="M160.57 256.569L161.501 267.276H217.648L216.32 256.858C216.203 256.021 215.761 255.264 215.09 254.751C214.418 254.238 213.572 254.01 212.734 254.117L189.832 256.109L185.924 253.218C185.572 252.967 185.144 252.85 184.714 252.886L162.101 254.888C161.676 254.91 161.277 255.099 160.99 255.414C160.703 255.729 160.552 256.144 160.57 256.569Z" fill="#4098F9"/>
<path opacity="0.7" d="M160.57 256.569L161.501 267.276H217.648L216.32 256.858C216.203 256.021 215.761 255.264 215.09 254.751C214.418 254.238 213.572 254.01 212.734 254.117L189.832 256.109L185.924 253.218C185.572 252.967 185.144 252.85 184.714 252.886L162.101 254.888C161.676 254.91 161.277 255.099 160.99 255.414C160.703 255.729 160.552 256.144 160.57 256.569Z" fill="#15161C"/>
<path d="M219.822 254.224H227.317C227.601 254.225 227.88 254.29 228.135 254.413C228.391 254.537 228.614 254.717 228.79 254.939C228.966 255.161 229.09 255.42 229.152 255.697C229.214 255.974 229.212 256.261 229.148 256.537L226.728 266.933H223.227L219.822 254.224Z" fill="#263238"/>
<path d="M318.032 110.795L284.723 117.936C284.442 117.995 284.151 117.997 283.869 117.941C283.587 117.885 283.319 117.772 283.081 117.61C282.843 117.448 282.64 117.24 282.484 116.998C282.329 116.756 282.224 116.485 282.175 116.202L277.678 93.7174C277.553 93.1468 277.659 92.5501 277.972 92.0569C278.284 91.5637 278.779 91.2139 279.348 91.0835L312.647 83.9206C312.928 83.8618 313.219 83.8603 313.501 83.9163C313.783 83.9723 314.052 84.0846 314.289 84.2465C314.527 84.4084 314.73 84.6166 314.886 84.8586C315.041 85.1006 315.146 85.3715 315.195 85.6551L319.703 108.14C319.825 108.713 319.719 109.311 319.407 109.807C319.095 110.303 318.602 110.657 318.032 110.795Z" fill="#4098F9"/>
<path d="M299.606 98.3428L304.703 100.109L300.677 103.803L296.651 107.497L295.58 102.037L294.51 96.5762L299.606 98.3428Z" fill="#15161C"/>
<path d="M254.927 99.0173L255.259 98.5783C255.494 98.2999 255.826 97.8824 256.254 97.3149C257.499 95.6636 258.575 93.8916 259.466 92.0257C260.107 90.6803 260.644 89.288 261.072 87.8607C261.533 86.2975 261.897 84.5523 262.357 82.7C263.257 78.974 264.284 74.7448 265.409 70.0659C266.533 65.387 267.796 60.2584 269.124 54.7657C269.43 53.3473 269.823 51.9491 270.302 50.5794C270.828 49.1739 271.487 47.8222 272.272 46.5429C273.093 45.2278 274.047 44.0007 275.12 42.8811C275.663 42.3097 276.239 41.7699 276.844 41.2644H276.897C277.122 42.1423 276.897 41.4999 276.983 41.6926H276.844L276.555 41.6177L275.976 41.4785L274.82 41.2001L255.419 36.4677L245.151 33.9516L239.905 32.6667L237.25 32.0243H237.089H237.003C236.95 32.0243 237.282 32.0243 237.121 32.0243L236.811 32.1421L236.179 32.3884C235.783 32.5918 235.355 32.7524 234.969 32.9772C231.785 34.6539 229.222 37.3069 227.656 40.547C226.914 42.1417 226.381 43.8261 226.072 45.5578C225.675 47.2709 225.279 48.9733 224.894 50.665C223.331 57.4103 221.832 63.9201 220.397 70.1301L219.326 74.7234C218.218 79.0865 216.265 83.1898 213.577 86.8007C213.148 87.3682 212.709 87.8714 212.26 88.4496L212.088 88.653L212.003 88.7601C211.778 88.0213 212.003 88.5567 211.917 88.3961H212.014L212.517 88.5245L213.512 88.7708L217.41 89.7344L224.755 91.5546L246.875 97.0579L252.892 98.589L254.445 98.9959L254.98 99.1565L254.434 99.0494L252.86 98.6961L246.832 97.2721L224.658 91.9186L217.313 90.1413L213.405 89.1884L212.41 88.9528L211.906 88.8243H211.81C211.746 88.6637 211.896 89.1884 211.66 88.4496L211.746 88.3532L211.906 88.1498C212.356 87.6252 212.784 87.0791 213.202 86.5117C214.93 84.1722 216.351 81.621 217.431 78.9205C218.502 76.0223 219.326 73.0387 219.894 70.0016C221.318 63.7917 222.817 57.2819 224.359 50.5258C224.755 48.8341 225.14 47.1317 225.536 45.4186C225.851 43.6498 226.395 41.9295 227.153 40.3007C228.719 36.8881 231.349 34.0745 234.648 32.2813C235.055 32.0457 235.494 31.8744 235.911 31.6817L236.564 31.4247L236.886 31.2963H237.078H237.164H237.335L239.98 31.9494L245.226 33.352L255.494 35.8681L274.884 40.6327L276.041 40.9218L276.619 41.0609L276.908 41.1359H277.047C277.101 41.3393 276.983 40.6969 277.176 41.5856H277.122C276.533 42.0888 275.966 42.6563 275.43 43.1702C273.357 45.3189 271.747 47.8697 270.698 50.665C270.226 52.0142 269.836 53.3908 269.531 54.7872L265.751 70.0766L262.625 82.6893C262.143 84.5416 261.758 86.2761 261.276 87.85C260.834 89.2855 260.283 90.6851 259.627 92.0364C258.721 93.9025 257.615 95.6652 256.329 97.2935C255.896 97.8951 255.428 98.4707 254.927 99.0173Z" fill="#263238"/>
<path d="M262.027 53.0955C261.621 53.092 261.217 53.0307 260.828 52.9135C260.068 52.7636 258.965 52.528 257.616 52.2283C254.907 51.618 251.192 50.74 247.059 49.6907C242.926 48.6415 239.243 47.5493 236.577 46.7999C235.238 46.4037 234.168 46.0611 233.429 45.8148C233.036 45.7194 232.658 45.5718 232.305 45.3759C232.708 45.4131 233.106 45.4921 233.493 45.6114L236.705 46.4251L247.209 49.1447L257.734 51.8428L260.946 52.7101C261.318 52.8017 261.68 52.9309 262.027 53.0955Z" fill="#263238"/>
<path d="M261.286 57.5817C260.881 57.5643 260.479 57.5032 260.087 57.3996C259.316 57.2497 258.224 57.0142 256.875 56.7037C254.166 56.0934 250.451 55.2154 246.307 54.1662C242.163 53.1169 238.502 52.0248 235.836 51.286C234.497 50.8792 233.427 50.5472 232.688 50.301C232.316 50.1956 231.956 50.0483 231.617 49.862C232.021 49.8913 232.419 49.9667 232.806 50.0868L236.018 50.9006L246.521 53.6308L257.003 56.329L260.215 57.1855C260.586 57.2779 260.945 57.4107 261.286 57.5817Z" fill="#263238"/>
<path d="M260.215 62.0571C259.809 62.0545 259.405 61.9968 259.015 61.8858C258.244 61.7359 257.152 61.4896 255.803 61.1898C253.094 60.5795 249.379 59.7016 245.236 58.6523C241.092 57.603 237.43 56.5645 234.764 55.7615C233.426 55.3653 232.355 55.0334 231.616 54.7871C231.228 54.6796 230.851 54.5325 230.492 54.3481C230.897 54.3705 231.296 54.4461 231.681 54.573L234.893 55.3867L245.396 58.1063L255.932 60.8044L259.144 61.6716C259.512 61.7659 259.871 61.895 260.215 62.0571Z" fill="#263238"/>
<path d="M259.283 66.5434C258.877 66.5328 258.474 66.4717 258.084 66.3614C257.324 66.2115 256.221 65.9759 254.872 65.6761C252.163 65.0658 248.447 64.1879 244.315 63.1279C240.182 62.0679 236.499 61.0508 233.833 60.2477C232.505 59.8516 231.434 59.509 230.695 59.2627C230.3 59.1656 229.918 59.0181 229.561 58.8237C229.964 58.86 230.362 58.939 230.749 59.0593L233.961 59.8623L244.475 62.5925L254.989 65.2907L258.201 66.1579C258.575 66.2473 258.937 66.3765 259.283 66.5434Z" fill="#263238"/>
<path d="M257.839 71.0294C257.434 71.012 257.032 70.951 256.64 70.8474C255.869 70.6975 254.777 70.462 253.428 70.1515C250.719 69.5412 247.004 68.6632 242.861 67.6139C238.717 66.5647 235.055 65.4726 232.389 64.7231C231.051 64.3269 229.98 63.995 229.241 63.7487C228.844 63.6557 228.46 63.5155 228.096 63.3312C228.5 63.3535 228.9 63.4291 229.284 63.556L232.496 64.3697L243 67.1L253.525 69.7874L256.737 70.6547C257.118 70.7346 257.488 70.8605 257.839 71.0294Z" fill="#263238"/>
<path d="M256.787 75.5051C256.38 75.5016 255.977 75.4403 255.588 75.323C254.827 75.1731 253.725 74.9376 252.376 74.6378C249.667 74.0275 245.951 73.1495 241.819 72.1003C237.686 71.051 234.003 69.9589 231.336 69.2094C230.009 68.8133 228.927 68.4706 228.189 68.2244C227.796 68.129 227.418 67.9813 227.064 67.7854C227.468 67.8227 227.866 67.9016 228.253 68.0209L231.465 68.8347L241.979 71.5542L252.493 74.2524L255.705 75.1196C256.078 75.2113 256.44 75.3404 256.787 75.5051Z" fill="#263238"/>
<path d="M255.462 80.1518C255.056 80.1492 254.653 80.0916 254.263 79.9805C253.502 79.8306 252.4 79.5951 251.051 79.2846C248.342 78.6743 244.626 77.7963 240.483 76.747C236.339 75.6978 232.677 74.6057 230.011 73.8562C228.684 73.46 227.602 73.1281 226.864 72.8818C226.491 72.7765 226.132 72.6292 225.793 72.4429C226.197 72.4652 226.597 72.5408 226.981 72.6677L230.193 73.4814L240.697 76.2117L251.222 78.8991L254.434 79.7664C254.788 79.8614 255.132 79.9905 255.462 80.1518Z" fill="#263238"/>
<path d="M254.477 84.6165C253.608 84.5657 252.747 84.4258 251.907 84.1989C250.333 83.867 248.17 83.3852 245.793 82.7749C243.416 82.1646 241.296 81.5008 239.755 81.0404C238.906 80.8383 238.084 80.5401 237.303 80.1517C238.17 80.2362 239.027 80.4048 239.862 80.655C241.425 81.0297 243.566 81.6186 245.932 82.2396C248.299 82.8606 250.451 83.3852 252.003 83.8135C252.854 83.9919 253.683 84.2611 254.477 84.6165Z" fill="#263238"/>
<path d="M185.503 190.625L148.917 204.994C146.023 187.229 140.35 170.03 132.107 154.029L154.592 144.393C156.644 143.513 158.854 143.063 161.087 143.069C163.32 143.076 165.527 143.541 167.574 144.433C169.62 145.326 171.462 146.629 172.986 148.261C174.51 149.893 175.683 151.819 176.434 153.922C180.745 165.802 183.785 178.105 185.503 190.625Z" fill="#15161C"/>
<path d="M185.502 190.625C185.502 190.625 185.502 190.465 185.417 190.165C185.331 189.865 185.288 189.405 185.203 188.848C185.01 187.692 184.732 185.968 184.325 183.762C183.168 177.528 181.696 171.357 179.913 165.272C179.335 163.344 178.725 161.321 178.029 159.244C177.333 157.166 176.637 154.961 175.716 152.819C174.737 150.612 173.274 148.654 171.434 147.091C169.454 145.452 167.124 144.291 164.624 143.697C161.992 143.102 159.252 143.179 156.658 143.922C155.984 144.093 155.352 144.382 154.699 144.607L152.75 145.453L148.778 147.155L132.236 154.276L132.375 153.901C132.664 154.479 132.974 155.111 133.296 155.742C137.405 164.028 140.866 172.619 143.649 181.439C146.06 189.145 147.903 197.018 149.163 204.994L148.864 204.823L175.438 194.512L182.869 191.653L184.839 190.914C185.278 190.743 185.524 190.668 185.524 190.668C185.524 190.668 185.32 190.775 184.892 190.947L182.986 191.728L175.631 194.64L149.024 205.208L148.767 205.315V205.026C147.472 197.08 145.612 189.237 143.2 181.557C140.391 172.782 136.915 164.234 132.803 155.989L131.893 154.147L131.754 153.879L132.032 153.772L148.574 146.663L152.547 144.95L154.495 144.115C155.181 143.879 155.834 143.59 156.519 143.408C159.203 142.652 162.034 142.582 164.753 143.205C167.327 143.819 169.723 145.021 171.755 146.716C173.657 148.328 175.166 150.353 176.166 152.637C177.108 154.843 177.761 157.027 178.468 159.115C179.175 161.203 179.753 163.226 180.32 165.154C182.083 171.26 183.513 177.458 184.603 183.719C184.967 185.946 185.224 187.66 185.374 188.848C185.438 189.416 185.492 189.854 185.535 190.186C185.538 190.333 185.527 190.48 185.502 190.625Z" fill="#263238"/>
<path d="M155.812 143.89C155.812 143.89 161.273 155.089 160.791 155.485C160.309 155.882 174.346 150.25 174.517 150.132C174.56 150.164 167.258 140.421 155.812 143.89Z" fill="#263238"/>
<path d="M153.766 158.987C152.201 159.954 150.54 160.758 148.809 161.385C147.154 162.18 145.426 162.811 143.648 163.269C145.208 162.298 146.866 161.494 148.595 160.871C150.252 160.074 151.985 159.442 153.766 158.987Z" fill="#263238"/>
<path d="M171.926 157.38C171.99 157.52 166.059 160.4 158.682 163.805C151.305 167.209 145.266 169.854 145.202 169.715C145.137 169.576 151.069 166.706 158.446 163.291C165.823 159.875 171.862 157.241 171.926 157.38Z" fill="#263238"/>
<path d="M174.389 163.976C174.453 164.115 168.522 166.985 161.145 170.4C153.767 173.816 147.729 176.46 147.665 176.321C147.6 176.182 153.532 173.312 160.909 169.897C168.286 166.481 174.325 163.826 174.389 163.976Z" fill="#263238"/>
<path d="M176.905 170.518C176.969 170.657 171.037 173.527 163.66 176.942C156.283 180.357 150.244 182.991 150.18 182.852C150.116 182.713 156.048 179.844 163.425 176.428C170.802 173.013 176.84 170.4 176.905 170.518Z" fill="#263238"/>
<path d="M169.826 182.67C169.042 183.184 168.21 183.622 167.342 183.976C165.779 184.715 163.606 185.711 161.186 186.771C157.396 188.441 154.141 189.801 152.91 190.219L152.738 190.283V190.122C152.824 189.726 152.888 189.544 152.92 189.544C152.952 189.544 152.92 189.747 152.92 190.154L152.792 190.047C153.927 189.426 157.075 187.906 160.918 186.268C163.338 185.197 165.544 184.266 167.15 183.612C168.006 183.203 168.903 182.887 169.826 182.67Z" fill="#263238"/>
<path d="M339.297 189.672L298.686 172.113C302.958 168.587 306.303 164.07 308.429 158.954L320.281 130.495C321.406 127.9 323.16 125.625 325.384 123.877C327.609 122.129 330.234 120.963 333.023 120.485L370.689 136.802C366.614 139.167 363.405 142.777 361.535 147.102L348.012 178.291C346.076 182.737 343.084 186.644 339.297 189.672Z" fill="#4098F9"/>
<path opacity="0.7" d="M339.297 189.672L298.686 172.113C302.958 168.587 306.303 164.07 308.429 158.954L320.281 130.495C321.406 127.9 323.16 125.625 325.384 123.877C327.609 122.129 330.234 120.963 333.023 120.485L370.689 136.802C366.614 139.167 363.405 142.777 361.535 147.102L348.012 178.291C346.076 182.737 343.084 186.644 339.297 189.672Z" fill="#15161C"/>
<path d="M353.932 148.59C353.867 148.729 347.218 145.956 339.07 142.38C330.922 138.804 324.37 135.806 324.434 135.667C324.498 135.528 331.147 138.301 339.295 141.877C347.443 145.453 353.996 148.451 353.932 148.59Z" fill="#263238"/>
<path d="M352.294 154.19C352.23 154.329 345.356 151.449 336.93 147.766C328.504 144.083 321.737 140.967 321.801 140.828C321.865 140.689 328.739 143.558 337.155 147.252C345.571 150.946 352.294 154.051 352.294 154.19Z" fill="#263238"/>
<path d="M350.154 159.136C350.1 159.276 343.216 156.395 334.8 152.712C326.384 149.029 319.607 145.924 319.66 145.785C319.714 145.646 326.599 148.515 335.025 152.209C343.451 155.903 350.154 158.987 350.154 159.136Z" fill="#263238"/>
<path d="M347.935 164.083C347.871 164.222 340.997 161.342 332.571 157.659C324.144 153.976 317.378 150.871 317.442 150.721C317.506 150.571 324.38 153.462 332.796 157.145C341.211 160.828 348.01 163.976 347.935 164.083Z" fill="#263238"/>
<path d="M345.762 169.019C345.762 169.169 338.824 166.289 330.409 162.595C321.993 158.901 315.216 155.807 315.28 155.657C315.344 155.507 322.207 158.398 330.633 162.081C339.06 165.764 345.869 168.88 345.762 169.019Z" fill="#263238"/>
<path d="M328.943 167.541C328.113 167.359 327.308 167.079 326.545 166.706C325.088 166.128 323.097 165.293 320.913 164.329C318.729 163.366 316.758 162.477 315.345 161.802C314.556 161.49 313.805 161.088 313.107 160.603C313.934 160.798 314.737 161.078 315.506 161.438C316.962 162.027 318.953 162.862 321.138 163.815C323.322 164.768 325.292 165.678 326.705 166.353C327.492 166.667 328.242 167.066 328.943 167.541Z" fill="#263238"/>
<path d="M339.168 178.966C339.114 178.966 339.286 178.58 339.382 177.895C339.5 176.908 339.298 175.909 338.804 175.047C338.405 174.365 337.825 173.808 337.129 173.435C336.433 173.063 335.647 172.89 334.859 172.936C334.07 172.982 333.31 173.245 332.662 173.696C332.014 174.147 331.503 174.768 331.186 175.492C330.869 176.215 330.758 177.012 330.865 177.794C330.973 178.576 331.294 179.313 331.795 179.924C332.295 180.535 332.954 180.996 333.7 181.256C334.446 181.516 335.249 181.564 336.02 181.396C336.991 181.179 337.864 180.648 338.504 179.886C338.954 179.34 339.125 178.966 339.168 178.987C339.099 179.38 338.929 179.749 338.675 180.058C338.06 180.93 337.152 181.553 336.117 181.814C335.343 182.016 334.531 182.019 333.755 181.822C332.98 181.626 332.268 181.236 331.684 180.689C330.963 180.011 330.47 179.125 330.272 178.155C330.075 177.185 330.182 176.178 330.58 175.271C330.977 174.364 331.646 173.603 332.493 173.091C333.341 172.579 334.326 172.343 335.313 172.413C336.111 172.47 336.882 172.729 337.552 173.165C338.223 173.602 338.771 174.201 339.147 174.908C339.65 175.848 339.806 176.936 339.586 177.98C339.523 178.336 339.381 178.673 339.168 178.966Z" fill="#263238"/>
<path d="M338.653 135.258L326.885 130.102L326.141 131.799L337.91 136.955L338.653 135.258Z" fill="#263238"/>
<path d="M315.794 240.048L271.949 239.02L288.267 217.178H331.041L315.794 240.048Z" fill="#4098F9"/>
<path d="M278.459 235.744L313.139 236.804L308.32 229.716L301.5 232.639L296.104 223.314L278.459 235.744Z" fill="#4098F9"/>
<path d="M307.399 223.249C307.399 223.694 307.267 224.129 307.02 224.498C306.773 224.868 306.422 225.156 306.011 225.327C305.6 225.497 305.148 225.541 304.712 225.454C304.276 225.368 303.875 225.154 303.561 224.839C303.246 224.525 303.032 224.124 302.946 223.688C302.859 223.252 302.903 222.8 303.074 222.389C303.244 221.978 303.532 221.627 303.902 221.38C304.271 221.133 304.706 221.001 305.151 221.001C305.747 221.001 306.319 221.238 306.741 221.659C307.162 222.081 307.399 222.653 307.399 223.249Z" fill="#4098F9"/>
<g opacity="0.7">
<path opacity="0.7" d="M278.463 235.744L313.142 236.804L308.324 229.716L301.504 232.639L296.108 223.314L278.463 235.744Z" fill="#15161C"/>
<path opacity="0.7" d="M307.403 223.249C307.403 223.694 307.271 224.129 307.024 224.498C306.777 224.868 306.426 225.156 306.015 225.327C305.604 225.497 305.152 225.541 304.716 225.454C304.28 225.368 303.879 225.154 303.565 224.839C303.25 224.525 303.036 224.124 302.949 223.688C302.863 223.252 302.907 222.8 303.077 222.389C303.248 221.978 303.536 221.627 303.906 221.38C304.275 221.133 304.71 221.001 305.155 221.001C305.751 221.001 306.323 221.238 306.745 221.659C307.166 222.081 307.403 222.653 307.403 223.249Z" fill="#15161C"/>
</g>
<path d="M196.882 111.662L158.263 128.815L157.342 99.3921L195.919 81.1583L196.882 111.662Z" fill="#4098F9"/>
<path opacity="0.7" d="M196.882 111.662L158.263 128.815L157.342 99.3921L195.919 81.1583L196.882 111.662Z" fill="#15161C"/>
<path d="M159.977 123.643L195.02 107.304L183.628 100.688L179.249 108.397L166.39 102.219L159.977 123.643Z" fill="#4098F9"/>
<path d="M179.825 100.688C179.825 101.063 179.714 101.43 179.505 101.742C179.297 102.053 179 102.296 178.653 102.439C178.306 102.583 177.925 102.619 177.557 102.545C177.189 102.471 176.851 102.29 176.586 102.024C176.322 101.758 176.142 101.419 176.07 101.051C175.998 100.682 176.037 100.301 176.183 99.9549C176.328 99.6088 176.572 99.3136 176.885 99.1066C177.198 98.8997 177.566 98.7903 177.941 98.7924C178.189 98.7924 178.435 98.8416 178.665 98.9369C178.894 99.0323 179.102 99.172 179.277 99.3482C179.452 99.5243 179.591 99.7333 179.685 99.9632C179.779 100.193 179.827 100.439 179.825 100.688Z" fill="#4098F9"/>
<path d="M172.192 98.7389C172.084 97.6584 171.908 96.5857 171.668 95.5268C170.897 92.6323 169.178 90.08 166.785 88.2782C165.028 86.958 162.968 86.098 160.793 85.7763C158.619 85.4547 156.398 85.6817 154.333 86.4367C153.142 86.8591 152.022 87.4621 151.014 88.2247C149.948 89.0038 149.012 89.947 148.241 91.0192C146.593 93.2656 145.704 95.9793 145.704 98.7656C145.704 101.552 146.593 104.266 148.241 106.512C149.012 107.584 149.948 108.527 151.014 109.307C152.022 110.069 153.142 110.672 154.333 111.095C156.539 111.897 158.919 112.101 161.229 111.683C163.246 111.315 165.15 110.479 166.785 109.242C169.177 107.444 170.897 104.896 171.668 102.004C171.909 100.946 172.085 99.873 172.192 98.7924C172.211 99.0776 172.211 99.3637 172.192 99.6489C172.197 100.007 172.172 100.365 172.118 100.72C172.069 101.193 171.983 101.662 171.861 102.122C171.258 104.64 169.942 106.93 168.069 108.718C166.196 110.505 163.847 111.713 161.304 112.197C158.922 112.605 156.475 112.369 154.216 111.512C151.673 110.596 149.459 108.945 147.856 106.769C146.124 104.434 145.189 101.603 145.189 98.696C145.189 95.7887 146.124 92.9585 147.856 90.623C148.664 89.5125 149.644 88.5368 150.757 87.7322C151.809 86.9451 152.975 86.324 154.216 85.8906C156.358 85.1226 158.659 84.9094 160.906 85.2707C163.152 85.632 165.271 86.5562 167.064 87.957C169.497 89.8212 171.21 92.469 171.914 95.4518C172.038 95.9116 172.124 96.3807 172.171 96.8544C172.246 97.4796 172.268 98.11 172.235 98.7389H172.192Z" fill="#263238"/>
<path d="M149.935 108.632C150.042 108.75 146.081 112.422 141.102 116.834C136.124 121.245 131.991 124.735 131.894 124.628C131.798 124.521 135.749 120.838 140.727 116.416C145.706 111.994 149.85 108.514 149.935 108.632Z" fill="#263238"/>
<path d="M358.441 236.649C358.441 236.649 358.277 236.649 357.96 236.649C357.499 236.621 357.036 236.621 356.574 236.649C354.788 236.753 353.033 237.165 351.386 237.865C348.776 238.959 346.505 240.728 344.806 242.992C343.758 244.405 342.979 245.998 342.507 247.693C341.443 251.729 342.018 256.023 344.107 259.637C344.676 260.637 345.371 261.561 346.174 262.386C346.985 263.259 347.929 263.998 348.972 264.575C350.042 265.177 351.253 265.481 352.481 265.457C353.746 265.442 354.96 264.951 355.88 264.082C356.325 263.616 356.674 263.067 356.907 262.466C357.14 261.865 357.252 261.224 357.237 260.579C357.227 259.241 356.802 257.938 356.02 256.851C354.445 254.632 351.891 253.142 349.173 252.339C346.354 251.547 343.377 251.505 340.537 252.217C339.087 252.594 337.69 253.15 336.377 253.871C335.052 254.619 333.848 255.565 332.807 256.675C332.558 256.961 332.272 257.222 332.047 257.539L331.36 258.463C330.942 259.114 330.568 259.793 330.241 260.494C329.59 261.918 329.146 263.427 328.921 264.976C328.48 268.071 328.901 271.228 330.137 274.099C331.32 276.904 333.379 279.251 336.006 280.788C337.28 281.516 338.702 281.946 340.166 282.047C341.601 282.127 343.028 281.785 344.271 281.062C345.504 280.38 346.479 279.312 347.044 278.021C347.577 276.749 347.614 275.323 347.147 274.026C346.667 272.773 345.881 271.661 344.861 270.79C343.871 269.935 342.731 269.273 341.498 268.838C339.093 268.08 336.52 268.035 334.09 268.71C331.817 269.326 329.729 270.489 328.009 272.098C326.442 273.599 325.248 275.446 324.524 277.492C323.257 281.041 323.316 284.929 324.688 288.439C325.759 291.059 327.482 293.362 329.693 295.128C331.087 296.246 332.638 297.15 334.297 297.81C334.869 298.023 335.313 298.181 335.617 298.266L336.067 298.412C336.067 298.412 335.909 298.382 335.605 298.297C335.155 298.177 334.713 298.032 334.279 297.865C332.598 297.233 331.026 296.343 329.62 295.226C327.372 293.46 325.614 291.146 324.518 288.506C323.121 284.963 323.05 281.035 324.317 277.443C325.043 275.367 326.25 273.491 327.839 271.97C329.583 270.329 331.702 269.139 334.011 268.504C336.492 267.811 339.12 267.854 341.577 268.625C342.846 269.068 344.02 269.747 345.037 270.626C346.097 271.526 346.913 272.678 347.409 273.977C347.909 275.333 347.887 276.826 347.348 278.167C346.748 279.508 345.731 280.62 344.447 281.336C343.159 282.086 341.679 282.446 340.19 282.369C338.691 282.265 337.235 281.82 335.933 281.068C333.246 279.509 331.135 277.121 329.918 274.263C328.655 271.339 328.222 268.124 328.666 264.97C328.898 263.39 329.352 261.85 330.016 260.397C330.35 259.681 330.732 258.988 331.159 258.323L331.865 257.38C332.09 257.058 332.382 256.772 332.637 256.493C333.702 255.361 334.932 254.398 336.286 253.634C337.629 252.899 339.059 252.335 340.543 251.956C343.437 251.23 346.471 251.274 349.343 252.083C352.116 252.911 354.713 254.425 356.349 256.724C357.171 257.856 357.618 259.217 357.626 260.616C357.655 261.993 357.137 263.325 356.185 264.319C355.212 265.233 353.931 265.747 352.596 265.761C351.32 265.79 350.059 265.472 348.948 264.842C347.88 264.253 346.915 263.496 346.089 262.598C345.275 261.755 344.57 260.814 343.991 259.795C341.865 256.114 341.287 251.739 342.386 247.632C342.872 245.918 343.67 244.308 344.739 242.882C346.469 240.602 348.78 238.827 351.429 237.743C353.089 237.057 354.858 236.669 356.653 236.6C357.119 236.569 357.586 236.569 358.052 236.6L358.441 236.649Z" fill="#263238"/>
<path d="M378.747 297.5H293.479V363.266H378.747V297.5Z" fill="#4098F9"/>
<path d="M293.479 297.5L309.23 312.193H393.051L378.747 297.5H293.479Z" fill="#4098F9"/>
<path d="M293.479 297.5L378.772 297.348H378.839L378.887 297.391L393.045 311.932L393.191 312.084L393.452 312.351H393.075L309.254 312.284H309.217L293.479 297.5L309.29 312.096H309.224L393.045 312.035L392.936 312.303L392.783 312.151L378.632 297.61L378.741 297.658L293.479 297.5Z" fill="#263238"/>
<path d="M319.094 327.829C318.632 327.845 318.196 328.043 317.878 328.378C317.56 328.714 317.386 329.161 317.395 329.623C317.403 330.085 317.593 330.526 317.922 330.849C318.252 331.173 318.696 331.355 319.158 331.355C319.62 331.355 320.064 331.173 320.394 330.849C320.724 330.526 320.913 330.085 320.922 329.623C320.93 329.161 320.756 328.714 320.439 328.378C320.121 328.043 319.684 327.845 319.222 327.829" fill="#263238"/>
<path d="M339.243 327.829C338.783 327.846 338.349 328.043 338.033 328.378C337.716 328.713 337.544 329.158 337.553 329.618C337.562 330.079 337.751 330.517 338.079 330.839C338.408 331.162 338.85 331.342 339.31 331.342C339.771 331.342 340.213 331.162 340.541 330.839C340.87 330.517 341.059 330.079 341.068 329.618C341.076 329.158 340.904 328.713 340.588 328.378C340.272 328.043 339.837 327.846 339.377 327.829" fill="#263238"/>
<path d="M339.358 343.568C339.007 342.224 338.435 340.948 337.668 339.791C336.814 338.554 335.717 337.502 334.444 336.702C332.909 335.683 331.118 335.116 329.277 335.065C327.435 335.015 325.616 335.483 324.027 336.416C322.715 337.148 321.563 338.137 320.639 339.323C319.808 340.437 319.169 341.683 318.748 343.008C318.753 342.909 318.769 342.811 318.797 342.716C318.855 342.442 318.93 342.172 319.022 341.907C319.355 340.931 319.841 340.013 320.463 339.189C321.38 337.948 322.546 336.912 323.887 336.148C325.517 335.175 327.39 334.686 329.287 334.738C331.185 334.789 333.028 335.38 334.603 336.44C335.897 337.272 337.003 338.366 337.85 339.651C338.428 340.509 338.865 341.453 339.145 342.449C339.22 342.719 339.279 342.993 339.322 343.27C339.343 343.368 339.355 343.467 339.358 343.568Z" fill="#263238"/>
<path opacity="0.5" d="M293.674 298.224L308.756 317.344H378.748V312.193H309.23L293.674 298.224Z" fill="black"/>
<path d="M361.932 363.12C361.846 363.12 361.773 351.68 361.773 337.577C361.773 323.474 361.846 312.035 361.932 312.035C362.017 312.035 362.096 323.468 362.096 337.577C362.096 351.686 362.023 363.12 361.932 363.12Z" fill="#263238"/>
<path d="M375.323 348.208H367.807V356.704H375.323V348.208Z" fill="#F5F5F5" fill-opacity="0.05"/>
<path d="M293.479 297.5L275.977 312.193H293.479V297.5Z" fill="#4098F9"/>
<g opacity="0.4">
<path opacity="0.4" d="M293.479 297.5L275.977 312.193H293.479V297.5Z" fill="black"/>
</g>
<path d="M381.267 363.266H283.227V438.883H381.267V363.266Z" fill="#4098F9"/>
<path opacity="0.3" d="M381.267 363.266H283.227V438.883H381.267V363.266Z" fill="black"/>
<path d="M356.699 438.348C356.614 438.348 356.541 421.496 356.541 400.709C356.541 379.923 356.614 363.065 356.699 363.065C356.784 363.065 356.857 379.917 356.857 400.709C356.857 421.502 356.784 438.348 356.699 438.348Z" fill="#263238"/>
<path d="M372.952 421.672H365.436V430.168H372.952V421.672Z" fill="#F5F5F5" fill-opacity="0.05"/>
<path d="M324.27 363.466H313.135V379.601H324.27V363.466Z" fill="#263238"/>
<path d="M324.27 422.524H313.135V438.658H324.27V422.524Z" fill="#263238"/>
<path d="M380.415 363.266H380.16H379.424L376.596 363.296L366.178 363.345L331.824 363.424L297.457 363.381L287.046 363.333L284.218 363.302H283.476H283.227H283.476H284.218L287.046 363.272L297.457 363.223L331.824 363.174L366.178 363.223L376.596 363.272L379.424 363.302H380.16L380.415 363.266Z" fill="#263238"/>
<g opacity="0.06">
<path d="M551.094 356.579H452.941V439.03H551.094V356.579Z" fill="#4098F9"/>
<path opacity="0.6" d="M551.094 356.579H452.941V439.03H551.094V356.579Z" fill="white" stroke="#696969" stroke-linecap="round" stroke-linejoin="round"/>
<path d="M551.094 356.579H452.941V439.03H551.094V356.579Z" stroke="#696969" stroke-linecap="round" stroke-linejoin="round"/>
<path d="M551.094 356.579H518.479V439.03H551.094V356.579Z" fill="#4098F9"/>
<path opacity="0.39" d="M551.094 356.579H518.479V439.03H551.094V356.579Z" fill="white" stroke="#696969" stroke-linecap="round" stroke-linejoin="round"/>
<path d="M551.094 356.579H518.479V439.03H551.094V356.579Z" stroke="#696969" stroke-linecap="round" stroke-linejoin="round"/>
<path d="M535.125 356.801V439.132" stroke="#696969" stroke-linecap="round" stroke-linejoin="round"/>
<path d="M556.051 274.257H457.898V356.708H556.051V274.257Z" fill="#4098F9"/>
<path opacity="0.6" d="M556.049 274.257H457.896V356.708H556.049V274.257Z" fill="white" stroke="#696969" stroke-linecap="round" stroke-linejoin="round"/>
<path d="M556.051 274.257H457.898V356.708H556.051V274.257Z" stroke="#696969" stroke-linecap="round" stroke-linejoin="round"/>
<path d="M556.049 274.257H523.434V356.708H556.049V274.257Z" fill="#4098F9"/>
<path opacity="0.39" d="M556.047 274.257H523.432V356.708H556.047V274.257Z" fill="white" stroke="#696969" stroke-linecap="round" stroke-linejoin="round"/>
<path d="M556.049 274.257H523.434V356.708H556.049V274.257Z" stroke="#696969" stroke-linecap="round" stroke-linejoin="round"/>
<path d="M540.082 274.479V356.81" stroke="#696969" stroke-linecap="round" stroke-linejoin="round"/>
</g>
<path d="M414.665 412.478L415.484 419.836C415.516 421.179 415.668 422.531 415.789 423.877C416.109 427.429 416.362 430.984 416.304 434.555C416.248 437.617 414.236 439.778 411.016 440.347C407.795 440.916 404.531 441.513 401.278 442.027C400.003 442.229 398.723 442.424 397.447 442.622C394.043 443.145 390.616 443.475 387.198 443.885C383.928 444.278 380.656 444.663 377.382 444.946C373.583 445.276 369.775 445.542 365.964 445.712C363.882 445.809 361.801 445.95 359.715 445.933C357.186 445.91 354.843 444.118 354.266 441.64C353.615 438.816 353 435.982 352.615 433.103C352.294 430.693 351.97 428.282 351.642 425.872C351.23 422.833 350.906 419.786 350.59 416.738C350.316 414.085 350.046 411.428 349.881 408.764C349.878 408.646 349.865 408.53 349.842 408.414C349.724 407.646 349.786 407.506 350.482 407.316C351.731 406.977 353.007 406.762 354.275 406.52C356.647 406.067 359.029 405.654 361.41 405.243C363.216 404.934 365.024 404.633 366.837 404.366C373.476 403.384 380.133 402.513 386.816 401.899C390.173 401.591 393.535 401.284 396.904 401.086C399.608 400.928 402.312 400.76 405.016 400.621C407.282 400.503 409.553 400.441 411.822 400.368C411.926 400.365 412.03 400.38 412.134 400.387C413.065 400.452 413.091 400.473 413.251 401.349C413.549 403.121 413.714 404.913 413.974 406.692C413.999 406.915 413.965 407.153 414.108 407.351L414.191 408.099C414.126 408.78 414.314 409.432 414.35 410.102C414.473 410.906 414.438 411.71 414.665 412.478Z" fill="#DA4A54"/>
<path d="M414.667 412.478C414.354 411.716 414.391 410.899 414.289 410.104L414.351 410.006L414.403 410.109L414.667 412.478Z" fill="#7B7B7B"/>
<path d="M414.403 410.109L414.289 410.104C414.27 409.432 413.975 408.792 414.181 408.114L414.403 410.109Z" fill="#A8A8A8"/>
<path d="M350.107 408.427C349.921 406.471 349.926 404.507 349.871 402.547C349.844 401.608 349.848 400.67 349.856 399.731C349.888 396.66 351.693 394.576 354.68 394.039C359.869 393.102 365.062 392.177 370.286 391.459C375.16 390.796 380.04 390.145 384.947 389.728C388.416 389.431 391.884 389.107 395.359 388.889C398.956 388.665 402.546 388.412 406.16 388.421C407.322 388.41 408.453 388.789 409.373 389.497C410.293 390.206 410.949 391.202 411.236 392.328C411.979 395.325 412.58 398.356 413.032 401.414C412.882 400.85 412.485 400.692 411.944 400.712C410.111 400.781 408.278 400.817 406.446 400.896C403.887 401.004 401.328 401.139 398.769 401.267C397.764 401.317 396.778 401.425 395.776 401.472C394.051 401.557 392.332 401.762 390.604 401.893C385.78 402.262 380.97 402.764 376.176 403.398C371.964 403.952 367.755 404.531 363.563 405.244C360.564 405.746 357.572 406.291 354.575 406.802C353.363 407.007 352.167 407.3 350.951 407.525C350.435 407.628 350.135 407.875 350.107 408.427Z" fill="#1B1F29"/>
<path d="M379.114 410.889C379.74 410.828 380.372 410.938 380.941 411.206C383.861 412.486 386.791 413.754 389.701 415.057C392.196 416.175 392.552 419.134 390.376 420.777C387.798 422.724 385.197 424.642 382.572 426.529C380.433 428.065 377.734 426.929 377.385 424.311C376.95 421.041 376.603 417.757 376.29 414.474C376.105 412.6 377.352 411.097 379.114 410.889Z" fill="#FEFEFE"/>
<path d="M375.591 433.625C375.887 433.255 376.33 433.277 376.74 433.231C384.35 432.384 391.961 431.537 399.572 430.69C401.479 430.477 403.387 430.265 405.295 430.053C406.808 429.894 407.586 430.516 407.772 432.013C407.819 432.429 407.878 432.843 407.901 433.26C407.943 433.765 407.79 434.268 407.472 434.663C407.154 435.059 406.696 435.317 406.193 435.384C406.028 435.413 405.861 435.431 405.695 435.45C396.239 436.503 386.783 437.555 377.326 438.608C376.901 438.655 376.443 438.797 376.119 438.35C375.768 438.389 375.775 438.092 375.747 437.886C375.579 436.648 375.441 435.406 375.333 434.161C375.313 433.954 375.241 433.673 375.591 433.625Z" fill="#404A4A"/>
<path d="M364.177 440.083C362.973 440.049 362.229 439.388 362.072 438.208C362.016 437.795 361.97 437.377 361.934 436.964C361.83 435.82 362.344 435.056 363.451 434.697C364.411 434.491 365.393 434.447 366.364 434.332C368.292 434.106 370.222 433.903 372.152 433.688C372.895 433.605 372.982 433.66 373.07 434.375C373.22 435.726 373.371 437.076 373.521 438.425C373.571 438.874 373.429 439.109 372.958 439.161C370.094 439.468 367.233 439.799 364.373 440.117C364.306 440.116 364.24 440.104 364.177 440.083Z" fill="#E4F6FF"/>
<path d="M364.179 440.083L372.136 439.162C373.242 439.039 373.245 439.039 373.123 437.929C372.996 436.787 372.852 435.646 372.742 434.503C372.687 433.92 372.443 433.713 371.847 433.785C369.381 434.081 366.913 434.344 364.446 434.608C364.113 434.645 363.778 434.664 363.444 434.691C363.713 434.577 364.001 434.514 364.293 434.506C367.27 434.175 370.244 433.832 373.222 433.512C373.819 433.445 374.425 433.444 375.026 433.41C375.129 433.392 375.235 433.402 375.333 433.44C375.43 433.477 375.516 433.541 375.58 433.623L376.106 438.345C376.063 438.644 375.867 438.757 375.592 438.799C374.975 438.897 374.362 439.032 373.744 439.103C370.862 439.433 367.982 439.753 365.105 440.065C364.808 440.086 364.493 440.075 364.179 440.083Z" fill="#F4DD45"/>
<path d="M359.912 399.417C360.096 401.162 358.995 402.521 357.248 402.707C356.857 402.754 356.462 402.722 356.084 402.614C355.706 402.505 355.354 402.322 355.047 402.076C354.741 401.829 354.488 401.524 354.301 401.178C354.115 400.832 354 400.452 353.963 400.06C353.806 398.424 355.006 396.913 356.603 396.736C356.998 396.686 357.398 396.717 357.781 396.827C358.163 396.936 358.519 397.121 358.828 397.372C359.137 397.622 359.393 397.932 359.579 398.283C359.765 398.635 359.878 399.02 359.912 399.417Z" fill="#DA4A54"/>
<path d="M377.976 397.401C378.027 397.794 377.998 398.194 377.89 398.577C377.783 398.959 377.6 399.315 377.351 399.625C377.102 399.935 376.794 400.191 376.444 400.378C376.094 400.566 375.71 400.681 375.314 400.716C374.919 400.763 374.518 400.731 374.136 400.621C373.753 400.511 373.396 400.326 373.087 400.076C372.777 399.826 372.521 399.516 372.332 399.165C372.144 398.814 372.028 398.429 371.991 398.033C371.918 397.244 372.155 396.457 372.652 395.84C373.15 395.223 373.868 394.824 374.654 394.728C375.049 394.682 375.448 394.714 375.829 394.824C376.211 394.934 376.566 395.119 376.876 395.368C377.185 395.617 377.441 395.924 377.63 396.273C377.819 396.622 377.937 397.006 377.976 397.401Z" fill="#86F1A7"/>
<path d="M363.005 399.012C362.961 398.622 362.994 398.228 363.104 397.851C363.213 397.475 363.396 397.124 363.642 396.818C363.887 396.513 364.191 396.259 364.536 396.072C364.88 395.885 365.258 395.767 365.648 395.727C366.041 395.686 366.439 395.723 366.818 395.836C367.198 395.948 367.551 396.134 367.858 396.384C368.165 396.633 368.42 396.94 368.609 397.288C368.797 397.636 368.916 398.017 368.957 398.411C368.998 398.804 368.961 399.202 368.848 399.581C368.735 399.96 368.549 400.313 368.3 400.621C368.051 400.928 367.744 401.183 367.396 401.371C367.048 401.56 366.666 401.678 366.273 401.719C364.58 401.897 363.18 400.738 363.005 399.012Z" fill="#F4DD45"/>
<path d="M140.155 414.952C140.155 414.952 140.155 414.322 140.155 413.161C140.155 412 140.155 410.236 140.155 407.983C140.155 403.45 140.155 396.789 140.085 388.323C140.085 371.349 139.988 347.001 139.932 317.378L140.225 317.672L0.293844 317.742L0.65768 317.378C0.65768 352.249 0.65768 385.371 0.65768 414.952L0.335822 414.616L101.212 414.784L129.996 414.868H137.651H139.638H140.323H137.735H130.136L101.436 414.966L0.335822 415.12H0V414.952C0 385.371 0 352.249 0 317.378V317H0.363836H140.295H140.589V317.294C140.589 346.987 140.463 371.405 140.435 388.421C140.435 396.817 140.435 403.492 140.351 408.011C140.351 410.236 140.351 411.944 140.351 413.119C140.351 414.294 140.155 414.952 140.155 414.952Z" fill="white"/>
<path d="M89.9479 370.882C92.5428 359.964 85.7961 349.011 74.8789 346.416C63.9616 343.821 53.008 350.568 50.4132 361.485C47.8184 372.402 54.565 383.356 65.4822 385.951C76.3995 388.545 87.3531 381.799 89.9479 370.882Z" fill="#4098F9"/>
<path d="M24.2652 400.063C24.2652 400.063 24.2652 399.56 23.9574 398.664C23.6041 397.474 22.872 396.433 21.8724 395.697C21.0733 395.102 20.1244 394.741 19.1319 394.654C18.1394 394.568 17.1423 394.758 16.2519 395.205C15.3616 395.653 14.6131 396.338 14.09 397.186C13.567 398.034 13.29 399.011 13.29 400.007C13.29 401.004 13.567 401.98 14.09 402.828C14.6131 403.676 15.3616 404.362 16.2519 404.809C17.1423 405.256 18.1394 405.447 19.1319 405.36C20.1244 405.273 21.0733 404.912 21.8724 404.317C22.8681 403.584 23.5996 402.548 23.9574 401.365C24.2092 400.511 24.2092 399.965 24.2652 399.965C24.3837 400.424 24.3837 400.906 24.2652 401.365C23.9934 402.671 23.2639 403.837 22.2082 404.653C21.4285 405.266 20.5073 405.673 19.5293 405.836C18.5513 406 17.5478 405.916 16.611 405.591C15.4435 405.178 14.4327 404.413 13.7179 403.402C13.003 402.391 12.6191 401.183 12.6191 399.944C12.6191 398.706 13.003 397.498 13.7179 396.487C14.4327 395.476 15.4435 394.711 16.611 394.298C17.5461 393.967 18.5497 393.878 19.5284 394.04C20.5071 394.201 21.429 394.608 22.2082 395.222C23.2612 396.046 23.9896 397.216 24.2652 398.524C24.4137 399.026 24.4137 399.561 24.2652 400.063Z" fill="white"/>
<path d="M65.1504 366.172V357.021L73.0845 361.596L81.0047 366.172L73.0845 370.748L65.1504 375.324V366.172Z" fill="white"/>
</svg>
