<svg width="73" height="65" viewBox="0 0 73 65" fill="none" xmlns="http://www.w3.org/2000/svg">
<path d="M24.3058 39.6023C24.3058 35.5395 24.3058 31.4748 24.3282 27.4121C24.3282 26.8722 24.1245 26.8008 23.6681 26.8008C20.0618 26.8151 16.4555 26.8008 12.8491 26.8008C11.5981 26.8008 11.209 26.4117 11.209 25.1709C11.209 17.73 11.209 10.2892 11.209 2.84835C11.209 1.56271 11.5879 1.19189 12.898 1.19189H35.1452C36.4451 1.19189 36.82 1.56882 36.82 2.86465C36.82 5.73545 36.8383 8.6042 36.8057 11.473C36.8057 12.0475 36.9544 12.1881 37.5209 12.184C40.9479 12.1616 44.3769 12.184 47.806 12.184C48.079 12.8561 48.4011 13.5071 48.7697 14.1319C48.8777 14.3071 49.0407 14.5393 48.7555 14.7227C48.4111 14.8653 48.0485 14.8205 47.6899 14.8287C44.542 14.8776 41.3941 14.8287 38.2482 14.8511C37.0869 14.8511 37.0665 14.8715 37.0665 16.0491C37.0665 19.0197 37.0665 21.9883 37.0665 24.959C37.0665 25.3889 37.0787 25.8249 36.8729 26.2242C36.5184 26.9109 35.8909 27.0392 35.1961 27.0392C32.9895 27.0392 30.7809 27.0392 28.5723 27.0392C28.3441 27.0392 28.1159 27.0392 27.8857 27.0392C27.0911 27.0637 27.0157 27.1268 27.0116 27.9235C26.9994 30.2319 27.0116 32.5424 27.0116 34.8509C27.0116 35.4336 26.9933 36.0163 26.9729 36.599C26.7875 37.5138 26.4105 38.3737 26.1823 39.2783C26.0153 39.9303 25.1514 40.0383 24.3058 39.6023Z" fill="#4098F9"/>
<path d="M60.8812 27.2774C60.8812 27.5301 60.9057 27.7848 60.9057 28.0374V61.6353C60.9057 63.7644 60.0398 64.6243 57.8964 64.6243H27.1897C25.2174 64.6243 24.3168 63.7196 24.3168 61.7351C24.3168 55.1826 24.3134 48.6301 24.3066 42.0776C25.3906 41.5194 26.067 41.7781 26.3156 42.8926C26.4827 43.6322 26.8596 44.3066 26.9655 45.0645C27.0552 48.2654 26.9839 51.4663 27.0063 54.6671C27.0063 55.8102 27.0368 55.8387 28.2288 55.8387H57.1201C58.1938 55.8387 58.2264 55.8061 58.2264 54.7222C58.2264 45.957 58.2264 37.1918 58.2264 28.4266C58.1974 27.9704 58.2206 27.5124 58.2957 27.0615C58.4607 26.5949 58.7969 26.6886 59.0638 26.8964C59.616 27.3325 60.2252 27.3814 60.8812 27.2774Z" fill="#4098F9"/>
<path d="M48.8516 14.6106C48.4624 13.8241 47.6922 13.2027 47.8063 12.1962C48.8251 10.9227 50.0475 9.84899 51.1641 8.67745C51.4921 8.33312 51.543 8.06621 51.3678 7.62204C50.5141 5.4827 49.7053 3.32501 48.8842 1.17345C48.7578 0.845415 48.5765 0.513312 48.8964 0.18528C49.2163 -0.142753 49.5545 0.0385784 49.8805 0.168976C54.6319 2.06178 59.3792 3.96682 64.1428 5.84537C64.3999 5.939 64.632 6.09065 64.8211 6.28853C65.0101 6.48641 65.151 6.7252 65.2328 6.98635C66.9728 11.5788 68.7434 16.155 70.5058 20.7433C70.5506 20.8615 70.6015 20.9777 70.6423 21.0979C70.738 21.3892 70.846 21.6867 70.5893 21.9536C70.3326 22.2205 70.0372 22.1451 69.7417 22.0494C69.5971 22.0025 69.4544 21.9495 69.3118 21.8986C69.0225 21.8497 68.9227 21.595 68.7739 21.3953C66.6672 18.5646 64.5489 15.7413 62.4191 12.9256C62.1807 12.6077 61.9138 12.0087 61.4431 12.3836C61.0478 12.7014 61.5165 13.115 61.7447 13.4207C63.397 15.6415 65.0698 17.8461 66.714 20.073C66.877 20.2951 67.3253 20.5355 66.8628 20.8982C65.4366 20.2869 65.4366 20.2869 64.3669 21.379C63.2035 22.575 62.0503 23.7771 60.9032 24.9772C60.5426 25.4295 60.078 25.3664 59.6175 25.2074C59.2016 25.044 58.8139 24.8165 58.4684 24.533C56.209 22.8921 54.1062 21.0458 52.1869 19.0176C51.0863 17.8233 50.0654 16.5581 49.1307 15.2299C48.9652 15.0644 48.866 14.8442 48.8516 14.6106Z" fill="#044387"/>
<path d="M26.7693 44.9647C26.4923 44.111 26.0929 43.294 25.9951 42.3873C25.9605 42.0634 25.7445 42.0593 25.5102 42.0613L24.306 42.0776C23.6704 42.0776 23.0347 42.098 22.403 42.0491C21.9304 42.0124 21.8122 42.2243 21.7307 42.6338C21.3177 44.7449 20.1701 46.6414 18.4917 47.9868C16.8132 49.3322 14.7124 50.0394 12.5621 49.983C10.5165 49.93 8.54832 49.1895 6.9751 47.881C5.40188 46.5724 4.3153 44.7721 3.89061 42.7704C3.78466 42.2467 3.62573 41.9696 3.02876 42.047C2.57346 42.0919 2.11487 42.0919 1.65958 42.047C1.50028 42.0446 1.34313 42.0099 1.19764 41.9449C1.05216 41.88 0.921366 41.7862 0.813176 41.6692C0.704986 41.5523 0.621653 41.4146 0.568217 41.2645C0.514781 41.1144 0.492353 40.9551 0.502295 40.796C0.501749 40.4869 0.623607 40.1902 0.841231 39.9706C1.05885 39.7511 1.35454 39.6267 1.66365 39.6245C2.14418 39.5806 2.6277 39.5806 3.10822 39.6245C3.64815 39.6877 3.78058 39.4391 3.87634 38.9725C4.29456 36.9019 5.42125 35.0418 7.06261 33.712C8.70398 32.3823 10.7574 31.666 12.8697 31.6865C14.9685 31.7002 16.998 32.4396 18.6138 33.7791C20.2296 35.1186 21.3322 36.9758 21.7348 39.0357C21.8163 39.4432 21.9385 39.6612 22.4071 39.6225C23.0387 39.5736 23.6744 39.6 24.3101 39.5939C25.8138 39.653 25.8077 39.651 26.2294 38.2614C26.3883 37.7358 26.5921 37.2244 26.7734 36.7068C27.1585 35.2806 28.1996 34.3047 29.2897 33.4469C34.5443 29.3516 42.2561 31.9595 44.0084 38.3918C44.2834 39.3983 44.2834 39.3983 45.3266 39.4106C45.6817 39.388 46.0383 39.4147 46.3861 39.49C47.0483 39.6815 47.5169 40.2663 47.4965 40.8714C47.471 41.1774 47.3498 41.4677 47.1501 41.701C46.9505 41.9343 46.6825 42.0988 46.3841 42.1713C45.9108 42.2717 45.4247 42.2972 44.9436 42.2467C44.4587 42.2284 44.2223 42.4097 44.0919 42.8967C42.9835 47.0266 40.3063 49.4818 36.0745 50.0869C33.3402 50.4781 30.8952 49.6448 28.8272 47.8131C27.9327 47.0327 27.0729 46.1892 26.7693 44.9647Z" fill="#044387"/>
<path d="M66.8487 20.8982C67.0647 20.564 66.7244 20.4255 66.592 20.2442C64.8683 17.9255 63.1283 15.6191 61.3985 13.3168C61.2335 13.0967 61.0195 12.8991 61.0318 12.5874C61.0298 12.4852 61.0564 12.3845 61.1086 12.2966C61.1608 12.2088 61.2365 12.1373 61.3272 12.0902C61.4248 12.029 61.5388 11.9991 61.6539 12.0045C61.769 12.01 61.8797 12.0506 61.971 12.1208C62.0857 12.2199 62.1877 12.3328 62.2746 12.457C64.5443 15.4765 66.8114 18.4967 69.0757 21.5176C69.1566 21.6397 69.2294 21.7669 69.2937 21.8986C69.2937 23.3696 69.2937 24.8407 69.2937 26.3117C69.2937 26.5705 69.2183 26.8293 69.5891 26.9963C71.2619 27.7522 71.7692 29.5859 70.8422 30.9042C70.7592 31.0602 70.6955 31.2258 70.6527 31.3973C69.583 32.4995 68.3076 32.5464 66.7163 31.544C66.7133 31.29 66.6354 31.0426 66.4922 30.8329C65.6772 29.3802 66.1315 27.795 67.625 27.0676C67.7757 27.0166 67.9039 26.9146 67.9875 26.7792C68.0712 26.6439 68.1051 26.4836 68.0834 26.326C68.0304 25.3148 68.0304 24.3014 68.0834 23.2902C68.1853 22.194 67.7106 21.4666 66.8487 20.8982Z" fill="#CBDCE6"/>
<path d="M70.8302 31.988C71.3172 33.1229 71.7919 34.2619 72.2932 35.3906C72.9553 36.8841 71.9733 38.622 70.1925 38.9868C69.1812 39.2043 68.132 39.1714 67.1363 38.891C65.3026 38.3735 64.5222 37.0573 65.164 35.2623C65.5715 34.1498 66.087 33.0822 66.5556 32.0023C67.1873 32.6135 67.8515 33.0842 68.8132 33.0475C69.677 33.0047 70.2516 32.5219 70.8302 31.988Z" fill="#CBDCE6"/>
<path d="M58.4943 24.3699C59.238 24.7774 59.9205 25.4681 60.8863 24.9811C60.8863 25.7472 60.8863 26.514 60.8863 27.2814C60.4014 27.7134 59.9022 27.6624 59.3887 27.3344C59.0994 27.151 58.857 26.8882 58.5004 26.8169C58.4216 26.7611 58.3612 26.6831 58.3272 26.5927C58.26 25.8409 58.0379 25.0789 58.4943 24.3699Z" fill="#1481C0"/>
<path d="M70.8296 31.9881C70.4425 33.0068 69.5949 33.2106 68.6516 33.2106C67.7082 33.2106 66.9177 32.9661 66.5469 31.9881L66.716 31.5378C67.2172 31.4176 67.5126 31.8699 67.9385 31.9799C68.9572 32.2469 69.8028 31.8332 70.6544 31.3911L70.8296 31.9881Z" fill="#B8C7D0"/>
<path d="M58.4437 26.6622C58.46 26.7131 58.4783 26.764 58.4946 26.8129C58.4946 27.1186 58.4702 27.4242 58.4702 27.7278C58.4702 36.8733 58.4749 46.0195 58.4844 55.1663C58.4844 55.8611 58.3744 56.1077 57.5981 56.1056C47.586 56.0744 37.5746 56.0744 27.5638 56.1056C26.8649 56.1056 26.7366 55.9019 26.7488 55.256C26.7855 51.8269 26.7712 48.3958 26.7753 44.9668C27.8368 46.7394 29.1775 48.2125 31.0947 49.1008C36.5001 51.6049 42.639 48.5629 43.9308 42.7032C44.0551 42.1408 44.2609 42.0084 44.7702 42.0532C45.2266 42.0878 45.685 42.0878 46.1414 42.0532C46.4628 42.04 46.7664 41.9018 46.9875 41.6682C47.2086 41.4345 47.3297 41.1238 47.3252 40.8022C47.3088 40.494 47.1783 40.2029 46.9591 39.9856C46.74 39.7683 46.4477 39.6403 46.1394 39.6266C45.4609 39.5716 44.6072 39.8955 44.1468 39.4941C43.7393 39.1335 43.7922 38.2717 43.5518 37.6604C42.1623 34.158 39.5645 32.0961 35.8339 31.7518C32.1664 31.4135 29.2753 32.9396 27.2358 36.0304C27.085 36.2586 26.9322 36.4868 26.7814 36.7171C26.7814 33.6181 26.7814 30.5191 26.757 27.4201C26.757 26.8802 26.9607 26.8089 27.4253 26.8089C30.0414 26.8252 32.6575 26.8089 35.2756 26.8089C36.4207 26.8089 36.8302 26.4014 36.8322 25.2502C36.8322 21.9719 36.8485 18.6956 36.82 15.4194C36.82 14.8082 36.926 14.5901 37.5943 14.6044C40.9968 14.6492 44.4014 14.637 47.8061 14.6452C48.8961 17.1961 50.7013 19.2458 52.5269 21.2669C54.1648 23.0621 55.9822 24.6849 57.9506 26.11C58.1664 26.2407 58.3381 26.433 58.4437 26.6622V26.6622Z" fill="#CBDCE6"/>
<path d="M23.9351 8.52055H16.3965C15.4368 8.52055 14.8765 8.07231 14.8663 7.31641C14.8562 6.56051 15.4205 6.08374 16.3659 6.08374C21.4637 6.08374 26.5621 6.08374 31.6612 6.08374C32.6025 6.08374 33.171 6.56662 33.1547 7.32456C33.1384 8.0825 32.5801 8.51851 31.6164 8.52055H23.9351Z" fill="#FEFEFE"/>
<path d="M24.0062 12.1799C26.5422 12.1799 29.0788 12.1799 31.6161 12.1799C32.5819 12.1799 33.1402 12.6179 33.1585 13.3698C33.1768 14.1216 32.5982 14.6167 31.5937 14.6167C26.5204 14.6167 21.4471 14.6167 16.3738 14.6167C15.188 14.6167 14.5197 13.7059 15.0311 12.8095C15.3143 12.3123 15.7728 12.1738 16.3188 12.1758C18.882 12.186 21.4431 12.1799 24.0062 12.1799Z" fill="#FEFEFE"/>
<path d="M24.0062 20.717C21.4688 20.717 18.9322 20.717 16.3962 20.717C15.4366 20.717 14.8763 20.2667 14.8702 19.5108C14.8641 18.7549 15.4264 18.2883 16.3738 18.2883C21.4716 18.2883 26.57 18.2883 31.6691 18.2883C32.6084 18.2883 33.1768 18.7733 33.1585 19.5312C33.1401 20.2891 32.59 20.7211 31.6915 20.7231C29.1304 20.7211 26.5673 20.717 24.0062 20.717Z" fill="#FEFEFE"/>
<path d="M58.4438 26.6621C57.1569 25.8246 55.9467 24.8748 54.8273 23.8239C52.2004 21.4494 49.9108 18.7265 48.0221 15.7311C47.798 15.3684 47.8184 15.02 47.7939 14.6472L48.8514 14.6125C51.5157 18.3662 54.7727 21.6617 58.4947 24.37C58.4744 25.134 58.4601 25.8981 58.4438 26.6621Z" fill="#B7C6CF"/>
<path d="M45.6585 60.4251C45.6256 61.2329 45.2769 61.9955 44.6874 62.5488C44.0979 63.1021 43.3148 63.4018 42.5065 63.3835C41.7117 63.3528 40.9601 63.0134 40.4115 62.4374C39.8629 61.8614 39.5605 61.0942 39.5685 60.2988C39.5974 59.5063 39.9316 58.7557 40.5012 58.204C41.0708 57.6522 41.8317 57.3421 42.6247 57.3384C43.434 57.3528 44.2053 57.6843 44.7726 58.2616C45.34 58.8388 45.6581 59.6157 45.6585 60.4251V60.4251Z" fill="#FEFEFE"/>
<path d="M41.6997 40.8775C41.6925 41.7615 41.511 42.6354 41.1657 43.4492C40.8204 44.263 40.318 45.0007 39.6872 45.6201C39.0564 46.2395 38.3097 46.7285 37.4898 47.0589C36.6698 47.3894 35.7928 47.555 34.9088 47.5461C34.0256 47.5331 33.1537 47.3462 32.3427 46.9961C31.5318 46.646 30.7979 46.1396 30.1827 45.5057C29.5676 44.8718 29.0834 44.123 28.7578 43.302C28.4321 42.4809 28.2715 41.6038 28.285 40.7206C28.3216 37.0674 31.3677 34.109 35.0697 34.1335C36.8402 34.1581 38.5295 34.8802 39.7708 36.1428C41.0121 37.4055 41.7052 39.1068 41.6997 40.8775V40.8775Z" fill="#FEFEFE"/>
<path d="M19.4837 40.8755C19.4804 41.7654 19.2998 42.6458 18.9524 43.4651C18.605 44.2844 18.0978 45.0262 17.4604 45.6473C16.823 46.2683 16.0683 46.7561 15.2403 47.0822C14.4122 47.4082 13.5275 47.566 12.6378 47.5462C9.03352 47.4994 6.05474 44.433 6.08123 40.8001C6.08859 39.91 6.27262 39.0303 6.62264 38.2118C6.97266 37.3934 7.48171 36.6526 8.12025 36.0325C8.7588 35.4123 9.51413 34.9251 10.3424 34.5991C11.1707 34.2732 12.0555 34.1149 12.9455 34.1336C14.7026 34.1726 16.3738 34.9018 17.5974 36.1636C18.8209 37.4253 19.4986 39.118 19.4837 40.8755Z" fill="#FEFEFE"/>
</svg>
