<svg width="620" height="521" viewBox="0 0 620 521" fill="none" xmlns="http://www.w3.org/2000/svg">
<g clip-path="url(#clip0)">
<g style="mix-blend-mode:multiply">
<path d="M437.082 149.577H80.1638C71.1624 149.577 63.8652 156.868 63.8652 165.862V441.432C63.8652 450.426 71.1624 457.718 80.1638 457.718H437.082C446.083 457.718 453.381 450.426 453.381 441.432V165.862C453.381 156.868 446.083 149.577 437.082 149.577Z" fill="#111217"/>
</g>
<path d="M98.1834 130.468H455.102C463.827 130.468 470.9 137.536 470.9 146.254V421.824C470.9 430.541 463.827 437.609 455.102 437.609H98.1834C89.4577 437.609 82.3848 430.541 82.3848 421.824V146.254C82.3848 137.536 89.4577 130.468 98.1834 130.468Z" fill="#1B1F29" stroke="white" stroke-miterlimit="10"/>
<g style="mix-blend-mode:multiply">
<path d="M98.1834 136.85H455.102C459.42 136.856 463.56 138.575 466.611 141.628C469.663 144.682 471.377 148.821 471.377 153.136V165.78H81.8848V153.136C81.8848 148.816 83.6019 144.674 86.6585 141.62C89.7151 138.566 93.8607 136.85 98.1834 136.85V136.85Z" fill="#111217"/>
</g>
<path d="M98.1834 130.468H455.101C459.287 130.474 463.3 132.14 466.257 135.1C469.215 138.059 470.877 142.071 470.877 146.254V158.398H82.3848V146.254C82.3848 142.067 84.0492 138.052 87.0119 135.092C89.9747 132.131 93.9932 130.468 98.1834 130.468Z" fill="#1B1F29" stroke="white"/>
<path d="M101.91 149.365C104.633 149.365 106.84 147.159 106.84 144.439C106.84 141.719 104.633 139.513 101.91 139.513C99.1876 139.513 96.9805 141.719 96.9805 144.439C96.9805 147.159 99.1876 149.365 101.91 149.365Z" fill="#DA4A54"/>
<path d="M126.453 144.462C126.453 145.437 126.164 146.389 125.622 147.199C125.081 148.009 124.311 148.64 123.41 149.013C122.509 149.386 121.518 149.483 120.562 149.293C119.605 149.103 118.727 148.634 118.038 147.945C117.348 147.256 116.879 146.379 116.688 145.423C116.498 144.468 116.596 143.477 116.969 142.577C117.342 141.677 117.974 140.908 118.785 140.367C119.595 139.826 120.548 139.537 121.523 139.537C122.171 139.537 122.812 139.664 123.41 139.912C124.008 140.159 124.551 140.522 125.009 140.979C125.467 141.437 125.83 141.98 126.078 142.577C126.326 143.175 126.453 143.815 126.453 144.462V144.462Z" fill="#F4DD45"/>
<path d="M146.078 144.462C146.078 145.437 145.789 146.389 145.247 147.199C144.706 148.009 143.936 148.64 143.035 149.013C142.134 149.386 141.143 149.483 140.187 149.293C139.23 149.103 138.352 148.634 137.663 147.945C136.973 147.256 136.504 146.379 136.313 145.423C136.123 144.468 136.221 143.477 136.594 142.577C136.967 141.677 137.599 140.908 138.41 140.367C139.22 139.826 140.173 139.537 141.148 139.537C142.456 139.537 143.71 140.056 144.634 140.979C145.559 141.903 146.078 143.156 146.078 144.462V144.462Z" fill="#86F1A7"/>
<path d="M358.16 183.22H427.742" stroke="#111217" stroke-width="5" stroke-linecap="round" stroke-linejoin="round"/>
<path d="M358.16 198.54H427.742" stroke="#111217" stroke-width="5" stroke-linecap="round" stroke-linejoin="round"/>
<path d="M358.16 212.68H427.742" stroke="#111217" stroke-width="5" stroke-linecap="round" stroke-linejoin="round"/>
<path d="M358.16 228H427.742" stroke="#111217" stroke-width="5" stroke-linecap="round" stroke-linejoin="round"/>
<path d="M358.16 242.14H427.742" stroke="#111217" stroke-width="5" stroke-linecap="round" stroke-linejoin="round"/>
<path d="M245.213 352.84H358.489" stroke="#111217" stroke-width="5" stroke-linecap="round" stroke-linejoin="round"/>
<path d="M245.213 367.393H358.489" stroke="#111217" stroke-width="5" stroke-linecap="round" stroke-linejoin="round"/>
<path d="M110.434 352.854H216.451" stroke="#111217" stroke-width="5" stroke-linecap="round" stroke-linejoin="round"/>
<path d="M110.434 367.211H180.008" stroke="#111217" stroke-width="5" stroke-linecap="round" stroke-linejoin="round"/>
<path d="M245.213 381.958H358.489" stroke="#111217" stroke-width="5" stroke-linecap="round" stroke-linejoin="round"/>
<path d="M245.213 396.511H324.406" stroke="#111217" stroke-width="5" stroke-linecap="round" stroke-linejoin="round"/>
<path d="M245.213 411.065H324.406" stroke="#111217" stroke-width="5" stroke-linecap="round" stroke-linejoin="round"/>
<path d="M411.565 296.013C414.637 282.812 406.418 269.622 393.206 266.553C379.995 263.483 366.794 271.696 363.722 284.897C360.65 298.098 368.87 311.288 382.082 314.357C395.293 317.427 408.493 309.214 411.565 296.013Z" stroke="#111217" stroke-width="5" stroke-linecap="round" stroke-linejoin="round"/>
<path d="M386.465 265.708V290.275L405.334 306.952" stroke="#111217" stroke-width="5" stroke-linecap="round" stroke-linejoin="round"/>
<path d="M441.999 348.609H369.977V412.479H441.999V348.609Z" stroke="#111217" stroke-width="5" stroke-linecap="round" stroke-linejoin="round"/>
<g style="mix-blend-mode:multiply">
<path d="M578.227 122.462H424.299C415.297 122.462 408 129.753 408 138.747V229.897C408 238.891 415.297 246.182 424.299 246.182H578.227C587.229 246.182 594.526 238.891 594.526 229.897V138.747C594.526 129.753 587.229 122.462 578.227 122.462Z" fill="#111217"/>
</g>
<path d="M592.721 109.912H438.793C429.791 109.912 422.494 117.203 422.494 126.197V217.347C422.494 226.341 429.791 233.632 438.793 233.632H592.721C601.723 233.632 609.02 226.341 609.02 217.347V126.197C609.02 117.203 601.723 109.912 592.721 109.912Z" fill="#1B1F29" stroke="#F1F1F3" stroke-miterlimit="10"/>
<g style="mix-blend-mode:multiply">
<path d="M438.793 116.782H592.721C597.044 116.782 601.19 118.498 604.246 121.552C607.303 124.606 609.02 128.748 609.02 133.067V145.712H422.494V133.067C422.494 128.748 424.211 124.606 427.268 121.552C430.324 118.498 434.47 116.782 438.793 116.782V116.782Z" fill="#111217"/>
</g>
<path d="M438.793 109.912H592.721C597.044 109.912 601.19 111.627 604.246 114.682C607.303 117.736 609.02 121.878 609.02 126.197V138.841H422.494V126.197C422.494 121.878 424.211 117.736 427.268 114.682C430.324 111.627 434.47 109.912 438.793 109.912V109.912Z" fill="#1B1F29" stroke="#F1F1F3" stroke-miterlimit="10"/>
<path opacity="0.1" d="M503.727 124.371H528.741" stroke="#E3E9E7" stroke-width="5" stroke-linecap="round" stroke-linejoin="round"/>
<path opacity="0.1" d="M540.498 124.371H591.328" stroke="#E3E9E7" stroke-width="5" stroke-linecap="round" stroke-linejoin="round"/>
<path d="M447.437 124.43C447.437 125.404 447.148 126.357 446.606 127.167C446.064 127.978 445.293 128.609 444.392 128.982C443.49 129.354 442.498 129.451 441.542 129.26C440.585 129.069 439.707 128.599 439.018 127.908C438.329 127.218 437.86 126.34 437.671 125.383C437.483 124.427 437.582 123.436 437.957 122.536C438.332 121.637 438.965 120.868 439.778 120.328C440.59 119.788 441.544 119.502 442.52 119.504C443.166 119.504 443.807 119.631 444.404 119.879C445.002 120.127 445.544 120.49 446.001 120.947C446.458 121.405 446.82 121.948 447.066 122.546C447.313 123.143 447.439 123.783 447.437 124.43V124.43Z" fill="#DA4A54"/>
<path d="M467.06 124.43C467.06 125.404 466.771 126.357 466.229 127.167C465.687 127.978 464.916 128.609 464.015 128.982C463.113 129.354 462.121 129.451 461.165 129.26C460.208 129.069 459.33 128.599 458.641 127.908C457.952 127.218 457.483 126.34 457.294 125.383C457.106 124.427 457.205 123.436 457.58 122.536C457.955 121.637 458.588 120.868 459.401 120.328C460.213 119.788 461.167 119.502 462.143 119.504C462.789 119.504 463.43 119.631 464.027 119.879C464.625 120.127 465.167 120.49 465.624 120.947C466.081 121.405 466.443 121.948 466.69 122.546C466.936 123.143 467.062 123.783 467.06 124.43V124.43Z" fill="#F4DD45"/>
<path d="M486.686 124.43C486.686 125.404 486.396 126.356 485.855 127.166C485.313 127.976 484.543 128.608 483.642 128.98C482.742 129.353 481.75 129.451 480.794 129.261C479.838 129.071 478.959 128.602 478.27 127.913C477.581 127.224 477.111 126.346 476.921 125.391C476.731 124.435 476.828 123.445 477.201 122.545C477.575 121.645 478.206 120.875 479.017 120.334C479.828 119.793 480.781 119.504 481.756 119.504C482.404 119.502 483.045 119.629 483.644 119.876C484.243 120.123 484.787 120.485 485.245 120.943C485.703 121.401 486.066 121.944 486.313 122.543C486.561 123.141 486.687 123.782 486.686 124.43Z" fill="#86F1A7"/>
<path d="M449.406 203.465C485.141 164.389 520.368 203.465 520.368 203.465C557.293 162.928 591.329 203.465 591.329 203.465" stroke="#EAA105" stroke-miterlimit="10"/>
<path d="M449.406 203.477H591.329" stroke="#993636" stroke-miterlimit="10"/>
<path d="M591.328 195.947V207.814" stroke="#993636" stroke-miterlimit="10"/>
<path d="M449.406 195.947V207.814" stroke="#993636" stroke-miterlimit="10"/>
<path d="M592.862 184.222H589.795C588.727 184.222 587.861 185.087 587.861 186.155V189.218C587.861 190.286 588.727 191.151 589.795 191.151H592.862C593.93 191.151 594.796 190.286 594.796 189.218V186.155C594.796 185.087 593.93 184.222 592.862 184.222Z" stroke="#993636" stroke-miterlimit="10"/>
<path d="M450.952 184.222H447.885C446.817 184.222 445.951 185.087 445.951 186.155V189.218C445.951 190.286 446.817 191.151 447.885 191.151H450.952C452.02 191.151 452.886 190.286 452.886 189.218V186.155C452.886 185.087 452.02 184.222 450.952 184.222Z" stroke="#993636" stroke-miterlimit="10"/>
<path d="M521.901 208.556H518.835C517.766 208.556 516.9 209.421 516.9 210.488V213.552C516.9 214.62 517.766 215.485 518.835 215.485H521.901C522.969 215.485 523.835 214.62 523.835 213.552V210.488C523.835 209.421 522.969 208.556 521.901 208.556Z" stroke="#993636" stroke-miterlimit="10"/>
<path d="M520.367 222.39C526.098 222.39 530.745 217.748 530.745 212.02C530.745 206.293 526.098 201.65 520.367 201.65C514.635 201.65 509.988 206.293 509.988 212.02C509.988 217.748 514.635 222.39 520.367 222.39Z" stroke="#C43F00" stroke-miterlimit="10"/>
<path d="M452.083 173.275L450.644 171.059L449.3 173.263C449.174 173.462 449 173.625 448.794 173.739C448.588 173.852 448.356 173.911 448.121 173.911H447.495C447.235 173.92 446.977 173.857 446.751 173.727C446.525 173.597 446.34 173.407 446.217 173.177C446.094 172.947 446.038 172.688 446.056 172.428C446.073 172.168 446.164 171.918 446.316 171.707L448.592 168.526L446.41 165.426C446.263 165.214 446.176 164.965 446.161 164.707C446.146 164.449 446.202 164.192 446.324 163.963C446.446 163.735 446.629 163.546 446.853 163.415C447.076 163.284 447.331 163.218 447.59 163.223H448.121C448.352 163.221 448.581 163.275 448.787 163.382C448.992 163.489 449.169 163.645 449.3 163.836L450.703 165.909L452.06 163.847C452.189 163.654 452.364 163.495 452.57 163.386C452.776 163.277 453.006 163.221 453.239 163.223H453.64C453.902 163.211 454.163 163.275 454.391 163.405C454.619 163.535 454.805 163.727 454.928 163.959C455.052 164.191 455.107 164.453 455.088 164.714C455.068 164.976 454.975 165.227 454.819 165.438L452.696 168.384L455.055 171.707C455.208 171.918 455.298 172.168 455.315 172.428C455.333 172.688 455.277 172.947 455.154 173.177C455.031 173.407 454.846 173.597 454.62 173.727C454.394 173.857 454.136 173.92 453.876 173.911H453.215C452.989 173.906 452.767 173.845 452.57 173.734C452.372 173.623 452.205 173.465 452.083 173.275Z" fill="#FF8353"/>
<path d="M477.981 170.034V172.52C477.981 172.889 477.834 173.243 477.573 173.504C477.312 173.764 476.959 173.911 476.589 173.911H475.776C475.406 173.911 475.05 173.765 474.787 173.504C474.525 173.244 474.375 172.89 474.372 172.52V169.987L471.601 165.332C471.474 165.122 471.405 164.882 471.401 164.637C471.396 164.391 471.457 164.149 471.577 163.935C471.697 163.721 471.871 163.542 472.083 163.417C472.294 163.292 472.535 163.225 472.78 163.223H473.323C473.561 163.226 473.795 163.291 474.002 163.41C474.208 163.53 474.381 163.701 474.502 163.906L476.283 166.923L478.087 163.906C478.209 163.701 478.381 163.53 478.587 163.41C478.794 163.291 479.028 163.226 479.267 163.223H479.514C479.758 163.228 479.997 163.297 480.206 163.423C480.415 163.549 480.588 163.728 480.707 163.941C480.826 164.154 480.888 164.394 480.885 164.638C480.883 164.882 480.817 165.121 480.694 165.332L477.981 170.034Z" fill="#FF8353"/>
<path d="M502.89 172.52C502.89 172.704 502.854 172.886 502.783 173.055C502.713 173.225 502.609 173.378 502.479 173.508C502.348 173.637 502.193 173.739 502.023 173.808C501.853 173.878 501.671 173.912 501.487 173.911H494.753C494.303 173.911 493.871 173.732 493.552 173.414C493.234 173.096 493.055 172.664 493.055 172.214C493.061 171.881 493.182 171.561 493.397 171.307L497.949 166.016H494.611C494.428 166.017 494.245 165.982 494.075 165.913C493.905 165.844 493.75 165.742 493.62 165.612C493.489 165.483 493.386 165.329 493.315 165.16C493.244 164.99 493.208 164.809 493.208 164.625V164.625C493.208 164.253 493.356 163.896 493.619 163.633C493.882 163.37 494.239 163.223 494.611 163.223H500.945C501.168 163.221 501.389 163.264 501.596 163.349C501.803 163.433 501.991 163.558 502.149 163.716C502.307 163.874 502.432 164.062 502.517 164.268C502.602 164.475 502.644 164.696 502.643 164.92V164.92C502.645 165.254 502.523 165.577 502.301 165.827L497.748 171.118H501.487C501.859 171.118 502.216 171.266 502.479 171.529C502.743 171.792 502.89 172.148 502.89 172.52Z" fill="#FF8353"/>
<path d="M467.662 164.825H461.612C461.013 164.825 460.527 165.311 460.527 165.909V166.758C460.527 167.357 461.013 167.842 461.612 167.842H467.662C468.262 167.842 468.747 167.357 468.747 166.758V165.909C468.747 165.311 468.262 164.825 467.662 164.825Z" fill="#FF8353"/>
<path d="M467.662 169.68H461.612C461.013 169.68 460.527 170.166 460.527 170.765V171.613C460.527 172.212 461.013 172.697 461.612 172.697H467.662C468.262 172.697 468.747 172.212 468.747 171.613V170.765C468.747 170.166 468.262 169.68 467.662 169.68Z" fill="#FF8353"/>
<path d="M490.573 169.859L486.295 165.584C485.871 165.161 485.184 165.161 484.76 165.584L484.16 166.184C483.736 166.608 483.736 167.294 484.16 167.718L488.438 171.992C488.861 172.416 489.548 172.416 489.972 171.992L490.573 171.392C490.996 170.969 490.996 170.282 490.573 169.859Z" fill="#FF8353"/>
<path d="M486.306 171.998L490.584 167.723C491.008 167.3 491.008 166.613 490.584 166.19L489.984 165.59C489.56 165.166 488.873 165.166 488.449 165.59L484.171 169.864C483.748 170.288 483.748 170.974 484.171 171.398L484.772 171.998C485.196 172.421 485.883 172.421 486.306 171.998Z" fill="#FF8353"/>
<path opacity="0.1" d="M515.756 163.576H591.329" stroke="#E3E9E7" stroke-width="5" stroke-linecap="round" stroke-linejoin="round"/>
<path opacity="0.1" d="M515.756 175.16H553.542" stroke="#E3E9E7" stroke-width="5" stroke-linecap="round" stroke-linejoin="round"/>
<g style="mix-blend-mode:multiply">
<path d="M426.243 281.157H523.245C526.16 281.157 528.956 280 531.017 277.941C533.078 275.881 534.236 273.087 534.236 270.175V270.175C534.236 267.261 533.079 264.466 531.018 262.405C528.957 260.343 526.161 259.183 523.245 259.18H426.243C423.327 259.183 420.532 260.343 418.471 262.405C416.41 264.466 415.252 267.261 415.252 270.175C415.252 273.087 416.41 275.881 418.471 277.941C420.533 280 423.328 281.157 426.243 281.157V281.157Z" fill="#111217"/>
</g>
<g style="mix-blend-mode:multiply">
<path d="M523.693 290.184H427.446C420.712 290.184 415.252 295.639 415.252 302.369V373.485C415.252 380.215 420.712 385.67 427.446 385.67H523.693C530.428 385.67 535.888 380.215 535.888 373.485V302.369C535.888 295.639 530.428 290.184 523.693 290.184Z" fill="#111217"/>
</g>
<path d="M541.347 283.502H445.101C438.366 283.502 432.906 288.958 432.906 295.687V366.804C432.906 373.533 438.366 378.989 445.101 378.989H541.347C548.082 378.989 553.542 373.533 553.542 366.804V295.687C553.542 288.958 548.082 283.502 541.347 283.502Z" fill="#1B1F29" stroke="#F1F1F3" stroke-miterlimit="10"/>
<path d="M443.898 274.452H540.887C543.804 274.455 546.602 273.302 548.667 271.244C550.733 269.187 551.896 266.395 551.903 263.481C551.899 260.567 550.739 257.774 548.676 255.715C546.612 253.655 543.816 252.499 540.899 252.499H443.898C440.982 252.499 438.185 253.655 436.122 255.715C434.058 257.774 432.898 260.567 432.895 263.481V263.481C432.901 266.393 434.063 269.184 436.126 271.24C438.188 273.297 440.984 274.452 443.898 274.452Z" fill="#1B1F29" stroke="#F1F1F3" stroke-miterlimit="10"/>
<path d="M451.506 263.481C451.508 264.456 451.221 265.41 450.681 266.221C450.141 267.033 449.371 267.666 448.471 268.04C447.57 268.415 446.579 268.514 445.622 268.326C444.665 268.137 443.785 267.669 443.095 266.98C442.404 266.292 441.933 265.414 441.742 264.458C441.551 263.503 441.648 262.512 442.021 261.611C442.393 260.71 443.025 259.94 443.836 259.398C444.647 258.857 445.601 258.567 446.576 258.567C447.882 258.567 449.134 259.085 450.058 260.006C450.982 260.927 451.503 262.177 451.506 263.481Z" fill="#DA4A54"/>
<path d="M471.129 263.481C471.131 264.456 470.844 265.41 470.304 266.221C469.764 267.033 468.994 267.666 468.094 268.04C467.193 268.415 466.202 268.514 465.245 268.326C464.288 268.137 463.408 267.669 462.718 266.98C462.027 266.292 461.556 265.414 461.365 264.458C461.174 263.503 461.271 262.512 461.644 261.611C462.016 260.71 462.648 259.94 463.459 259.398C464.27 258.857 465.224 258.567 466.199 258.567C467.505 258.567 468.757 259.085 469.681 260.006C470.605 260.927 471.126 262.177 471.129 263.481Z" fill="#F4DD45"/>
<path d="M490.754 263.481C490.756 264.456 490.469 265.41 489.929 266.221C489.389 267.033 488.619 267.666 487.719 268.04C486.818 268.415 485.827 268.514 484.87 268.326C483.913 268.137 483.033 267.669 482.343 266.98C481.652 266.292 481.181 265.414 480.99 264.458C480.799 263.503 480.896 262.512 481.269 261.611C481.641 260.71 482.273 259.94 483.084 259.398C483.895 258.857 484.849 258.567 485.824 258.567C487.13 258.567 488.382 259.085 489.306 260.006C490.23 260.927 490.751 262.177 490.754 263.481Z" fill="#86F1A7"/>
<path opacity="0.1" d="M447.412 302.758H537.385" stroke="#E3E9E7" stroke-width="5" stroke-linecap="round" stroke-linejoin="round"/>
<path opacity="0.1" d="M447.412 313.67H497.865" stroke="#E3E9E7" stroke-width="5" stroke-linecap="round" stroke-linejoin="round"/>
<path d="M464.301 352.156H450.16V366.285H464.301V352.156Z" stroke="#00BB78" stroke-width="3" stroke-miterlimit="10"/>
<path d="M450.16 366.285V324.841L535.592 366.285H450.16Z" stroke="#FF8353" stroke-width="3" stroke-linejoin="round"/>
<path d="M403.081 149.966C402.291 149.966 401.501 149.966 400.723 149.966" stroke="#EAA105" stroke-miterlimit="10"/>
<path d="M398.269 150.166C368.349 153.312 356.296 190.821 370.13 211.443" stroke="#EAA105" stroke-miterlimit="10" stroke-dasharray="4.15 2.08"/>
<path d="M370.814 212.421C371.286 213.057 371.77 213.67 372.289 214.259" stroke="#EAA105" stroke-miterlimit="10"/>
<path d="M373.456 207.672C374.755 207.933 375.946 208.572 376.881 209.51C377.816 210.447 378.452 211.64 378.708 212.938C378.965 214.237 378.83 215.582 378.322 216.803C377.813 218.025 376.954 219.069 375.852 219.803C374.75 220.537 373.455 220.929 372.131 220.927C370.806 220.926 369.512 220.533 368.411 219.797C367.311 219.061 366.453 218.016 365.947 216.793C365.44 215.571 365.308 214.226 365.566 212.928C365.738 212.065 366.079 211.244 366.569 210.512C367.058 209.781 367.688 209.153 368.42 208.665C369.153 208.177 369.975 207.838 370.839 207.667C371.703 207.497 372.593 207.499 373.456 207.672V207.672Z" fill="#EAA105"/>
<path d="M563.025 309.333C563.804 309.498 564.582 309.651 565.384 309.769" stroke="#FF8353" stroke-miterlimit="10"/>
<path d="M567.777 310.075C597.745 312.868 616.933 278.459 607.427 255.527" stroke="#FF8353" stroke-miterlimit="10" stroke-dasharray="4.15 2.08"/>
<path d="M606.944 254.419C606.614 253.712 606.249 253.017 605.859 252.333" stroke="#FF8353" stroke-miterlimit="10"/>
<path d="M603.418 258.567C602.195 258.059 601.151 257.2 600.416 256.098C599.682 254.997 599.291 253.703 599.293 252.379C599.295 251.056 599.689 249.763 600.426 248.663C601.163 247.564 602.21 246.707 603.434 246.202C604.658 245.696 606.004 245.565 607.303 245.824C608.602 246.083 609.794 246.721 610.731 247.657C611.667 248.593 612.304 249.786 612.562 251.084C612.82 252.382 612.687 253.727 612.18 254.95C611.497 256.589 610.191 257.891 608.548 258.569C606.905 259.248 605.06 259.247 603.418 258.567V258.567Z" fill="#FF8353"/>
<path d="M496.91 95.5705C497.158 94.8045 497.382 94.0503 497.571 93.2961" stroke="#2B2C30" stroke-miterlimit="10"/>
<path d="M498.126 90.9039C503.893 61.4438 471.543 38.8891 447.756 46.0538" stroke="#2B2C30" stroke-miterlimit="10" stroke-dasharray="4.15 2.08"/>
<path d="M446.612 46.4309C445.869 46.6784 445.137 46.973 444.418 47.2911" stroke="#2B2C30" stroke-miterlimit="10"/>
<path d="M450.384 50.3314C449.757 51.4976 448.798 52.4518 447.627 53.0731C446.457 53.6945 445.129 53.9551 443.811 53.822C442.492 53.6889 441.243 53.1681 440.221 52.3255C439.199 51.4829 438.45 50.3563 438.068 49.0882C437.687 47.8201 437.691 46.4676 438.079 45.2016C438.467 43.9357 439.223 42.8132 440.249 41.9762C441.276 41.1392 442.528 40.6253 443.847 40.4995C445.166 40.3737 446.493 40.6417 447.66 41.2694C449.223 42.1107 450.388 43.5377 450.899 45.237C451.41 46.9362 451.225 48.7686 450.384 50.3314V50.3314Z" fill="#2B2C30"/>
<path d="M140.039 99.1646H165.761" stroke="#2B2C30" stroke-width="5" stroke-linecap="round" stroke-linejoin="round"/>
<path d="M140.039 112.339H154.392" stroke="#2B2C30" stroke-width="5" stroke-linecap="round" stroke-linejoin="round"/>
<path d="M369.576 91.4106H458.074" stroke="#2B2C30" stroke-width="5" stroke-linecap="round" stroke-linejoin="round"/>
<path d="M369.576 104.114H401.584" stroke="#2B2C30" stroke-width="5" stroke-linecap="round" stroke-linejoin="round"/>
<path d="M581.859 340.266H608.69" stroke="#2B2C30" stroke-width="5" stroke-linecap="round" stroke-linejoin="round"/>
<path d="M569.322 340.266H572.884" stroke="#2B2C30" stroke-width="5" stroke-linecap="round" stroke-linejoin="round"/>
<path d="M594.797 350.86H608.69" stroke="#2B2C30" stroke-width="5" stroke-linecap="round" stroke-linejoin="round"/>
<path d="M208.072 102V112.116L199 123H237.122C242.659 122.998 247.968 120.785 251.883 116.847C255.798 112.909 257.998 107.569 258 102V102C258 96.4305 255.8 91.089 251.885 87.1508C247.97 83.2125 242.659 81 237.122 81H228.95C223.413 81 218.102 83.2125 214.187 87.1508C210.272 91.089 208.072 96.4305 208.072 102Z" fill="#2B2C30"/>
<path d="M224 106.493C224.001 107.186 223.797 107.863 223.413 108.44C223.03 109.016 222.483 109.466 221.844 109.732C221.205 109.998 220.501 110.068 219.821 109.934C219.142 109.799 218.518 109.466 218.028 108.977C217.537 108.488 217.203 107.864 217.068 107.185C216.932 106.506 217.001 105.802 217.266 105.162C217.53 104.522 217.979 103.975 218.555 103.59C219.131 103.205 219.807 103 220.5 103C221.427 103 222.316 103.368 222.972 104.023C223.629 104.678 223.998 105.566 224 106.493V106.493Z" fill="#111217"/>
<path d="M237 106.493C237.001 107.186 236.797 107.863 236.413 108.44C236.03 109.016 235.483 109.466 234.844 109.732C234.205 109.998 233.501 110.068 232.821 109.934C232.142 109.799 231.518 109.466 231.028 108.977C230.537 108.488 230.203 107.864 230.068 107.185C229.932 106.506 230.001 105.802 230.266 105.162C230.53 104.522 230.979 103.975 231.555 103.59C232.131 103.205 232.807 103 233.5 103C234.427 103 235.316 103.368 235.973 104.023C236.629 104.678 236.998 105.566 237 106.493V106.493Z" fill="#111217"/>
<path d="M249 106.493C249.001 107.186 248.797 107.863 248.413 108.44C248.03 109.016 247.483 109.466 246.844 109.732C246.205 109.998 245.501 110.068 244.821 109.934C244.142 109.799 243.518 109.466 243.028 108.977C242.537 108.488 242.203 107.864 242.068 107.185C241.932 106.506 242.001 105.802 242.266 105.162C242.53 104.522 242.979 103.975 243.555 103.59C244.131 103.205 244.807 103 245.5 103C246.427 103 247.316 103.368 247.972 104.023C248.629 104.678 248.998 105.566 249 106.493V106.493Z" fill="#111217"/>
<path d="M552.989 85.5069C556.63 85.5069 559.582 82.5576 559.582 78.9196C559.582 75.2815 556.63 72.3323 552.989 72.3323C549.348 72.3323 546.396 75.2815 546.396 78.9196C546.396 82.5576 549.348 85.5069 552.989 85.5069Z" fill="#2B2C30"/>
<path d="M91.1073 102.476C96.2007 102.476 100.33 98.3502 100.33 93.2608C100.33 88.1714 96.2007 84.0457 91.1073 84.0457C86.0138 84.0457 81.8848 88.1714 81.8848 93.2608C81.8848 98.3502 86.0138 102.476 91.1073 102.476Z" fill="#2B2C30"/>
<path d="M313.046 484.435C313.046 483.293 312.707 482.177 312.072 481.227C311.437 480.278 310.535 479.538 309.479 479.101C308.423 478.664 307.261 478.549 306.14 478.772C305.019 478.995 303.989 479.545 303.181 480.352C302.373 481.16 301.822 482.189 301.599 483.309C301.376 484.429 301.491 485.59 301.928 486.645C302.366 487.7 303.106 488.602 304.057 489.236C305.007 489.871 306.124 490.21 307.267 490.21C308.8 490.21 310.27 489.601 311.353 488.518C312.437 487.435 313.046 485.967 313.046 484.435V484.435Z" fill="#2B2C30"/>
<path d="M408.101 469.445C408.101 470.226 407.869 470.989 407.435 471.639C407.001 472.288 406.384 472.794 405.662 473.093C404.94 473.391 404.146 473.47 403.379 473.317C402.613 473.165 401.909 472.789 401.356 472.237C400.804 471.685 400.428 470.981 400.275 470.216C400.123 469.45 400.201 468.656 400.5 467.935C400.799 467.213 401.305 466.597 401.955 466.163C402.605 465.729 403.369 465.498 404.15 465.498C404.669 465.498 405.183 465.6 405.662 465.798C406.141 465.997 406.577 466.287 406.944 466.654C407.311 467.021 407.602 467.456 407.8 467.935C407.999 468.414 408.101 468.927 408.101 469.445V469.445Z" fill="#FF8353"/>
<path d="M308.345 22.6272C308.338 21.8457 308.1 21.0836 307.66 20.4372C307.22 19.7907 306.599 19.2887 305.874 18.9945C305.15 18.7002 304.354 18.6268 303.588 18.7836C302.822 18.9403 302.119 19.3202 301.568 19.8753C301.017 20.4304 300.644 21.136 300.494 21.903C300.343 22.6701 300.424 23.4644 300.725 24.1858C301.026 24.9073 301.534 25.5236 302.185 25.9571C302.835 26.3906 303.6 26.622 304.382 26.622C304.906 26.6236 305.425 26.5211 305.909 26.3205C306.393 26.1198 306.832 25.8251 307.2 25.4533C307.569 25.0816 307.86 24.6403 308.057 24.1551C308.253 23.67 308.351 23.1506 308.345 22.6272V22.6272Z" fill="#FF8353"/>
<path d="M523.693 57.826C523.695 57.0401 523.464 56.2711 523.029 55.6165C522.594 54.9619 521.974 54.4511 521.248 54.1487C520.522 53.8463 519.722 53.766 518.95 53.9179C518.179 54.0698 517.469 54.4471 516.912 55.002C516.355 55.5569 515.976 56.2645 515.821 57.0352C515.667 57.8058 515.745 58.6049 516.046 59.3312C516.346 60.0576 516.855 60.6785 517.509 61.1154C518.163 61.5522 518.932 61.7855 519.718 61.7855C520.771 61.7855 521.78 61.3687 522.525 60.6265C523.27 59.8843 523.69 58.8772 523.693 57.826V57.826Z" fill="#FF8353"/>
<path d="M619.528 367.758C619.53 368.435 619.331 369.097 618.957 369.66C618.583 370.224 618.049 370.664 617.425 370.924C616.8 371.184 616.112 371.254 615.448 371.123C614.783 370.993 614.173 370.668 613.693 370.191C613.214 369.713 612.887 369.104 612.754 368.441C612.621 367.778 612.688 367.09 612.947 366.465C613.205 365.84 613.644 365.306 614.206 364.93C614.769 364.554 615.431 364.353 616.108 364.353C617.013 364.353 617.881 364.711 618.522 365.35C619.163 365.988 619.525 366.854 619.528 367.758V367.758Z" fill="#FF8353"/>
<path d="M171.965 31.9602C179.306 31.9602 185.256 26.0142 185.256 18.6795C185.256 11.3449 179.306 5.39893 171.965 5.39893C164.625 5.39893 158.674 11.3449 158.674 18.6795C158.674 26.0142 164.625 31.9602 171.965 31.9602Z" fill="#2B2C30"/>
<path d="M173.443 59.2879C175.138 52.1514 170.722 44.9932 163.58 43.2996C156.438 41.6061 149.274 46.0184 147.579 53.1549C145.884 60.2914 150.3 67.4496 157.442 69.1431C164.584 70.8367 171.748 66.4244 173.443 59.2879Z" fill="#2B2C30"/>
<path d="M219.099 49.2612C224.29 44.0748 224.29 35.6659 219.099 30.4795C213.909 25.2931 205.493 25.2931 200.303 30.4795C195.112 35.6659 195.112 44.0748 200.303 49.2612C205.493 54.4476 213.909 54.4476 219.099 49.2612Z" fill="#2B2C30"/>
<path d="M160.514 56.2234L171.965 18.6794" stroke="#2B2C30" stroke-width="5" stroke-linecap="round" stroke-linejoin="round"/>
<path d="M209.692 39.8672L173.805 18.6794" stroke="#2B2C30" stroke-width="5" stroke-linecap="round" stroke-linejoin="round"/>
<path d="M160.514 56.2235L209.693 39.8672" stroke="#2B2C30" stroke-width="5" stroke-linecap="round" stroke-linejoin="round"/>
</g>
<g clip-path="url(#clip1)">
<path d="M7.97461 458.99V507.358H253.636C256.551 507.299 259.372 506.323 261.702 504.57C264.031 502.817 265.749 500.375 266.613 497.59C267.157 495.979 267.432 494.289 267.427 492.588V473.76C267.431 471.959 267.124 470.171 266.518 468.475C265.604 465.765 263.875 463.403 261.566 461.714C259.258 460.024 256.484 459.09 253.624 459.038L7.97461 458.99Z" fill="#B22900"/>
<path d="M127.621 468.475V497.531H266.626C267.17 495.92 267.445 494.23 267.44 492.529V473.76C267.444 471.96 267.137 470.171 266.531 468.475H127.621Z" fill="#C43F00"/>
<path d="M171.151 493.733C177.074 493.733 181.875 488.932 181.875 483.009C181.875 477.087 177.074 472.286 171.151 472.286C165.229 472.286 160.428 477.087 160.428 483.009C160.428 488.932 165.229 493.733 171.151 493.733Z" fill="#FFB72F"/>
<path d="M11.9746 458.991H122.867C128.186 458.991 133.287 461.103 137.048 464.864C140.809 468.626 142.922 473.727 142.922 479.045V487.185C142.922 492.504 140.809 497.605 137.048 501.366C133.287 505.127 128.186 507.24 122.867 507.24H11.9746V458.873V458.991Z" fill="#C43F00"/>
<path d="M5.26199 458.99H26.4966V466.234H5.26199C4.32949 466.203 3.44689 465.805 2.8062 465.127C2.16551 464.449 1.81857 463.545 1.84085 462.612V462.612C1.81857 461.679 2.16551 460.776 2.8062 460.097C3.44689 459.419 4.32949 459.021 5.26199 458.99V458.99Z" fill="#C43F00"/>
<path d="M4.89533 500.068H26.4485V507.311H4.89533C4.0975 507.311 3.33234 506.994 2.76818 506.43C2.20403 505.866 1.88709 505.101 1.88709 504.303V503.123C1.88083 502.724 1.95402 502.328 2.10239 501.958C2.25076 501.587 2.47136 501.25 2.75132 500.966C3.03129 500.681 3.36504 500.455 3.73312 500.301C4.10121 500.147 4.49628 500.068 4.89533 500.068V500.068Z" fill="#C43F00"/>
<path d="M7.98633 466.234H120.27C124 466.234 127.577 467.715 130.214 470.353C132.851 472.99 134.333 476.566 134.333 480.296V485.994C134.333 489.723 132.851 493.3 130.214 495.937C127.577 498.574 124 500.056 120.27 500.056H7.98633V466.234Z" fill="#E9EEEC"/>
<path d="M7.98633 470.681H117.392C120.408 470.681 123.301 471.88 125.433 474.012C127.566 476.145 128.764 479.038 128.764 482.054V492.435C128.764 494.459 127.96 496.401 126.529 497.832C125.097 499.264 123.156 500.068 121.132 500.068H7.98633V470.681Z" fill="white"/>
<path d="M129.767 476.769H7.98633" stroke="#F1F4F6" stroke-miterlimit="10"/>
<path d="M133.908 482.75H7.98633" stroke="#F1F4F6" stroke-miterlimit="10"/>
<path d="M133.908 488.731H7.98633" stroke="#F1F4F6" stroke-miterlimit="10"/>
<path d="M129.767 495.196H8.25781" stroke="#F1F4F6" stroke-miterlimit="10"/>
<path d="M245.142 497.531H231.457C230.591 500.314 228.872 502.753 226.543 504.504C224.214 506.255 221.394 507.229 218.48 507.288H244.552C247.465 507.229 250.286 506.255 252.615 504.504C254.944 502.753 256.663 500.314 257.529 497.531H245.142Z" fill="#EAA105"/>
<path d="M244.54 458.99H218.469C221.329 459.042 224.103 459.977 226.411 461.667C228.719 463.356 230.449 465.718 231.363 468.428H257.434C256.52 465.718 254.791 463.356 252.482 461.667C250.174 459.977 247.4 459.042 244.54 458.99V458.99Z" fill="#EAA105"/>
<path d="M257.435 468.475H231.363C231.968 470.168 232.275 471.952 232.272 473.749V492.541C232.276 494.242 232.001 495.932 231.458 497.543H257.529C258.072 495.932 258.347 494.242 258.343 492.541V473.749C258.347 471.952 258.04 470.168 257.435 468.475V468.475Z" fill="#FFB72F"/>
<path d="M99.2715 476.698V497.543L106.173 493.32L113.074 497.543V476.698" fill="#DEE5E3"/>
<path d="M94.0938 493.32L101.927 489.108L107.908 493.32L113.075 476.698H99.2726L94.0938 493.32Z" fill="#EAA105"/>
<path d="M242.122 424.095V459.108H32.6543C30.3159 459.159 28.0155 458.512 26.0452 457.252C24.0749 455.992 22.5237 454.174 21.5887 452.03C21.1199 450.88 20.8795 449.65 20.8809 448.409V434.795C20.8827 433.482 21.1474 432.182 21.6594 430.973C22.6199 428.877 24.173 427.11 26.127 425.887C28.0809 424.665 30.3501 424.042 32.6543 424.095H242.122Z" fill="#EAA105"/>
<path d="M140.113 430.973V452.03H21.5887C21.1199 450.881 20.8795 449.65 20.8809 448.409V434.795C20.8827 433.482 21.1474 432.182 21.6594 430.973H140.113Z" fill="#FFB72F"/>
<path d="M109.17 438.027H35.4625C33.8663 438.027 32.5723 439.321 32.5723 440.918V442.086C32.5723 443.682 33.8663 444.976 35.4625 444.976H109.17C110.767 444.976 112.061 443.682 112.061 442.086V440.918C112.061 439.321 110.767 438.027 109.17 438.027Z" fill="#C43F00"/>
<path d="M238.713 459.109H141.541C137.68 459.109 133.977 457.575 131.247 454.845C128.517 452.115 126.983 448.412 126.983 444.551V438.653C126.983 434.792 128.517 431.089 131.247 428.359C133.977 425.629 137.68 424.095 141.541 424.095H238.713V459.109Z" fill="#FFB72F"/>
<path d="M244.434 424.095H226.385V429.333H244.434C245.165 429.368 245.879 429.112 246.421 428.621C246.963 428.13 247.288 427.444 247.325 426.714C247.288 425.984 246.963 425.298 246.421 424.807C245.879 424.316 245.165 424.06 244.434 424.095Z" fill="#FFB72F"/>
<path d="M245.153 459.085H226.396V453.835H245.153C245.44 453.835 245.724 453.892 245.989 454.001C246.253 454.111 246.494 454.272 246.697 454.475C246.899 454.677 247.06 454.918 247.17 455.183C247.279 455.447 247.336 455.731 247.336 456.018V456.903C247.336 457.481 247.106 458.036 246.697 458.446C246.287 458.855 245.732 459.085 245.153 459.085V459.085Z" fill="#FFB72F"/>
<path d="M242.123 429.345V453.883H146.65C143.399 453.883 140.281 452.591 137.983 450.293C135.684 447.994 134.393 444.876 134.393 441.625C134.393 438.375 135.684 435.257 137.983 432.958C140.281 430.66 143.399 429.368 146.65 429.368L242.123 429.345Z" fill="#E9EEEC"/>
<path d="M242.123 432.565V453.882H146.65C144.627 453.884 142.636 453.381 140.857 452.42C140.312 451.914 139.877 451.301 139.58 450.618C139.284 449.936 139.132 449.2 139.135 448.456V446.686C139.133 444.834 139.497 443.001 140.205 441.29C140.913 439.578 141.951 438.024 143.26 436.714C144.57 435.405 146.124 434.367 147.836 433.659C149.547 432.951 151.38 432.587 153.232 432.589L242.123 432.565Z" fill="white"/>
<path d="M138.285 436.977H242.134" stroke="#F1F4F6" stroke-miterlimit="10"/>
<path d="M134.746 441.307H242.134" stroke="#F1F4F6" stroke-miterlimit="10"/>
<path d="M135.666 445.648L241.839 445.648" stroke="#F1F4F6" stroke-miterlimit="10"/>
<path d="M139.205 450.367L241.839 450.367" stroke="#F1F4F6" stroke-miterlimit="10"/>
<path d="M254.486 376.022V424.071H24.031C19.5802 424.07 15.2171 422.833 11.4281 420.498C7.63917 418.163 4.5732 414.821 2.57198 410.846C0.570764 406.87 -0.287042 402.417 0.0941816 397.982C0.475405 393.548 2.08068 389.307 4.73105 385.731C5.44559 384.781 6.23455 383.89 7.09046 383.065C9.31756 380.823 11.966 379.043 14.8835 377.828C17.8009 376.614 20.9297 375.988 24.09 375.987L254.486 376.022Z" fill="#450000"/>
<path d="M148.358 385.755V414.386H4.72956C1.65816 410.245 0 405.226 0 400.07C0 394.915 1.65816 389.896 4.72956 385.755H148.358Z" fill="#5E2222"/>
<path d="M250.227 424.119H130.841C125.544 424.119 120.464 422.014 116.718 418.269C112.972 414.523 110.868 409.443 110.868 404.146V396.054C110.868 390.756 112.972 385.676 116.718 381.931C120.464 378.185 125.544 376.081 130.841 376.081H250.227V424.119Z" fill="#5E2222"/>
<path d="M257.364 376.022H234.844V383.218H257.364C257.834 383.218 258.299 383.125 258.732 382.943C259.166 382.762 259.558 382.496 259.888 382.161C260.217 381.826 260.477 381.429 260.651 380.993C260.825 380.556 260.911 380.09 260.903 379.62V379.62C260.911 379.15 260.825 378.684 260.651 378.248C260.477 377.811 260.217 377.414 259.888 377.079C259.558 376.744 259.166 376.478 258.732 376.297C258.299 376.115 257.834 376.022 257.364 376.022V376.022Z" fill="#5E2222"/>
<path d="M258.037 424.095H234.903V416.899H258.037C258.831 416.899 259.594 417.214 260.155 417.776C260.717 418.338 261.033 419.101 261.033 419.895V421.075C261.036 421.47 260.961 421.863 260.812 422.229C260.663 422.595 260.442 422.928 260.164 423.209C259.885 423.49 259.554 423.713 259.189 423.865C258.824 424.017 258.432 424.095 258.037 424.095V424.095Z" fill="#5E2222"/>
<path d="M254.474 383.242V416.887H136.928C132.713 416.888 128.652 415.306 125.547 412.455C122.443 409.604 120.522 405.692 120.164 401.492C120.164 401.032 120.105 400.548 120.105 400.065C120.109 395.604 121.882 391.327 125.036 388.173C128.19 385.018 132.467 383.245 136.928 383.242H254.474Z" fill="#F2F5F4"/>
<path d="M254.473 388.692V416.887H136.928C132.713 416.888 128.651 415.306 125.547 412.455C122.443 409.604 120.522 405.692 120.164 401.492C120.5 397.998 122.123 394.753 124.717 392.387C127.312 390.022 130.692 388.705 134.203 388.692H254.473Z" fill="white"/>
<path d="M124.967 391.464H254.486" stroke="#F1F4F6" stroke-miterlimit="10"/>
<path d="M120.555 398.165H254.486" stroke="#F1F4F6" stroke-miterlimit="10"/>
<path d="M120.555 404.866H254.486" stroke="#F1F4F6" stroke-miterlimit="10"/>
<path d="M125.049 411.437L254.816 411.437" stroke="#F1F4F6" stroke-miterlimit="10"/>
<path d="M158.435 391.464V414.386L150.849 409.75L143.264 414.386V391.464" fill="#DEE5E3"/>
<path d="M164.121 409.75L155.521 405.114L148.95 409.75L143.264 391.464H158.435L164.121 409.75Z" fill="#C43F00"/>
<path d="M61.392 424.095H34.9548C30.504 424.094 26.141 422.857 22.352 420.522C18.563 418.186 15.497 414.845 13.4958 410.869C11.4946 406.894 10.6368 402.441 11.018 398.006C11.3992 393.572 13.0045 389.33 15.6549 385.755C17.896 382.746 20.8066 380.3 24.1564 378.611C27.5062 376.922 31.2032 376.035 34.9548 376.022H61.392C58.1922 375.951 55.0106 376.52 52.0337 377.696C49.0568 378.871 46.3447 380.629 44.0567 382.867C41.7686 385.105 39.9507 387.778 38.7095 390.728C37.4684 393.678 36.829 396.846 36.829 400.047C36.829 403.247 37.4684 406.415 38.7095 409.366C39.9507 412.316 41.7686 414.988 44.0567 417.226C46.3447 419.464 49.0568 421.222 52.0337 422.398C55.0106 423.573 58.1922 424.142 61.392 424.071V424.095Z" fill="#B22900"/>
<path d="M79.1106 424.095H67.7029C63.2521 424.094 58.889 422.857 55.1 420.522C51.3111 418.186 48.2451 414.845 46.2438 410.869C44.2426 406.894 43.3848 402.441 43.7661 398.006C44.1473 393.572 45.7526 389.33 48.4029 385.755C49.1058 384.813 49.8745 383.922 50.7034 383.088C52.9305 380.846 55.5789 379.067 58.4964 377.852C61.4138 376.637 64.5426 376.011 67.7029 376.01H79.1106C75.9504 376.011 72.8215 376.637 69.9041 377.852C66.9866 379.067 64.3382 380.846 62.1111 383.088C61.2822 383.922 60.5135 384.813 59.8107 385.755C57.1603 389.33 55.555 393.572 55.1738 398.006C54.7925 402.441 55.6504 406.894 57.6516 410.869C59.6528 414.845 62.7188 418.186 66.5078 420.522C70.2967 422.857 74.6598 424.094 79.1106 424.095V424.095Z" fill="#B22900"/>
<path d="M37.3619 400.064C37.3567 405.221 39.0112 410.242 42.0807 414.386H15.6553C12.5839 410.245 10.9258 405.226 10.9258 400.07C10.9258 394.915 12.5839 389.896 15.6553 385.755H42.0925C39.0174 389.892 37.3584 394.91 37.3619 400.064Z" fill="#C43F00"/>
<path d="M55.0806 400.064C55.0703 405.222 56.7253 410.245 59.7994 414.386H48.3917C45.3202 410.245 43.6621 405.226 43.6621 400.07C43.6621 394.915 45.3202 389.896 48.3917 385.755H59.7994C56.724 389.891 55.0687 394.91 55.0806 400.064V400.064Z" fill="#C43F00"/>
<path d="M126.677 424.095H115.281C110.83 424.094 106.467 422.857 102.678 420.522C98.8892 418.186 95.8232 414.845 93.822 410.869C91.8208 406.894 90.963 402.441 91.3442 398.006C91.7254 393.572 93.3307 389.33 95.9811 385.755C96.6768 384.807 97.4459 383.916 98.2815 383.089C100.508 380.846 103.157 379.066 106.074 377.851C108.992 376.636 112.121 376.011 115.281 376.01H126.677C123.477 375.939 120.295 376.508 117.319 377.684C114.342 378.859 111.63 380.618 109.342 382.856C107.054 385.093 105.236 387.766 103.994 390.716C102.753 393.666 102.114 396.834 102.114 400.035C102.114 403.236 102.753 406.404 103.994 409.354C105.236 412.304 107.054 414.976 109.342 417.214C111.63 419.452 114.342 421.211 117.319 422.386C120.295 423.562 123.477 424.131 126.677 424.06V424.095Z" fill="#B22900"/>
<path d="M102.647 400.064C102.642 405.221 104.296 410.242 107.366 414.386H95.9815C92.9101 410.245 91.252 405.226 91.252 400.07C91.252 394.915 92.9101 389.896 95.9815 385.755H107.377C104.302 389.892 102.643 394.91 102.647 400.064V400.064Z" fill="#C43F00"/>
</g>
<g clip-path="url(#clip2)">
<path d="M178.303 279.847H115.548C109.744 279.847 107.957 278.101 107.957 272.29C107.957 245.948 107.957 219.613 107.957 193.284C107.957 187.501 109.731 185.769 115.548 185.769H241.417C247.372 185.769 249.008 187.356 249.008 193.194C249.008 219.624 249.008 246.052 249.008 272.477C249.008 278.218 247.379 279.847 241.651 279.847H178.303Z" fill="#DA4A54"/>
<path d="M338.027 253.873C338.027 273.789 338.027 293.702 338.027 313.613C338.027 319.665 335.956 321.742 329.987 321.742C312.551 321.742 295.116 321.742 277.68 321.742C271.745 321.742 269.758 319.761 269.758 313.833C269.758 273.727 269.758 233.622 269.758 193.52C269.758 187.682 271.731 185.715 277.494 185.715H330.077C336.081 185.715 338.02 187.619 338.027 193.582C338.027 213.677 338.027 233.774 338.027 253.873Z" fill="#111217"/>
<path d="M191.855 305.794C177.994 305.794 164.135 305.794 150.278 305.794C147.773 305.794 146.02 304.731 145.061 302.489C144.638 301.559 144.531 300.516 144.755 299.52C144.979 298.523 145.523 297.627 146.303 296.968C147.849 295.526 149.899 295.319 151.969 295.326C168.954 295.326 185.934 295.326 202.91 295.326C212.274 295.326 221.632 295.326 230.996 295.326C232.372 295.284 233.744 295.489 235.047 295.933C237.648 296.899 238.787 298.955 238.331 301.847C238.118 302.979 237.507 303.998 236.608 304.719C235.71 305.44 234.583 305.817 233.432 305.78C225.261 305.822 217.091 305.78 208.927 305.78L191.855 305.794Z" fill="#111217"/>
<path d="M142.047 326.717C132.878 326.717 123.707 326.717 114.534 326.717C110.497 326.717 108.164 324.785 108.15 321.507C108.15 318.354 110.635 316.27 114.596 316.27C132.846 316.27 151.098 316.27 169.353 316.27C173.762 316.27 176.164 318.643 175.66 322.308C175.246 325.296 173.59 326.703 170.388 326.71C160.934 326.731 151.487 326.71 142.047 326.717Z" fill="#111217"/>
<path d="M120.938 305.835C118.378 305.835 115.811 305.925 113.258 305.835C110.325 305.704 108.379 303.8 108.179 301.088C107.979 298.376 109.607 296.029 112.533 295.74C118.269 295.151 124.049 295.151 129.785 295.74C131.027 295.883 132.168 296.494 132.978 297.447C133.788 298.4 134.205 299.625 134.146 300.874C134.107 302.172 133.572 303.407 132.65 304.322C131.728 305.238 130.49 305.765 129.191 305.794C126.431 305.939 123.671 305.794 120.966 305.794L120.938 305.835Z" fill="#DA4A54"/>
<path d="M160.216 232.598C160.216 227.823 160.216 223.048 160.216 218.279C160.216 215.519 160.851 213.152 163.445 211.758C166.04 210.364 168.193 211.158 170.408 212.593C177.999 217.527 185.707 222.378 193.319 227.34C197.99 230.383 198.032 235.2 193.408 238.215C185.652 243.276 177.861 248.288 170.036 253.252C165.164 256.323 160.375 253.77 160.25 248.014C160.119 242.88 160.223 237.739 160.216 232.598Z" fill="#FEFEFE"/>
<path opacity="0.2" d="M303.834 253.493C299.521 253.493 295.208 253.535 290.895 253.493C287.887 253.452 285.996 251.72 285.727 248.898C285.471 246.268 287.003 244.295 289.757 243.494C291.546 243.087 293.384 242.938 295.215 243.053C301.55 243.053 307.878 243.053 314.213 243.053C315.588 243.038 316.959 243.217 318.284 243.584C319.466 243.894 320.495 244.623 321.18 245.635C321.865 246.647 322.16 247.874 322.009 249.086C321.858 250.299 321.272 251.416 320.36 252.229C319.447 253.042 318.271 253.496 317.049 253.507C312.639 253.528 308.237 253.493 303.834 253.493Z" fill="#AEB8D1"/>
<path opacity="0.2" d="M303.881 201.655C308.194 201.655 312.507 201.621 316.813 201.655C318.101 201.62 319.354 202.072 320.323 202.92C321.293 203.768 321.907 204.95 322.044 206.231C322.153 207.474 321.797 208.713 321.045 209.709C320.293 210.704 319.198 211.386 317.972 211.62C316.818 211.906 315.635 212.059 314.446 212.076C307.389 212.117 300.327 212.117 293.261 212.076C291.982 212.061 290.71 211.889 289.472 211.565C288.301 211.293 287.271 210.598 286.579 209.614C285.888 208.63 285.584 207.425 285.725 206.231C285.847 204.995 286.418 203.847 287.33 203.005C288.242 202.163 289.432 201.685 290.673 201.662C295.076 201.614 299.479 201.655 303.881 201.655Z" fill="#AEB8D1"/>
<path opacity="0.2" d="M303.737 295.34C299.597 295.34 295.491 295.34 291.364 295.34C288.211 295.34 286.051 293.545 285.733 290.854C285.388 287.914 286.996 286.024 290.405 285.209C293.124 284.581 295.877 284.954 298.617 284.913C303.841 284.844 309.065 284.913 314.288 284.913C315.477 284.888 316.664 285.028 317.815 285.327C320.63 286.093 322.314 288.259 322.031 290.847C321.748 293.435 319.595 295.284 316.662 295.319C312.356 295.381 308.05 295.34 303.737 295.34Z" fill="#AEB8D1"/>
<path opacity="0.2" d="M295.759 274.43C293.931 274.43 292.095 274.541 290.28 274.43C289.085 274.341 287.964 273.82 287.124 272.966C286.284 272.112 285.782 270.982 285.712 269.786C285.564 268.591 285.873 267.384 286.577 266.407C287.28 265.429 288.327 264.754 289.507 264.514C293.738 263.745 298.072 263.731 302.308 264.473C303.544 264.661 304.659 265.321 305.419 266.315C306.178 267.308 306.522 268.558 306.379 269.8C306.131 272.464 304.309 274.216 301.549 274.486C301.363 274.486 301.183 274.486 301.004 274.486H295.794L295.759 274.43Z" fill="#7F8499"/>
<path opacity="0.2" d="M296.035 222.551C297.947 222.551 299.879 222.427 301.784 222.551C302.997 222.651 304.134 223.187 304.982 224.061C305.83 224.935 306.332 226.087 306.396 227.304C306.459 228.52 306.079 229.718 305.326 230.675C304.573 231.632 303.498 232.284 302.301 232.509C298.152 233.195 293.919 233.195 289.77 232.509C288.554 232.272 287.468 231.596 286.719 230.61C285.97 229.623 285.61 228.396 285.707 227.162C285.804 225.927 286.352 224.772 287.246 223.915C288.141 223.058 289.319 222.561 290.556 222.516C292.378 222.399 294.207 222.516 296.035 222.516V222.551Z" fill="#7F8499"/>
</g>
<path d="M59.2888 222.128C59.2911 223.342 58.9328 224.531 58.259 225.542C57.5853 226.553 56.6265 227.342 55.5039 227.808C54.3814 228.275 53.1456 228.398 51.9529 228.162C50.7603 227.927 49.6643 227.343 48.8038 226.485C47.9433 225.627 47.357 224.533 47.1189 223.342C46.8809 222.15 47.0019 220.915 47.4666 219.793C47.9313 218.67 48.7188 217.711 49.7295 217.036C50.7402 216.36 51.9286 216 53.1444 216C54.772 216 56.333 216.645 57.485 217.794C58.6369 218.943 59.2857 220.501 59.2888 222.128V222.128Z" fill="#FF8353"/>
<defs>
<clipPath id="clip0">
<rect width="562.113" height="520.148" fill="white" transform="translate(57.4258 0.567383)"/>
</clipPath>
<clipPath id="clip1">
<rect width="267.451" height="131.266" fill="white" transform="translate(0 376.046)"/>
</clipPath>
<clipPath id="clip2">
<rect width="230.042" height="141.002" fill="white" transform="translate(107.984 185.715)"/>
</clipPath>
</defs>
</svg>
