<svg width="71" height="72" viewBox="0 0 71 72" fill="none" xmlns="http://www.w3.org/2000/svg">
<path d="M67.6625 56.1436C65.7192 55.6766 64.6833 56.5657 63.6393 58.2113C60.5684 63.0481 55.8906 65.7255 50.4379 67.1182C47.4832 67.8727 44.4694 68.1133 41.425 68.048C40.7337 68.0338 40.23 67.7809 40.0812 67.0693C39.9323 66.3576 40.2851 65.856 41.0824 65.6072C44.2145 64.6468 47.1998 63.3642 49.8507 61.4086C52.9644 59.1085 55.1361 56.166 56.0782 52.3691C56.2617 51.6269 56.1455 51.0376 55.5704 50.5115C54.9954 49.9854 54.4469 49.4042 53.8922 48.8435C53.0419 47.983 53.0929 47.2774 54.0696 46.58C58.0256 43.7552 61.9828 40.9343 65.9415 38.1176C66.5838 37.6609 67.2139 37.1817 67.8705 36.7473C68.8248 36.1152 69.822 36.5923 69.8933 37.7322C70.1176 41.2334 70.3134 44.7346 70.5051 48.2358C70.6261 50.3157 70.7416 52.397 70.8517 54.4796C70.917 55.7235 70.5132 56.1395 69.2673 56.1436H67.6625Z" fill="#4098F9"/>
<path d="M41.9507 24.2493C42.8765 24.4023 43.6208 24.8488 44.0735 25.6767C44.2642 26.0166 44.3705 26.3974 44.3835 26.7869C44.3965 27.1765 44.3158 27.5634 44.1482 27.9153C43.9805 28.2672 43.7308 28.5737 43.4201 28.809C43.1094 29.0443 42.7468 29.2016 42.3626 29.2676C41.496 29.4267 41.184 29.8182 40.9862 30.6298C40.5376 32.465 39.6526 34.0698 38.164 35.2872C38.1318 35.3066 38.1043 35.333 38.0835 35.3643C38.0627 35.3956 38.049 35.4312 38.0436 35.4684C38.0381 35.5057 38.0409 35.5436 38.0519 35.5796C38.0629 35.6156 38.0817 35.6488 38.107 35.6766C36.9898 36.5579 35.6316 37.0796 34.2117 37.1728C32.7918 37.266 31.3771 36.9264 30.1543 36.1987C29.9219 36.0559 29.6527 35.9438 29.5426 35.6644C29.2734 35.0425 28.6311 34.7672 28.2416 34.237C27.3295 33.0247 26.6795 31.6358 26.333 30.1587C26.231 29.702 26.0536 29.4756 25.5031 29.4083C24.3734 29.2676 23.5271 28.6457 23.2131 27.4854C22.9134 26.3741 23.3558 25.5258 24.1837 24.8019C24.5916 24.4431 25.1014 24.4084 25.5806 24.2697C25.6621 24.2697 25.6845 24.4961 25.7233 24.386C26.0445 23.4955 26.6436 22.732 27.4321 22.2082C28.1152 21.7269 28.8595 21.4965 29.6751 21.731C31.2432 22.1817 32.4953 21.7412 33.5719 20.5361C34.9687 18.9721 36.5144 19.0475 38.1192 19.9488C39.881 20.9398 41.1779 22.355 41.8141 24.3146C41.859 24.5001 41.8773 24.2126 41.9507 24.2493Z" fill="#CBDCE6"/>
<path d="M42.5341 37.4243C46.4085 39.5736 48.4884 42.8382 48.6169 47.2876C48.6515 48.5111 48.5985 49.7346 48.6312 50.9581C48.6536 51.7411 48.3233 52.2346 47.6422 52.5996C44.3245 54.3858 40.7601 55.3238 37.0387 55.7235C36.4616 55.7888 36.6308 55.4095 36.7246 55.1444C36.9119 54.6446 37.1453 54.1633 37.422 53.7068C37.8466 52.9759 37.9681 52.1078 37.7605 51.2884C37.1325 48.2807 36.537 45.2648 35.9437 42.2489C35.8702 41.8819 35.7234 41.5128 35.8621 41.1274C36.1618 40.7461 36.5126 40.9581 36.8307 41.0703C37.5872 41.3395 38.1928 41.8533 38.8148 42.3386C39.6304 42.9789 40.0382 42.9218 40.5786 42.0144C41.2594 40.8805 41.7699 39.6528 42.0937 38.3705C42.1773 38.0238 42.1936 37.6466 42.5341 37.4243Z" fill="#044387"/>
<path d="M20.9684 53.1357C18.6866 51.9123 18.9619 52.2834 18.9639 49.7712C18.9639 47.9217 18.8191 46.0599 19.3595 44.2472C20.2893 41.1293 22.2755 38.8985 25.1017 37.363C25.4076 37.6771 25.4137 38.1032 25.5095 38.4886C25.839 39.7404 26.3443 40.9391 27.0103 42.049C27.514 42.9299 27.8994 42.9768 28.6906 42.3018C29.2887 41.749 29.988 41.3169 30.7501 41.0294C31.0764 40.9193 31.423 40.7419 31.7371 41.0763C31.8166 41.4372 31.7044 41.7798 31.6371 42.1265C31.0254 45.2096 30.4259 48.2948 29.7734 51.3678C29.5822 52.1087 29.6914 52.8951 30.0772 53.5558C30.3858 54.0782 30.6537 54.6236 30.8786 55.1871C31.0295 55.5684 31.0152 55.8661 30.4708 55.7051C28.0352 55.4422 25.6353 54.9157 23.3134 54.1349C22.4414 54.0759 21.615 53.7238 20.9684 53.1357V53.1357Z" fill="#044387"/>
<path d="M30.4564 55.7112C30.589 55.6276 31.0213 55.8315 30.7766 55.3809C30.7577 55.334 30.7359 55.2884 30.7113 55.2443C29.3349 53.4091 29.4001 51.4352 29.9548 49.288C30.6583 46.5739 31.0967 43.7823 31.6473 41.0376C31.8002 40.5686 32.2182 40.6481 32.5363 40.6808C33.3648 40.7776 34.2017 40.7776 35.0302 40.6808C35.3687 40.638 35.7582 40.6318 35.9437 41.0458C36.5432 44.078 37.0673 47.1285 37.7789 50.1362C38.1603 51.7676 38.1582 53.2174 37.1815 54.6101C37.021 54.869 36.8845 55.142 36.7736 55.4258C36.637 55.7235 36.898 55.6745 37.0489 55.7174C36.8583 55.7795 36.6851 55.8857 36.5434 56.0274C36.4016 56.1692 36.2954 56.3424 36.2333 56.533C35.9335 57.261 35.4176 57.6321 34.5755 57.5526C33.9957 57.4965 33.4118 57.4965 32.832 57.5526C32.1122 57.6178 31.6758 57.3038 31.4168 56.6737C31.2211 56.2067 31.0009 55.7969 30.4564 55.7112Z" fill="#CBDCE6"/>
<path d="M41.9503 24.2494C41.9299 24.4227 41.9096 24.596 41.8728 24.9039C41.1775 22.8648 40.0132 21.3497 38.2983 20.271C36.8709 19.3779 35.0968 18.9639 33.6082 20.7604C32.6967 21.8595 31.5283 22.2959 30.0724 21.9941C28.227 21.6087 26.8424 22.3856 25.9758 24.1841C25.8677 24.4084 25.7718 24.6389 25.6311 24.9366C25.6087 24.6552 25.5944 24.4574 25.5781 24.2596C25.6944 22.612 25.4639 20.9521 25.6944 19.3106C25.8664 18.0098 26.5063 16.8163 27.4944 15.9531C28.4826 15.0899 29.7513 14.6162 31.0634 14.6206C32.8728 14.6056 34.6815 14.6056 36.4895 14.6206C37.2034 14.6187 37.9106 14.7577 38.5707 15.0295C39.2308 15.3013 39.8308 15.7007 40.3363 16.2047C40.8419 16.7087 41.243 17.3075 41.5168 17.9668C41.7906 18.6261 41.9317 19.3329 41.932 20.0467C41.9381 21.4537 41.9422 22.8505 41.9503 24.2494Z" fill="#4098F9"/>
<path d="M35.9429 41.0458C35.9001 41.0214 35.8552 40.9745 35.8124 40.9745C34.4238 40.9745 33.0331 40.8562 31.6465 41.0377C30.4903 41.107 29.6073 41.7432 28.7917 42.4753C27.9352 43.2461 27.4295 43.2257 26.8708 42.2367C26.0123 40.7155 25.2721 39.1372 25.0947 37.3632C26.4691 36.5291 27.9781 36.0438 29.5278 35.6646C29.8296 35.6646 30.0315 35.8868 30.2701 36.0214C32.5559 37.3061 34.8357 37.3917 37.1236 36.0214C37.4172 35.846 37.7129 35.6136 38.1003 35.6768C39.6306 36.1101 41.1137 36.6955 42.5273 37.4243C42.1195 39.1596 41.573 40.8419 40.5758 42.3427C40.0212 43.1767 39.5563 43.2053 38.7692 42.5629C37.9352 41.8758 37.1113 41.1335 35.9429 41.0458Z" fill="#043C7B"/>
<path d="M9.81994 67.1507C9.81994 69.7241 7.52998 72.0243 4.94232 71.9998C2.21395 71.9733 0.0300282 69.7119 0.0361456 67.1059C0.0361456 64.5325 2.32814 62.2303 4.91581 62.2568C6.21011 62.2716 7.44739 62.7916 8.36362 63.7059C9.27984 64.6203 9.80246 65.8565 9.81994 67.1507V67.1507Z" fill="#CBDCE6"/>
<path d="M67.33 13.7214C68.6758 13.7214 70.4438 15.6015 70.8128 17.0615C71.549 19.9734 69.5078 22.8608 66.392 23.1789C65.5522 23.2474 64.7105 23.0703 63.9695 22.6692C63.5515 22.4652 63.1926 22.3878 62.746 22.6284C62.2118 22.92 61.7469 22.6814 61.3982 22.2634C61.227 22.0724 61.1282 21.8274 61.1189 21.5711C61.1096 21.3148 61.1904 21.0634 61.3472 20.8604C61.4591 20.7307 61.5294 20.5704 61.5491 20.4002C61.5687 20.2301 61.5367 20.0579 61.4573 19.9061C60.5744 17.5754 61.8855 14.7165 64.2203 13.8336C64.4144 13.7807 64.6131 13.7465 64.8137 13.7316C65.1175 13.9763 65.0523 14.3271 65.0605 14.6472C65.0808 15.4058 65.038 16.1664 65.0829 16.9249C65.1257 17.6427 65.5029 18.0546 66.0657 18.0546C66.6285 18.0546 67.0078 17.6468 67.0507 16.9249C67.0955 16.1664 67.0506 15.4058 67.071 14.6472C67.0894 14.3169 67.0262 13.9661 67.33 13.7214Z" fill="#CBDCE6"/>
<path d="M64.8827 9.16179C62.9252 8.18709 60.9676 7.2117 59.01 6.23563C58.6756 6.06842 58.2657 5.93792 58.2922 5.4526C58.3167 5.02031 58.7001 4.9 59.01 4.74299C60.9649 3.7642 62.9224 2.78949 64.8827 1.81887C65.5169 1.28461 66.0817 1.45182 66.2591 2.22669C66.3148 2.55115 66.334 2.88083 66.3162 3.20956C66.3162 4.77833 66.3162 6.34643 66.3162 7.91384C66.3337 8.21758 66.309 8.52227 66.2428 8.81922C66.043 9.54107 65.4904 9.67565 64.8827 9.16179Z" fill="#CBDCE6"/>
<path d="M64.8825 9.16184C65.7756 9.51869 66.0713 9.34128 66.0733 8.42163C66.0815 6.46542 66.0815 4.51057 66.0733 2.55708C66.0733 1.63743 65.7756 1.46002 64.8825 1.81891C64.8605 1.59124 64.8536 1.36235 64.8621 1.13376C64.8848 0.825071 65.0236 0.536454 65.2506 0.32607C65.4777 0.115685 65.776 -0.00082888 66.0855 4.43929e-06C66.3943 0.00240554 66.6907 0.121432 66.9153 0.333214C67.14 0.544996 67.2762 0.833875 67.2968 1.14192C67.309 1.37014 67.309 1.59885 67.2968 1.82707L67.3274 13.7213C67.3172 14.7837 67.3131 15.8461 67.2947 16.9085C67.2805 17.769 66.7687 18.3359 66.0366 18.3033C65.3046 18.2707 64.8661 17.7425 64.8519 16.9085C64.8356 15.8461 64.8315 14.7837 64.8213 13.7213L64.8825 9.16184Z" fill="#044388"/>
<path d="M9.51151 62.5301C9.39936 62.0469 9.75007 61.739 10.1069 61.4453C10.5922 61.0375 11.0898 60.6582 11.5833 60.2647C12.3296 59.6713 13.0678 59.6692 13.5347 60.2647C14.0017 60.8601 13.8487 61.6696 13.0861 62.2202C12.4356 62.6933 11.8993 63.3254 11.1428 63.6476C10.3312 63.9942 9.52375 63.4702 9.51151 62.5301Z" fill="#CBDCE6"/>
<path d="M59.6564 24.5348C59.6727 24.8468 59.6564 25.1159 59.4239 25.328C58.6878 25.9805 57.9823 26.6697 57.1034 27.1387C56.4916 27.4691 55.9554 27.3141 55.5842 26.7615C55.4931 26.6453 55.4258 26.5123 55.3861 26.3701C55.3464 26.2279 55.3351 26.0792 55.3529 25.9326C55.3707 25.786 55.4172 25.6444 55.4898 25.5158C55.5624 25.3872 55.6596 25.2742 55.7759 25.1832C56.4407 24.6061 57.1564 24.0841 57.864 23.5519C58.0338 23.4149 58.2432 23.336 58.4612 23.3268C58.6792 23.3177 58.8945 23.3787 59.0752 23.5009C59.4606 23.7497 59.7461 24.0576 59.6564 24.5348Z" fill="#CBDCE6"/>
<path d="M48.1945 33.7456C48.2201 33.9018 48.2023 34.0621 48.143 34.2088C48.0836 34.3556 47.985 34.4831 47.858 34.5776C47.1586 35.122 46.4633 35.6706 45.7557 36.2089C45.1562 36.6636 44.6749 36.4128 44.2182 35.9438C44.1154 35.8558 44.0319 35.7475 43.9729 35.6257C43.914 35.5039 43.8809 35.3713 43.8757 35.236C43.8705 35.1008 43.8934 34.966 43.9429 34.8401C43.9923 34.7141 44.0673 34.5997 44.1631 34.5042C44.8337 33.7423 45.6287 33.0997 46.5142 32.6037C47.3177 32.1571 48.1884 32.7811 48.1945 33.7456Z" fill="#CBDCE6"/>
<path d="M49.7137 30.5686C49.7097 30.4488 49.7207 30.3289 49.7463 30.2118C49.9013 29.702 52.1423 27.9687 52.6745 27.9218C53.2067 27.8749 53.5737 28.1257 53.8286 28.607C53.9497 28.8024 53.9994 29.0336 53.9693 29.2615C53.9392 29.4893 53.8311 29.6998 53.6635 29.857C53.0113 30.5648 52.2672 31.1821 51.451 31.6922C50.6354 32.1938 49.7198 31.631 49.7137 30.5686Z" fill="#CBDCE6"/>
<path d="M19.4534 56.4087C19.4834 56.6393 19.446 56.8737 19.3458 57.0835C19.2456 57.2934 19.0868 57.4697 18.8886 57.5914C18.2768 57.9992 17.7528 58.5212 17.1553 58.9413C16.5578 59.3613 15.889 59.2696 15.4954 58.8189C15.0366 58.2949 15.057 57.677 15.6422 57.1366C16.2703 56.5514 16.9412 56.011 17.6243 55.489C17.808 55.3495 18.0301 55.2698 18.2606 55.2606C18.4911 55.2515 18.7189 55.3135 18.913 55.438C19.2923 55.6521 19.5227 55.9703 19.4534 56.4087Z" fill="#CBDCE6"/>
<path d="M20.9678 53.1357L23.2985 54.141C22.3095 54.8017 21.8038 54.7956 21.2288 54.1941C20.9209 53.8759 21.0024 53.5007 20.9678 53.1357Z" fill="#C9DAE5"/>
</svg>
