<svg width="45" height="43" viewBox="0 0 45 43" fill="none" xmlns="http://www.w3.org/2000/svg">
<path d="M36.303 30.0989C36.303 33.723 36.3076 37.347 36.3169 40.9711C36.0641 41.2125 35.7543 41.1367 35.4636 41.1367C29.8724 41.1417 24.2804 41.1417 18.6876 41.1367C17.238 41.1367 15.7888 41.1367 14.34 41.1367C14.0872 41.1367 13.8343 41.167 13.6055 41.0191C13.4974 40.8806 13.4463 40.7061 13.4627 40.5311C13.4525 39.5855 13.4525 38.6399 13.4627 37.6943C13.4532 37.6077 13.4612 37.5202 13.4862 37.4368C13.5112 37.3535 13.5526 37.2759 13.608 37.2088C13.608 32.5001 13.608 27.7909 13.608 23.0814C13.608 22.2938 13.8331 22.07 14.608 22.07H29.494C29.714 22.07 29.9339 22.0624 30.1552 22.0574C30.2374 22.204 30.1248 22.2963 30.0515 22.3886C29.7873 22.716 29.7987 23.0207 30.03 23.3785C30.9847 24.8818 32.1074 26.2717 33.3764 27.5212C34.1472 28.285 34.976 28.9879 35.8555 29.6236C36.0471 29.736 36.2024 29.9009 36.303 30.0989Z" fill="#CBDCE6"/>
<path d="M8.58963 11.0893C8.58963 7.90603 8.59258 4.72319 8.59848 1.54077C8.59848 0.73168 8.82983 0.499067 9.6326 0.497803H19.8891C20.6552 0.497803 20.9004 0.741806 20.9004 1.52182C20.9004 6.29629 20.9004 11.0707 20.9004 15.8452C20.9004 16.6593 20.6792 16.8831 19.8676 16.8831H11.0763C10.3987 17.117 9.70971 17.0677 9.03463 16.9147C8.68444 16.8351 8.49102 16.5215 8.47838 16.165C8.42781 14.5898 8.45057 13.0147 8.46574 11.4382C8.46536 11.3111 8.50915 11.1877 8.58963 11.0893Z" fill="#4098F9"/>
<path d="M30.1681 21.968C29.536 20.8833 29.536 20.8833 30.421 19.9806C30.8508 19.5419 31.2654 19.0856 31.718 18.6709C31.9848 18.4269 31.9987 18.2133 31.8697 17.8922C31.4209 16.786 31.0025 15.6659 30.5765 14.5509C30.4981 14.3461 30.3982 14.1362 30.6055 13.9416C30.7939 13.7646 30.9848 13.8594 31.1757 13.9416C34.1668 15.1358 37.1587 16.3288 40.1515 17.5205C40.2754 17.5655 40.3872 17.6384 40.4784 17.7335C40.5696 17.8287 40.6377 17.9435 40.6774 18.0692C41.784 20.9768 42.8961 23.8845 44.0137 26.7922C44.0996 27.0184 44.2766 27.2586 44.0288 27.4875C43.781 27.7163 43.5548 27.5317 43.3247 27.4546C43.1603 27.4002 43.001 27.3282 42.8405 27.27C42.8152 27.2511 42.7798 27.227 42.7811 27.2005C42.8 26.4533 42.2981 25.9654 41.8961 25.4306C40.8076 23.9831 39.7267 22.523 38.6357 21.0843C38.537 20.9417 38.4234 20.8099 38.2969 20.6911C38.1983 20.6051 38.0858 20.528 37.9619 20.6342C37.9151 20.6782 37.8859 20.7377 37.8796 20.8016C37.8733 20.8656 37.8905 20.9296 37.9278 20.9819C38.0134 21.1322 38.1119 21.2747 38.2223 21.4079C39.4486 23.0514 40.6863 24.6797 41.9024 26.3282C42.0289 26.4925 42.3108 26.6771 41.9833 26.9224C41.4157 26.6986 40.8152 26.2448 40.2868 26.3155C39.7584 26.3863 39.4018 27.1006 38.9644 27.5241C38.6484 27.8313 38.3488 28.1562 38.0378 28.466C37.5953 28.9084 37.3147 28.9337 36.7913 28.5924C36.6345 28.49 36.4714 28.3977 36.3109 28.3016C35.9089 28.2169 35.6269 27.9224 35.3261 27.686C33.4795 26.2474 31.8529 24.5468 30.4981 22.638C30.3392 22.4422 30.2265 22.2132 30.1681 21.968Z" fill="#044387"/>
<path d="M8.58974 11.0894C8.58974 12.6907 8.59268 14.2966 8.59858 15.9072C8.59858 16.6253 8.84005 16.8642 9.55938 16.8693L11.0701 16.8819C11.065 19.0092 11.0608 21.1372 11.0575 23.2662C11.0575 24.0247 10.8236 24.2636 10.0802 24.2649C7.44816 24.2649 4.81567 24.2649 2.18276 24.2649C1.46469 24.2649 1.2207 24.012 1.2207 23.299C1.2207 19.5468 1.2207 15.7964 1.2207 12.0476C1.2207 11.3662 1.48366 11.1007 2.15874 11.0994C4.30283 11.0927 6.44649 11.0894 8.58974 11.0894Z" fill="#044387"/>
<path d="M13.6155 40.9814H36.1764C36.2232 40.9814 36.2712 40.9725 36.318 40.9687C37.7832 40.9687 39.2484 40.9687 40.7149 40.9864C41.3963 40.9864 41.7819 41.5338 41.5075 42.0774C41.4513 42.2 41.3615 42.3042 41.2485 42.3778C41.1355 42.4515 41.004 42.4915 40.8691 42.4934C40.6959 42.5022 40.5227 42.4934 40.3483 42.4934C27.3118 42.4934 14.2758 42.4934 1.24018 42.4934C1.06572 42.4934 0.892526 42.5035 0.71933 42.4934C0.528686 42.4836 0.348745 42.4023 0.215411 42.2656C0.0820776 42.129 0.00515734 41.9471 0 41.7563C0.00194667 41.5662 0.0741837 41.3835 0.202795 41.2435C0.331407 41.1034 0.507294 41.0159 0.696575 40.9978C0.838321 40.987 0.980572 40.9845 1.12261 40.9902C4.43229 40.9902 7.74239 40.9902 11.0529 40.9902C11.2185 40.9902 11.4006 41.056 11.5497 40.922C12.2425 40.8234 12.934 40.7349 13.6155 40.9814Z" fill="#4098F9"/>
<path d="M41.987 26.9172C42.2272 26.691 41.9453 26.5784 41.8606 26.4634C40.5761 24.7302 39.2778 23.0058 37.9833 21.2802C37.9014 21.1849 37.8282 21.0825 37.7646 20.9742C37.7372 20.9341 37.7184 20.8888 37.7093 20.8411C37.7003 20.7933 37.7012 20.7443 37.712 20.6969C37.7228 20.6496 37.7432 20.6049 37.7721 20.5659C37.8009 20.5268 37.8375 20.4941 37.8796 20.4698C37.9492 20.4155 38.0375 20.3909 38.1252 20.4016C38.2129 20.4123 38.2928 20.4573 38.3473 20.5267C38.4413 20.6327 38.5295 20.7437 38.6116 20.8592C39.8606 22.5216 41.0957 24.1942 42.3662 25.8389C42.7025 26.275 42.9174 26.7049 42.8403 27.2573C42.8403 27.9311 42.8403 28.6062 42.8403 29.28C42.8272 29.3795 42.8459 29.4806 42.8938 29.5687C42.9418 29.6569 43.0164 29.7275 43.1071 29.7706C44.1096 30.3243 44.3295 31.1498 43.7746 32.1725C43.7333 32.2717 43.7032 32.3752 43.6848 32.481C42.9263 33.1662 42.0022 33.1662 41.2474 32.481C41.1602 32.2813 41.0755 32.0803 40.9832 31.8818C40.6469 31.1612 40.9352 30.2029 41.6494 29.8666C42.0161 29.6947 42.1096 29.4722 42.0932 29.1018C42.0666 28.538 42.0856 27.9728 42.0869 27.409C42.0843 27.2346 42.097 27.0614 41.987 26.9172Z" fill="#CBDCE6"/>
<path d="M43.7945 32.8411C44.1867 33.5909 44.5173 34.3714 44.7831 35.1748C45.0132 35.8486 44.5568 36.755 43.8691 36.9927C42.9424 37.3125 41.9892 37.3644 41.0739 36.9295C40.1586 36.4946 39.8805 35.7348 40.2585 34.8195C40.5316 34.1533 40.84 33.5022 41.1321 32.8448C41.7313 33.4188 42.3963 33.6919 43.2066 33.2949C43.4418 33.1824 43.5783 32.965 43.7945 32.8411Z" fill="#CBDCE6"/>
<path d="M13.614 40.9813C12.9263 40.9572 12.2335 41.066 11.5483 40.9155C11.0089 40.1107 10.4682 39.305 9.92632 38.4984C9.74048 38.2228 9.6482 37.9383 9.8176 37.6134C9.987 37.2885 10.2613 37.1963 10.5989 37.1975C11.6027 37.1975 12.6052 37.1975 13.6077 37.2051L13.614 40.9813Z" fill="#044387"/>
<path d="M30.1667 21.9678C31.8191 24.4266 33.9007 26.5678 36.312 28.2888C36.312 28.8905 36.3087 29.4923 36.3019 30.094C33.6961 28.2787 31.4888 25.95 29.8153 23.2509C29.613 22.9323 29.718 22.6542 29.8987 22.3799C29.9746 22.2636 30.0694 22.1587 30.1516 22.0487C30.1527 22.0211 30.1578 21.9939 30.1667 21.9678Z" fill="#B7C6CF"/>
<path d="M43.7952 32.8409C43.555 33.4503 43.0114 33.5893 42.4653 33.5906C41.9191 33.5918 41.373 33.4553 41.1328 32.8447C41.1707 32.7183 41.2087 32.6007 41.2453 32.4793C41.6612 32.5489 41.9798 32.8586 42.44 32.87C42.9229 32.8788 43.2541 32.5539 43.6827 32.4768C43.7206 32.5982 43.7573 32.7195 43.7952 32.8409Z" fill="#B8C7D0"/>
<path d="M24.9486 28.1343C25.027 28.1343 25.1067 28.1343 25.185 28.1343C25.5643 28.1532 25.8171 28.1621 25.7489 28.7323C25.5732 30.1229 26.8993 31.3466 28.2861 31.1165C28.6085 31.0622 28.6376 31.1507 28.6818 31.4162C29.0257 33.4629 27.6035 35.3352 25.4922 35.607C23.0903 35.9117 21.194 34.2733 21.1788 31.8814C21.1649 29.8561 22.8956 28.1343 24.9486 28.1343Z" fill="#4098F9"/>
<path d="M13.6784 5.03897C13.0956 5.03897 12.5129 5.03897 11.9301 5.03897C11.4181 5.03139 11.0767 4.72799 11.0704 4.29058C11.0641 3.85316 11.4092 3.53206 11.9136 3.53206C13.1104 3.52447 14.308 3.52447 15.5065 3.53206C16.0122 3.53206 16.351 3.86455 16.3409 4.30197C16.3307 4.73938 15.9995 5.03139 15.5216 5.04024C14.9072 5.04656 14.2928 5.03897 13.6784 5.03897Z" fill="#FEFEFE"/>
<path d="M13.7063 7.30921C14.3043 7.30921 14.9035 7.30288 15.5027 7.30921C16.0084 7.30921 16.3497 7.63917 16.3409 8.07532C16.332 8.51147 16.0021 8.81363 15.5255 8.81742C14.3118 8.82669 13.0986 8.82669 11.8858 8.81742C11.4105 8.81742 11.078 8.49503 11.0704 8.07532C11.0629 7.6556 11.4067 7.31679 11.9099 7.30921C12.5091 7.30288 13.1071 7.30921 13.7063 7.30921Z" fill="#FEFEFE"/>
<path d="M5.86015 15.6339C5.35447 15.6339 4.84879 15.6402 4.34311 15.6339C3.83743 15.6276 3.49609 15.3153 3.49609 14.8754C3.49609 14.4355 3.83743 14.1245 4.34437 14.1169C5.36669 14.1101 6.38901 14.1101 7.41133 14.1169C7.92965 14.1169 8.25076 14.4215 8.24949 14.8754C8.24823 15.3292 7.92965 15.6213 7.41133 15.6339C6.893 15.6466 6.37974 15.6339 5.86015 15.6339Z" fill="#FEFEFE"/>
<path d="M5.8696 18.6605C5.36392 18.6605 4.85824 18.6605 4.36014 18.6605C3.86205 18.6605 3.50934 18.3508 3.50302 17.9134C3.49669 17.476 3.83929 17.1549 4.34245 17.1549C5.36561 17.1473 6.38792 17.1473 7.4094 17.1549C7.93025 17.1549 8.25135 17.4519 8.25641 17.9007C8.26147 18.3495 7.94289 18.6592 7.4271 18.6592C6.9113 18.6592 6.38919 18.6605 5.8696 18.6605Z" fill="#FEFEFE"/>
</svg>
