<?xml version="1.0" encoding="utf-8"?>
<!-- Generator: Adobe Illustrator 25.4.1, SVG Export Plug-In . SVG Version: 6.00 Build 0)  -->
<svg version="1.1" id="Layer_1" xmlns="http://www.w3.org/2000/svg" xmlns:xlink="http://www.w3.org/1999/xlink" x="0px" y="0px"
	 viewBox="0 0 395 395" style="enable-background:new 0 0 395 395;" xml:space="preserve">
<style type="text/css">
	.st0{clip-path:url(#SVGID_00000077301252586384153870000016141980962760285584_);}
	.st1{fill:#FFFFFF;}
	.st2{fill:#FF8353;}
	.st3{fill:#00BB78;}
	.st4{fill:#282E3E;}
	.st5{fill:#F9F5F2;}
	.st6{fill:#111217;}
</style>
<g>
	<defs>
		<rect id="SVGID_1_" width="395" height="395"/>
	</defs>
	<clipPath id="SVGID_00000161627921568168293300000007996265904332614033_">
		<use xlink:href="#SVGID_1_"  style="overflow:visible;"/>
	</clipPath>
	<g style="clip-path:url(#SVGID_00000161627921568168293300000007996265904332614033_);">
		<path class="st1" d="M130.8,60.3h71.6v143.1h-71.6c-19,0-37.2-7.5-50.6-21c-13.4-13.4-21-31.6-21-50.6c0-19,7.5-37.2,21-50.6
			C93.6,67.9,111.8,60.3,130.8,60.3z M201.1,61.6h-70.3c-18.6,0-36.5,7.4-49.7,20.6s-20.6,31-20.6,49.7c0,18.6,7.4,36.5,20.6,49.7
			c13.2,13.2,31.1,20.6,49.7,20.6h70.3L201.1,61.6z"/>
		<path class="st2" d="M239.6,395H395V293.1H239.6V395z"/>
		<path class="st3" d="M203.5,308.1c-19.9,19.9-19.9,52.1,0,72c19.9,19.9,52.2,19.9,72.1,0c19.9-19.9,19.9-52.1,0-72
			C255.7,288.2,223.4,288.2,203.5,308.1z"/>
		<path class="st4" d="M0,0l395,0v394.8c-32.9-32.9-3.3-62.5-36.2-95.4c-32.9-33-62.5-3.3-95.5-36.2c-33-32.9-3.3-62.5-36.2-95.4
			s-62.5-3.3-95.5-36.2c-33-32.9-3.3-62.5-36.2-95.4C62.4,3.1,32.9,32.9,0,0z"/>
		<path class="st3" d="M324.1,141.8c-18.8,0-36.9-7.5-50.2-20.8c-13.3-13.3-20.8-31.3-20.8-50.1V0L395,0v70.9
			c0,18.8-7.5,36.8-20.8,50.1C360.9,134.4,342.9,141.8,324.1,141.8z"/>
		<path class="st2" d="M295.2,0c0,13.2,5.3,25.9,14.6,35.3c9.4,9.3,22,14.6,35.3,14.6H395V0L295.2,0z"/>
		<path class="st5" d="M212.2,347.3h19.1l-13.5,13.5l3.3,3.3l13.5-13.5v19h4.7v-19l13.5,13.5l3.3-3.3l-13.5-13.5h19.1v-4.7h-19.1
			l13.5-13.5l-3.3-3.3l-13.5,13.5v-19.1h-4.7v19.1l-13.5-13.5l-3.3,3.3l13.5,13.5h-19.1V347.3z"/>
		<path class="st2" d="M130.8,97h34.8v69.7h-34.8c-9.3,0-18.1-3.7-24.7-10.2c-6.5-6.5-10.2-15.4-10.2-24.7c0-9.2,3.7-18.1,10.2-24.7
			C112.7,100.7,121.6,97,130.8,97z"/>
		<path class="st5" d="M337.5,64.6l8.2,8.2l-14.4,14.4l14.4,14.4l-8.2,8.2l-14.4-14.4l-14.4,14.4l-8.2-8.2l14.4-14.4l-14.4-14.4
			l8.2-8.2L323.1,79L337.5,64.6z M323.1,80.8l-14.4-14.4l-6.4,6.4l14.4,14.4l-14.4,14.4l6.4,6.4l14.4-14.4l14.4,14.4l6.4-6.4
			l-14.4-14.4l14.4-14.4l-6.4-6.4L323.1,80.8z"/>
		<path class="st5" d="M204.1,61.1h11.7v20.3H236V93h-20.3v20.3h-11.7V93h-20.3V81.4h20.3V61.1z M214.4,62.4h-9v20.3h-20.3v9l20.3,0
			V112h9V91.7h20.3v-9h-20.3L214.4,62.4z"/>
		<path class="st5" d="M395,250c-5.2,0-10.3-1-15.1-3c-4.8-2-9.1-4.9-12.8-8.6c-3.7-3.7-6.6-8-8.6-12.8c-2-4.8-3-9.9-3-15.1
			c0-10.5,4.2-20.5,11.6-27.9c7.4-7.4,17.4-11.6,27.9-11.6V250z"/>
		<path class="st2" d="M317.1,234.7c-6.2-0.3-12.1-3-16.4-7.5c-4.3-4.5-6.7-10.5-6.7-16.7s2.4-12.2,6.7-16.7
			c4.3-4.5,10.2-7.2,16.4-7.5V234.7z"/>
		<path class="st3" d="M182.7,0c0.1,3.8-0.6,7.6-2,11.1c-1.4,3.5-3.5,6.7-6.1,9.5c-2.7,2.7-5.8,4.9-9.3,6.3
			c-3.5,1.5-7.3,2.2-11.1,2.2s-7.6-0.8-11.1-2.2c-3.5-1.5-6.7-3.6-9.3-6.3c-2.7-2.7-4.7-5.9-6.1-9.5c-1.4-3.5-2.1-7.3-2-11.1
			L182.7,0z"/>
		<path class="st6" d="M335,329c-8.3,0-15.1,6.8-15.1,15.1c0,8.3,6.8,15.1,15.1,15.1c8.3,0,15.1-6.8,15.1-15.1
			C350.1,335.7,343.3,329,335,329z"/>
		<path class="st1" d="M151.9,328.3c3.1,0,6.1,0.9,8.7,2.6c2.6,1.7,4.6,4.2,5.8,7c1.2,2.9,1.5,6,0.9,9.1c-0.6,3-2.1,5.8-4.3,8
			c-2.2,2.2-5,3.7-8,4.3c-3,0.6-6.2,0.3-9.1-0.9c-2.9-1.2-5.3-3.2-7-5.8c-1.7-2.6-2.6-5.6-2.6-8.7c0-4.2,1.7-8.1,4.6-11.1
			C143.7,330,147.7,328.3,151.9,328.3z M151.9,358.5c2.8,0,5.6-0.8,8-2.4c2.4-1.6,4.2-3.8,5.3-6.5c1.1-2.6,1.4-5.5,0.8-8.3
			c-0.6-2.8-1.9-5.4-3.9-7.4c-2-2-4.6-3.4-7.4-3.9c-2.8-0.6-5.7-0.3-8.3,0.8c-2.6,1.1-4.9,2.9-6.5,5.3c-1.6,2.4-2.4,5.1-2.4,8
			c0,3.8,1.5,7.5,4.2,10.1C144.4,357,148.1,358.5,151.9,358.5z"/>
	</g>
</g>
</svg>
