<svg xmlns="http://www.w3.org/2000/svg" viewBox="0 0 539.57 361.14"><g id="Layer_2" data-name="Layer 2"><g id="Layer_1-2" data-name="Layer 1"><rect width="539.57" height="361.14" fill="none"/><g opacity="0.45"><path d="M323.34,359.19q-50.54-48.82-101-97.86c-1.27-1.11-2.24-3.12-4.18-3.06a10.51,10.51,0,0,0-2.29,2c-6.55,7-13.35,13.83-20,20.74-1,1-2.84,2.66-1.2,4q38.61,37.47,77.22,75h4.25q-39.3-38.14-78.66-76.23c7-7.25,14-14.46,21-21.73q2.85,2.77,5.75,5.52c-1.53,2-3.25,3.92-4.78,6-.73,1.08.72,2.88,1.9,1.91a61.89,61.89,0,0,0,4.93-5.8c1.61,1.57,3.26,3.11,4.91,4.64-1.64,1.81-3.54,3.48-4.78,5.62,0,1,1,1.42,1.72,1.88,1.78-1.79,3.42-3.67,5.11-5.53,1.81,1.76,3.56,3.58,5.38,5.36-1.51,1.75-4,3.07-4.37,5.5a1.46,1.46,0,0,0,.48.76,1.54,1.54,0,0,0,.82.34,1.45,1.45,0,0,0,.87-.19,1.47,1.47,0,0,0,.6-.66c1.21-1.32,2.38-2.65,3.6-3.93,1.71,1.58,3.29,3.25,4.9,4.92a40.13,40.13,0,0,0-4.07,4.89c-.61.95.88,2.11,1.79,1.69a35.75,35.75,0,0,0,4.39-4.65c1.83,1.65,3.63,3.36,5.33,5.16a31.24,31.24,0,0,0-3.74,4.38,1.39,1.39,0,0,0-.07.78,1.47,1.47,0,0,0,1,1.12,1.48,1.48,0,0,0,.78,0,35.82,35.82,0,0,0,4-4.36c1.63,1.61,3.31,3.19,5,4.77a41.89,41.89,0,0,0-3.63,3.9c-.64,1,.62,2,1.6,1.87a30,30,0,0,0,4-3.73c1.8,1.67,3.58,3.31,5.33,5a47.5,47.5,0,0,0-4.27,4.81c-1.31.87.76,3.21,1.78,2,1.61-1.5,3-3.21,4.53-4.76,1.78,1.82,3.61,3.62,5.44,5.39a44.39,44.39,0,0,0-3.89,4.56c-.74,1,.89,2.52,1.85,1.76,1.55-1.3,2.7-3,4.18-4.4,1.84,1.88,3.69,3.73,5.65,5.49-1.09,1.64-5.36,4.73-1.88,6.14,1.67-1.05,2.74-2.75,4.06-4.17,1.9,1.92,3.8,3.84,5.66,5.82-1.08,1.68-4.49,3.14-3.09,5.45,2.43.65,3.55-2.27,5.09-3.59,1.77,1.58,3.45,3.25,5.12,4.94a43.38,43.38,0,0,0-3.93,3.86,1.3,1.3,0,0,0-.06.78,1.35,1.35,0,0,0,.38.68,1.34,1.34,0,0,0,.69.37,1.39,1.39,0,0,0,.78-.07c1.51-1.09,2.81-2.43,4.22-3.64,1.88,1.7,3.72,3.44,5.5,5.24a24.75,24.75,0,0,0-3.84,3.31c-1.12.88.95,3,1.8,1.86,1.4-1,2.7-2.1,4-3.16,2.12,2.09,4.34,4.12,6.45,6.24a57.31,57.31,0,0,0-4.69,4.92,1.46,1.46,0,0,0-.22.78,1.53,1.53,0,0,0,0,.3,1.63,1.63,0,0,0,.2.47,1.42,1.42,0,0,0,.61.53,1.38,1.38,0,0,0,.8.12,14.31,14.31,0,0,0,1.35-1.12c1.36-1.25,2.55-2.71,3.84-4,1.48,1.29,2.92,2.63,4.29,4h4.5Z" fill="#ff8353"/><path d="M494.34,165.77c-7,.19-14,.17-21,.81a39.86,39.86,0,0,0-10.05,4c-11.07,6.18-21.6,13.3-32.06,20.47-7.47,6-15.54,11.23-22.41,17.92-1,1.94-1.22,4.17-2.44,6-4.09,7-6.16,14.93-8.42,22.64-.51,2.28-1.41,5,.29,7,1.22,1.82,3.5,2.08,5.49,2.43q6.76,1.27,13.46,2.94a20.2,20.2,0,0,0,10.57-4C444.37,234,461.36,222.38,478,210.34c2.06-1.62,4.63-2.51,6.55-4.32,7.07-9.85,9.94-21.91,12.62-33.58C497.72,170,497.48,166.14,494.34,165.77ZM468,171.54c1.94-.83,3.88-1.84,6-1.95,5.08-.26,10.16-.9,15.24-.67-3.82,1.73-7,4.53-10.53,6.74-6.71,4.22-13.13,8.88-19.81,13.13-4.06-1.12-7.88-3.1-11.71-4.88C454.1,179.76,460.69,175.05,468,171.54Zm-23.39,14.38a101.45,101.45,0,0,0,11.2,4.93c-9.44,6.37-18.88,12.83-28.49,18.94-4.62-.37-9.25-.67-13.88-.8A278.82,278.82,0,0,1,444.58,185.92Zm-32,60.08c-2.94-.69-5.87-1.43-8.85-1.94-1.26-.25-2.8-.49-3.34-1.85-.08-2.32.84-4.51,1.39-6.73,2.33-8.14,4.8-16.49,9.83-23.41,4.37-.29,8.74.26,13.1.34-4.33,8.2-7.41,17-10.36,25.73A29,29,0,0,0,412.56,246Zm12.65-2.09c-2.54,1.44-5.17,3.25-8.22,3.16-2.43-.54-.92-3.27-.63-4.84,3.06-9.68,6.12-19.48,11-28.45,7-5.19,14.51-9.6,21.62-14.63,2.61-1.88,5.32-3.57,8.05-5.29-1.37,4.82-3.39,9.43-5,14.19-2.55,7.63-6,15-8.1,22.72C437.68,235.11,431.54,239.57,425.21,243.91Zm67.61-65.82a90.63,90.63,0,0,1-9.45,24.44c-1.66,2.59-4.82,3.49-7.19,5.3-9.34,6.62-18.57,13.38-28,20,4.16-12.18,9.09-24.13,12.57-36.52C472.08,184,483.07,176.19,494.4,169,494.86,172.12,493.47,175.09,492.82,178.09Z" fill="#ff8353"/><path d="M481.23,301c-8.8-7.9-17.26-16.19-26.26-23.88-4.89.61-9.78-.72-14.67-.53-3.92,3.31-7.3,7.18-10.9,10.82-17.85,18.63-35.84,37.14-53.6,55.78-1.48,1.07-.53,2.73.56,3.57L390.16,360h4.56l-16-15.38,61.32-63.75q41,39.6,82.15,79.13h4.54c-27.66-26.77-55.51-53.33-83.11-80.16h0c3.55.24,7.1.58,10.66.76,27.91,25.49,55.63,51.14,83.5,76.71l.12.1a7.84,7.84,0,0,0,1.67-2.81Q510.38,327.73,481.23,301Z" fill="#ff8353"/><path d="M458.91,290.33c.58-1.53,2.44-.88,3.25.13,20.72,19.57,41.64,39,62.3,58.73,1.72,1.36-1,3.71-2.22,2.12-20.62-19.24-41.07-38.68-61.65-57.95C459.85,292.51,458.35,291.62,458.91,290.33Z" fill="#ff8353"/><path d="M471,331.8c-7.68-7.94-15.77-15.49-23.59-23.32-1-.83-1.9-2.14-3.33-2.14a17.27,17.27,0,0,0-3.12,2.86Q422.51,328,404.09,346.77c-1.14.86-.66,2.43.39,3.14,3.52,3.32,7,6.7,10.42,10.09h4.54c-4.07-3.95-8.14-7.92-12.07-12,12.33-12.68,24.77-25.25,37.12-37.91,7.79,7.62,15.49,15.35,23.39,22.86Q454.56,346.44,441.29,360h4.44q12.34-12.56,24.65-25.16C471.21,334.12,472.17,332.74,471,331.8Z" fill="#ff8353"/><path d="M442.22,321.27a15.46,15.46,0,0,1,3.13-2.8,1.5,1.5,0,0,1,1.7,2.35c-9.62,10-19.09,20.19-28.88,30-1.49,1-3.08-1.42-1.58-2.35Q429.37,334.84,442.22,321.27Z" fill="#ff8353"/><path d="M450.62,326.9a17.05,17.05,0,0,1,2.77-2.46,1.62,1.62,0,0,1,1.72,1,1.61,1.61,0,0,1,.08,1,1.65,1.65,0,0,1-.57.87c-9.08,9.36-19,18-27.48,27.89-.9,1-1.7,2.52-3.25,2.25-1.78-1.22-.09-2.84.82-4C432.78,344.08,441.81,335.59,450.62,326.9Z" fill="#ff8353"/><path d="M459.62,335.7c-7.66,8.11-15.66,16-23.15,24.3h-4c8.06-9.29,16.81-18,25.19-27,.72-1.06,2.43-2.18,3.38-.73C461.7,333.66,460.36,334.74,459.62,335.7Z" fill="#ff8353"/><path d="M385.61,124.59c-4-5.19-7.33-10.83-11.33-16a2.49,2.49,0,0,0-2.36-.88c-38.09,22.9-75.9,46.26-114,69.2-1.22.72-3.35,2.07-2.28,3.75,3.53,6.31,8,12,11.77,18.15.93,1.35,2,3.5,4,3,3.93-2.05,7.44-4.83,11.24-7.13a53.57,53.57,0,0,0,30.7,19.65,56.34,56.34,0,0,0,33.53-2.75,57.74,57.74,0,0,0,33.93-37.19,55.11,55.11,0,0,0-2.62-38.4c2.79-2.48,6.06-4.42,8.66-7.11C387.92,127.36,386.32,125.82,385.61,124.59Zm-11.36,8.78c-1.29.55-1.11,2.19-.45,3.13A50.3,50.3,0,0,1,378,168.79a53.22,53.22,0,0,1-24.53,34.83,52.18,52.18,0,0,1-43.12,5.59,49,49,0,0,1-24.7-17.39c-.81-.88-1.69-2.59-3.21-1.88-3.72,2.4-7.3,5-11.12,7.27q-5.75-8.34-11.1-17c1-.64,2-1.28,3-1.94,2.18,2.16,3.64,5.37,6.63,6.46l1.84-1.33c-.58-2.93-3.55-4.67-5.16-7.06,4.59-2.8,9.2-5.47,13.78-8.17,1.71,1.91,2.53,7,5.94,5.64,1.64-2.7-1.88-5.24-2.68-7.73,4.82-3,9.57-6,14.47-8.88a44,44,0,0,0,3.7,5.56,1.81,1.81,0,0,0,2.08.37,1.81,1.81,0,0,0,.82-.75,1.77,1.77,0,0,0,.23-1.08c-1.1-2.06-2.3-4.07-3.6-6,4.68-2.79,9.37-5.57,13.93-8.54,1.64,1.91,2.51,7,5.83,5.51,1.54-2.62-1.7-5-2.62-7.38,4.16-2.82,8.51-5.31,12.8-7.92,1.8,2,2.8,5.94,5.9,5.92,3.05-2.35-1.21-5.62-2.62-7.79,4.27-2.52,8.49-5,12.63-7.71,1.34,2,2.64,4.07,4,6.08h2.45c1.18-3.14-1.91-5.47-3.14-8,3.61-2.35,7.34-4.59,11.05-6.7a56.44,56.44,0,0,0,4.23,6.67c.87,1.27,3.38-.12,2.89-1.58-.75-2.58-2.67-4.64-4-7,2.52-1.5,5-3,7.5-4.52,3.44,5.06,6.91,10.07,10.33,15.1A86.66,86.66,0,0,1,374.25,133.37Z" fill="#ff8353"/><path d="M359,152.71c-.64-1.82-1.09-4.76-3.53-4.6-16.7,9.53-33.22,19.4-49.86,29-1.62.73-3.48,3-1.64,4.51,11.47,12.29,32.35,12.51,44.89,1.72C357.78,176.23,362.27,163.78,359,152.71Zm-13.09,27.81c-10.58,8.7-27.31,8.91-37.67-.3,15.71-8.77,31-18.23,46.67-27.07C358,163,354,174.22,345.93,180.52Z" fill="#ff8353"/></g><path d="M179.63,182.6c-9.76,3.69-19.35,7.88-29.08,11.73a8.87,8.87,0,0,0-4,2.4q-39.73,45.79-79.48,91.55c-2.88,3.5-6.06,6.78-8.56,10.59-1.37,2.37-.31,5.46,1.74,7.1a173.2,173.2,0,0,0,16,12.66c3,1.88,6.41,4.59,10.12,3.19,2.39-1.24,4-3.5,5.81-5.42,28.05-32.22,56.37-64.22,84.26-96.55,2.17-10.91,4.21-21.85,6.29-32.79C183.5,185.11,181.88,182.05,179.63,182.6Zm-31.38,17.53a14.84,14.84,0,0,0,10.29,10.94c-23.86,27.08-47.57,54.29-71.4,81.4-3.75-3-7.62-5.84-11.34-8.86Q112.09,241.93,148.25,200.13ZM87.45,316.48c-1,.94-2,2.38-3.63,2.19-2.42-.55-4.46-2.12-6.46-3.51-5.07-3.76-10.28-7.38-14.92-11.69-1-.81-1.8-2.44-.74-3.53,2.89-3.46,5.93-6.79,8.87-10.2,7.57,6.79,16.08,12.41,24.59,17.92C92.6,310.6,90.07,313.59,87.45,316.48Zm9.64-11.6c-8.37-5.56-16.89-11-24.51-17.54l1.18-1.23c7.78,6.24,15.61,12.34,23.74,18.17Zm3.12-3c-3.47-2.35-6.84-4.85-10.21-7.33q35.81-40.69,71.41-81.56c1.82,4,5.86,6.24,9.83,7.71Q135.66,261.25,100.21,301.87Zm73.16-84.19c-3.76-.77-8.49-2.89-8.84-7.25-.4-1,.26-2.83-1.14-3.13-2.2.27-4.65.84-6.64-.54-3.31-1.7-4.68-5.39-5.6-8.75,5-2.14,10.1-4.27,15.23-6.15a20,20,0,0,0,10.14,9.3C175.37,206.65,174.34,212.16,173.37,217.68Zm3.73-19.89a17,17,0,0,1-7.71-7.21c3.27-1.44,6.56-2.8,9.93-4.11C178.54,190.27,177.89,194,177.1,197.79Z" fill="#ff8353" opacity="0.45"/></g></g></svg>