<svg xmlns="http://www.w3.org/2000/svg" viewBox="0 0 497.28 335.33"><g id="Layer_2" data-name="Layer 2"><g id="Layer_2-2" data-name="Layer 2"><g opacity="0.45"><path d="M249.56,270.65c1.34.72,2.4,1.21,3.39,1.83a13.86,13.86,0,0,1,6.74,9.63c1.81,10.38-6,18.25-16.78,16.8a21.13,21.13,0,0,1-6.24-2.16,3.54,3.54,0,0,1-1.61-1.52,3.6,3.6,0,0,1-.41-2.18,2,2,0,0,1,1.07-1.33c.26-.13,1.13.32,1.24.67,1,3.37,3.94,3.62,6.68,3.81a16.73,16.73,0,0,0,5.36-.55c4.05-1.09,7.18-3.43,7.95-7.8.85-4.81-.18-9.13-4.31-12.24-3.25-2.45-7.06-3.36-11-3.8a9.93,9.93,0,0,1-2.21-.21,1.82,1.82,0,0,1-1-1.31c0-.45.65-1,1.14-1.17a20,20,0,0,1,2.21-.1,40.37,40.37,0,0,0,7.15-1.39c3.62-1.3,5.52-4.12,5.75-8,.27-5.21-2.56-8.78-7.73-9.58a12.18,12.18,0,0,0-14.07,11.37c-.12,2.24-.05,4.47-.05,6.71,0,8,.07,16,.07,23.93a27.37,27.37,0,0,1-1.95,10.92c-1.25,2.87-3.22,5.06-6.47,5.55a8.3,8.3,0,0,1-3.41-.38c-.39-.1-.76-.95-.77-1.47,0-.32.69-.67,1.1-.94.15-.1.42,0,.63,0,4-.1,5.72-1.05,6.73-4.84a40.93,40.93,0,0,0,1.38-9.72c.15-9.68,0-19.37,0-29.05a14.37,14.37,0,0,1,6.6-12.42,13.78,13.78,0,0,1,13.67-1.48c4,1.66,6.63,4.57,7,9.08s-.84,8.64-4.75,11.5C251.76,269.37,250.83,269.87,249.56,270.65Z" fill="#bebbfc"/><path d="M173.88,335.33h-7.15C169.19,333.25,171.82,333.29,173.88,335.33Z" fill="#bebbfc"/><path d="M187.28,335.33H182l.32-.13C184.36,334.48,186,334.51,187.28,335.33Z" fill="#bebbfc"/><path d="M485.93,158a1.05,1.05,0,0,0-.3-.15,11.22,11.22,0,0,0-2.85-.18h-49.7c-.54-3.54-.94-6.6-1.43-9.55a60.37,60.37,0,0,0-4.55-15.91,14.37,14.37,0,0,0-4.85-6.21c-3.09-2-6.54-1.67-8.83,1.22a17.39,17.39,0,0,0-2.95,5.24c-1.44,4.45-2.66,9-3.76,13.51-.93,3.79-1.58,7.66-2.33,11.4-4.15.69-20.82.5-23.1-.24,0-.6-.11-1.22-.13-1.86-.2-6.82-.32-13.63-.64-20.44-.53-11.27-1.34-22.52-3.77-33.58-1.49-6.79-3.51-13.38-7.4-19.25-3.79-5.71-8.91-9.34-15.88-10a11.76,11.76,0,0,1-1.44-.39V28.75a9.44,9.44,0,0,0-.09-2.56c-.16-.57-.82-1-1.26-1.48-.44.51-1.1.95-1.28,1.54a9.32,9.32,0,0,0-.1,2.54V71.87c-9.16,1.56-13.67,7.72-16.7,15.43-.51,1.28-.94,2.59-1.35,3.91a117.11,117.11,0,0,0-4.35,27.68c-.65,11.8-.95,23.6-1.41,35.41,0,1-.12,2.06-.18,3.21H277.59c-.16-1.39-.29-2.64-.46-3.89-.86-6.42-1.59-12.88-2.64-19.27A27.83,27.83,0,0,0,270,122.49c-4.51-6.31-12.58-5.83-16,1.1a23.82,23.82,0,0,0-2.48,7.85c-.82,7.5-1.24,15.05-1.81,22.57-.08,1.13-.14,2.27-.22,3.67h-3.75q-13.74,0-27.47,0a11.24,11.24,0,0,0-2.83.28,1.4,1.4,0,0,0-.57.48,1.43,1.43,0,0,0-.27.69,1.5,1.5,0,0,0,.3.68,1.44,1.44,0,0,0,.59.45,11.86,11.86,0,0,0,2.85.25h27.46c1.14,0,2.27.1,3.55.16a15.1,15.1,0,0,1,.17,1.78c-.25,4.67-.4,9.36-.85,14a41.65,41.65,0,0,1-3,13c-1.55,3.47-3.75,6.17-7.94,6.53-.62.05-1.63.88-1.67,1.41-.1,1.36,1.11,1.29,2.07,1.24a10.49,10.49,0,0,0,8.42-5.06,22.29,22.29,0,0,0,3.7-9.78c.84-6.53,1.34-13.1,2-19.66.11-1.12.14-2.25.2-3.29,4.88-.73,20.36-.49,22.33.23,1.18,8.4,2.21,16.74,3.55,25a63.53,63.53,0,0,0,5.62,18.23,27.31,27.31,0,0,0,8.3,10.36c10.39,7.53,22.85,4.53,28.31-7a56.88,56.88,0,0,0,3.77-11.14c2.25-9.56,2.92-19.34,3.35-29.13.08-2.2.25-4.39.4-6.89,7.22.06,14.07-.22,21.22.18v83.9a11.75,11.75,0,0,0,.1,2.85c.14.57.83,1,1.27,1.52.44-.48,1.14-.91,1.26-1.46a16.24,16.24,0,0,0,.1-3.2V164.46c0-1.23.08-2.46.13-3.61,4.14-.64,23.75-.49,26.25.19.05.87.1,1.81.17,2.75.4,6.69.73,13.38,1.27,20.06a26.61,26.61,0,0,0,2.79,10.74c1.75,3.24,4.49,4.34,7.77,2.72a15.29,15.29,0,0,0,5.41-4.27,27.78,27.78,0,0,0,4.42-8c2-6.26,3.57-12.67,5.27-19,.46-1.72.79-3.47,1.2-5.31h23.64c.2,1,.36,1.91.47,2.88.26,4.56.48,9.13.72,13.7a8.53,8.53,0,0,0,.15,2.22,1.9,1.9,0,0,0,1.22,1.13c.41,0,1-.66,1.23-1.09a3.26,3.26,0,0,0,.11-1.57q-.18-5-.41-9.9c-.11-2.4-.27-4.8-.43-7.56h49.24a13,13,0,0,0,2.86-.12,1.41,1.41,0,0,0,.43-.21,1.62,1.62,0,0,0,.76-1A1.69,1.69,0,0,0,485.93,158Zm-233-.48c-.21-.31-.42-.48-.42-.65.14-8.4.06-16.82,1.66-25.11a26.4,26.4,0,0,1,2.41-7.21c2.47-4.69,7.72-5,10.91-.72a17.31,17.31,0,0,1,2.38,4.47c3.28,9.33,3.72,19.11,4.79,29.22ZM321.05,198a45.3,45.3,0,0,1-3,8.39c-4.77,10-15.31,12.59-24.21,5.94a22.46,22.46,0,0,1-5.37-5.8,43.16,43.16,0,0,1-4.32-8.85c-4.17-11.84-5.13-24.28-6.41-37.05l46.89,0a3.81,3.81,0,0,1,.37,1C324.74,173.89,324.1,186.11,321.05,198Zm7.29-40.41c-.07-1.12-.2-1.94-.17-2.76.65-14.34,1.16-28.69,2.06-43a82.16,82.16,0,0,1,4.35-22.16,29.39,29.39,0,0,1,5.28-9.76,13.69,13.69,0,0,1,9.26-5.07l0,82.7C342.19,157.73,335.35,157.63,328.34,157.63Zm50.06-.12H352.59c-.72-2.28-1-78.1-.28-82.62,1.8-.54,3.49.15,5.15.7,4.47,1.48,7.54,4.66,10,8.52A48.75,48.75,0,0,1,374,102c1.29,7.42,2.48,14.89,3.05,22.39.78,10.17.93,20.39,1.35,30.58C378.42,155.66,378.4,156.38,378.4,157.51Zm22.49,16.19c-1.3,4.57-2.88,9.08-4.61,13.52a14.34,14.34,0,0,1-5.18,6.72c-3.23,2.24-5.28,1.71-6.65-1.93a32.76,32.76,0,0,1-1.54-6.15c-1.34-8.18-1.45-16.45-1.71-25.14h22.6C402.81,165.27,402.07,169.54,400.89,173.7Zm6.63-16.23a4.5,4.5,0,0,1-.08-1.28c1.46-6.62,2.82-13.27,4.49-19.85a24.14,24.14,0,0,1,3-6.64c1.8-2.92,4.56-3.17,6.84-.58a21.76,21.76,0,0,1,3.47,5.65c2.49,5.7,3.46,11.8,4.39,17.89.22,1.46.35,2.94.57,4.83Z" fill="#bebbfc"/><path d="M344.32,25.2c-1.92-.69-1.36-1.69-.91-2.69,1.09-2.42,2.09-4.88,3.26-7.25.72-1.48.34-2.5-.61-3.73a75.09,75.09,0,0,1-4.67-6.8c-.79-1.27-.64-1.39.5-3.35,2.77,2.38,3.47,6.32,6.71,8.62.85-2.62,1.64-5,2.41-7.42a8.81,8.81,0,0,1,.58-1.8A1.63,1.63,0,0,1,352.8,0a1.53,1.53,0,0,1,.91,1.09A4.27,4.27,0,0,1,353.62,3a116.28,116.28,0,0,1-8.08,20.7A12.73,12.73,0,0,1,344.32,25.2Z" fill="#bebbfc"/><path d="M209.12,166.89,204,160.11c-1.57,2.93-3,5.57-4.34,8.11-1.54-.16-2-.86-1.49-2,.76-1.75,1.59-3.47,2.45-5.18.52-1,1.12-2,1.83-3.32-1.22-1.3-2.43-2.6-3.66-3.9-1-1.05-1.48-2.09.24-3.43l4.9,4.75,3.57-4.79c1.31,1.71,1.31,1.71-1.65,7.39,1.16,1.68,2.44,3.47,3.65,5.31C210.45,164.53,210.41,164.53,209.12,166.89Z" fill="#bebbfc"/><path d="M480.44,335.33h-2.27a2,2,0,0,0-.59-1.29,2.82,2.82,0,0,0-2.57.2,7.74,7.74,0,0,0-1.21,1.09h-2.53a4.06,4.06,0,0,1,1.17-2.13c1.78-2.17,4.51-2.95,6.47-1.83Q480.73,332.41,480.44,335.33Z" fill="#bebbfc"/><path d="M408.94,334.54l.72.79h-1.19C408.59,335.11,408.75,334.85,408.94,334.54Z" fill="#bebbfc"/><path d="M419.14,335.33h-2.45l1.66-2.24C419.56,333.89,419.5,334.63,419.14,335.33Z" fill="#bebbfc"/><path d="M440.85,332.87l1.63,2.46h-2.35C439.75,334.61,439.89,334.45,440.85,332.87Z" fill="#bebbfc"/><path d="M451.52,334.72l-.4.61h-2.63a19.26,19.26,0,0,1,2.58-3.84C452.72,332.47,452.22,333.66,451.52,334.72Z" fill="#bebbfc"/><path d="M431.06,335.33h-1.54c0-.59.1-1.19.15-1.84A3.92,3.92,0,0,1,431.06,335.33Z" fill="#bebbfc"/><path d="M362.42,309.12c-.52,1.71-2.08,1.15-3.25,1.16q-28.25,0-56.51,0c-1.24,0-2.5.11-3.81.16-.08,1.15-.17,2-.18,2.83l-.39,22h-2.77q.23-12.19.47-24.37c.07-3.22.22-3.39,3.52-3.4h59.7C361.69,307.56,362.73,308.07,362.42,309.12Z" fill="#bebbfc"/><path d="M326.65,330.87c-1,1.51-2,3-3,4.46h-5.1c-1.29-1.66-2.94-2.93-2-5.57l4.69,5,4.66-6.35C327.68,329.12,327.16,330.05,326.65,330.87Z" fill="#bebbfc"/><path d="M211.34,203.93c0-3.41-.08-6.47.06-9.51a2.75,2.75,0,0,1,1.31-1.84,4.58,4.58,0,0,1,6,.85,5.69,5.69,0,0,1,.3,6.52A9.9,9.9,0,0,1,211.34,203.93Z" fill="#fff" opacity="0.01" style="isolation:isolate"/><path d="M211.35,189.57c.12-1.82.27-3.38.32-4.94,0-1.18.32-2.08,1.63-2.3a2.67,2.67,0,0,1,3.16,1.49,3.09,3.09,0,0,1,.34,1.84,3,3,0,0,1-.81,1.69C214.85,188.61,213.61,189.72,211.35,189.57Z" fill="#fff" opacity="0.01" style="isolation:isolate"/><path d="M137.77,191.89c1.53,2.93.62,5.51-.51,8-.27.59-1.07,1.4-1.5,1.33a3.23,3.23,0,0,1-1.87-1.38c-1.11-1.74-.29-3.48.38-5.12C134.86,193.28,135.63,191.86,137.77,191.89Z" fill="#fff" opacity="0.01" style="isolation:isolate"/><path d="M205.56,220.07c1.28,2.31.53,4.5-.46,6.61-.64,1.36-2.2,1.4-2.56,0a8.94,8.94,0,0,1,.17-4.23C203,221.18,203.71,219.85,205.56,220.07Z" fill="#fff" opacity="0.01" style="isolation:isolate"/><path d="M433,225.39c3.36-.32,6.46-.68,9.58-.87.48,0,1,.73,1.51,1.13-.44.45-.81,1.18-1.34,1.31a22.8,22.8,0,0,1-3.62.43l-3.22.33c-.65,2.44-.91,74.69-.3,80.55l5.25.69a6.49,6.49,0,0,1,1.8.21,6.4,6.4,0,0,1,1.42,1.26c-.48.41-1,1.18-1.44,1.16-2.84-.13-5.68-.37-8.49-.74-.5-.06-1.1-.86-1.29-1.44a8.36,8.36,0,0,1-.12-2.41V229.22C432.75,228,432.91,226.84,433,225.39Z" fill="#bebbfc"/><path d="M497.28,275.39V278H444.74a10.11,10.11,0,0,1-2.71-.2,1.86,1.86,0,0,1-.94-1.31c0-.25.56-.82,1-.93a8,8,0,0,1,2.12-.15Z" fill="#bebbfc"/><path d="M423.6,266.38c.11-.33.23-.7.37-1.07.92-2.69.49-4.38-1.31-6.05s-3.56-.71-5.39-.09a1.85,1.85,0,0,0-1.34,2.34,31.06,31.06,0,0,1,.25,4.52c-.05,4.16-.2,8.32-.27,12.49a16,16,0,0,0,.25,2.29c3.73.77,8.51-1.5,10.19-4.71C427.92,273.07,426.86,269.21,423.6,266.38Zm-5.36-3.64c.16-1.61,1-2.36,2.22-2.16a2.56,2.56,0,0,1,1.94,3.24c-.42,1.45-2,2.49-4.41,2.84h0C418.06,265.33,418.11,264,418.24,262.74Zm6,12.74c-1.22,1.68-3.1,2.63-6.24,3.06v-9.27c1.42-.26,2.82-.9,4.07-.65C425,269.18,426.06,273,424.23,275.48Z" fill="#bebbfc"/><path d="M348.88,262.22a29.1,29.1,0,0,1,.66,3q.57,6.08,1,12.15c.08,1,.25,2-1.48,2.58-1-3.93-.69-7.88-1.34-12.31l-4.5,6c-2.61-1.69-2.54-4.65-4.41-6.84a47,47,0,0,0-.94,7.24c-.19,2.17.35,4.52-1.38,7.11a8.86,8.86,0,0,1-.75-2.19,124.85,124.85,0,0,1,1.59-17.62c2.39.5,2.55,2.48,3.34,3.84s1.46,3.12,2.25,4.84C345.59,268.13,345.8,264.47,348.88,262.22Z" fill="#bebbfc"/><path d="M475.24,285.54c-2.91-.4-4.85,1.08-6.34,3.28-1.19,1.76-.71,4.68.82,6.51s3,1.21,4.67.51c.37-.15.77-.24,1.53-.47a33.2,33.2,0,0,1-.57,4.94c-.78,2.89-3.3,3.62-5.64,1.79-.68-.54-1.32-1.13-2.49-2.12-.12,1.18-.45,1.95-.2,2.35a6,6,0,0,0,5.24,3.11,4.5,4.5,0,0,0,4.65-3.66c1.41-5.32.86-10.79,1.34-16.42A18.63,18.63,0,0,1,475.24,285.54Zm-3.36,8.67c-1.13-1.06-2-2.27-1.29-3.9a4.11,4.11,0,0,1,1.3-1.65,4.06,4.06,0,0,1,1.94-.77c1.39-.19,2.05.38,2.17,1.79C476.22,292.34,475.33,293.33,471.88,294.21Z" fill="#bebbfc"/><path d="M389.06,272.5q-2.61,4.28-5.15,8.46c-1.34-.14-1.79-.83-1.3-1.89a42.94,42.94,0,0,1,2.18-4c.93-1.56,1.94-3.08,3-4.82-1.22-1.45-2.37-2.84-3.53-4.23-.75-.9-1-1.78.46-2.69l4.27,4.75,4.73-6.26c1,1.94.95,1.93-.76,4.45-.85,1.24-1.65,2.52-2.39,3.66,1.28,3.46,4.68,5.75,4.16,9.75C392.25,277.83,391.68,274.57,389.06,272.5Z" fill="#bebbfc"/><path d="M489.17,261.16l7.8,1c.44,1.15.34,2.05-.76,2-2.93-.17-5.85-.5-8.76-.89-.47-.07-.86-.76-1.47-1.35l7.63-12.43-4.32.37c-.84.07-1.87.14-1.8-1a2.35,2.35,0,0,1,1.44-1.55,9.8,9.8,0,0,1,6.73.45c.86,1.44,0,2.4-.66,3.42-1.63,2.69-3.27,5.37-4.88,8.07C489.82,259.74,489.6,260.28,489.17,261.16Z" fill="#bebbfc"/><path d="M363.42,276.12c-4.95,3.12-5.8,3-6.91-1.13a40.91,40.91,0,0,0,4.26-1.42c2.35-1.09,2.86-3.49,1.24-5.56s-4.46-2-6.24.23c-2.16,2.68-2.24,7-.46,10,1.87,3.22,6.16,3.1,8.23-.22C363.79,277.65,363.49,276.92,363.42,276.12Zm-7.13-4,0-.31a3.21,3.21,0,0,1,1-2.15,2.83,2.83,0,0,1,.44-.3l.38-.17.41-.13.3-.07a1.28,1.28,0,0,1,.81.2l.24.14.19.13a2.74,2.74,0,0,1,.59.59c.11.16,0,.61-.21,1a1.32,1.32,0,0,1-.52.6,9.7,9.7,0,0,1-1.66.5,5.6,5.6,0,0,1-.59.12l-1,.19-.5.11C356.27,272.42,356.28,272.27,356.29,272.12Z" fill="#bebbfc"/><path d="M450.15,254.15h7.9a6.09,6.09,0,0,1,2.1.16,2.07,2.07,0,0,1,.62.52,2,2,0,0,1,.35.74c.05.28-.49.86-.88,1a5.3,5.3,0,0,1-1.79.16c-5.67,0-11.35,0-17,0-1.1,0-2.82.46-2.76-1.37.05-1.55,1.62-1.17,2.67-1.18C444.27,254.13,447.21,254.15,450.15,254.15Z" fill="#bebbfc"/><path d="M446.1,251.61c-1.33-4.15.4-8.39-.25-12.59,1.65.16,3,.3,4.34.42a3,3,0,0,1,2.84,2,18.53,18.53,0,0,1,.75,9,7.22,7.22,0,0,1-.7,1.33,10.86,10.86,0,0,1-1-2.32c-.15-1.51-.09-3.05-.22-4.56-.19-2.19-.95-3.28-2.1-3.19s-1.92,1.24-2.09,3.32c-.12,1.51,0,3-.13,4.55a18.15,18.15,0,0,1-.4,2.18Z" fill="#bebbfc"/><path d="M447.84,271.37a24.25,24.25,0,0,1,3.71.05c.55.1,1,.72,1.51,1.1-.48.4-1,1.14-1.44,1.12-1.88-.08-3.75-.4-6.11-.69a25.11,25.11,0,0,1,1.06-2.8c1.14-2,2.45-4,3.52-6a17,17,0,0,0,.93-3.44c-3.46-1-3.66,2.14-5.19,3.52-.68-2-.31-3.55,1.06-4.7a3.88,3.88,0,0,1,4.23-.87,2.5,2.5,0,0,1,1.26,1.88,10.09,10.09,0,0,1-.74,4.06C450.66,266.73,449.33,268.76,447.84,271.37Z" fill="#bebbfc"/><path d="M406.55,268.24c.94.05,1.94.05,2.93.2.3.05.81.51.79.77,0,.43-.29,1.12-.61,1.22a27.06,27.06,0,0,1-3.25.69c-.74,1.65.3,3.73-1.36,5.31-2.12-1.52-.21-3.7-1.2-5.55a18.72,18.72,0,0,0-2.12-.15c-.86,0-1.74.08-1.83-1.05-.1-1.32.91-1.35,1.86-1.39.69,0,1.39-.11,2.22-.18.14-1.83.28-3.56.46-5.8C406.93,264.14,405.52,266.53,406.55,268.24Z" fill="#bebbfc"/><path d="M374.14,271.92a27.7,27.7,0,0,1,3,0c.4.05,1.06.53,1,.79,0,.51-.41,1.42-.69,1.43-2.61.16-5.22.2-7.83.17-.24,0-.7-.76-.66-1.11a1.43,1.43,0,0,1,.9-1c1.38-.22,2.79-.27,4.2-.39Z" fill="#bebbfc"/><path d="M373.71,265a20.83,20.83,0,0,1,3.27.34c.42.11.69.82,1,1.25-.43.34-.84.92-1.29.95-2,.16-4,.16-5.94.2-.84,0-1.83-.1-1.65-1.16a2.34,2.34,0,0,1,1.58-1.37,12.41,12.41,0,0,1,3-.06Z" fill="#bebbfc"/><path d="M472.44,254.21a18.63,18.63,0,0,1,3.05.2c.33.07.65.71.73,1.13,0,.2-.46.71-.75.74-1.88.19-3.77.35-5.66.37-.45,0-.9-.56-1.35-.87.35-.43.61-1.13,1.05-1.22A16,16,0,0,1,472.44,254.21Z" fill="#bebbfc"/><path d="M356.27,272.58c0-2.24,1-3.3,2.62-3.57a2.42,2.42,0,0,1,1.83,1.05c.19.27-.3,1.44-.72,1.62A24,24,0,0,1,356.27,272.58Z" fill="#fff" opacity="0.01" style="isolation:isolate"/><path d="M0,335.33H14.21c-.43-.5-1.22-.56-2.75-.56H3.08v-4.12q0-33.9,0-67.79c0-1.17.4-2.94-1.22-3C-.08,259.8.4,261.69.4,262.92c0,12.92,0,25.85,0,38.78C.3,312.91.07,324.12,0,335.33Z" fill="#bebbfc"/><path d="M43.16,323.24c-.67-2.46-2.17-3.37-4.58-2.64a7.47,7.47,0,0,0-3,1.92c-2.87,3-3.44,8.25-1.38,12.22.1.2.21.4.32.59h2.75a3.18,3.18,0,0,1-1-1.22,25.61,25.61,0,0,1-1.51-4.83c.31-2.41.93-4.52,2.92-5.92,1.77-1.27,3.15-.85,3.76,1.17a11.33,11.33,0,0,1-1.2,9.63,3.66,3.66,0,0,1-1.09,1.17h2.81a5.87,5.87,0,0,0,.36-.81A62.51,62.51,0,0,0,44,328.34,51.27,51.27,0,0,0,43.16,323.24Z" fill="#bebbfc"/><path d="M28.15,323.61c-.67-3.39-3.72-4.25-6.07-1.76a11.94,11.94,0,0,0-2.54,4.06,3.41,3.41,0,0,0,4.15,4.52,25.17,25.17,0,0,0,2.84-1c-.16,1.22-.19,2.22-.42,3.19s-.49,1.83-.75,2.74h1.79c.46-1.88.87-3.77,1.19-5.67A17.33,17.33,0,0,0,28.15,323.61Zm-5.37,4.91c-1.2-.1-1.87-.95-1.36-2.07a9.8,9.8,0,0,1,2.06-2.88,2.31,2.31,0,0,1,2.07-.55c.56.25.8,1.24.95,1.5C26.59,326.77,24.55,328.67,22.78,328.52Z" fill="#bebbfc"/><path d="M50.94,314.55c-2.19-.12-3.85,2-3.82,5.35a7.89,7.89,0,0,0,.33,1.59,3.37,3.37,0,0,0,6.41.29,6.94,6.94,0,0,0,.55-2C54.7,317.05,53.12,314.67,50.94,314.55Zm-.12,7.51c-1.14.07-2.1-1.25-2-2.83s.92-2.69,1.9-2.75,2,1.24,2,2.87S51.89,322,50.82,322.06Z" fill="#bebbfc"/><path d="M138.88,223.89a6.91,6.91,0,0,0-3.67-5.43c.36-1.63,1-3.11.93-4.54a5.06,5.06,0,0,0-3.48-4.62c-2.2-.82-4.13.48-6,1.4-.31.15-.36,1.06-.36,1.62,0,1.92.28,3.84.27,5.76,0,4.87-.25,9.74-.25,14.63,0,2.32.88,3,3.06,2.4a23.67,23.67,0,0,0,5-2.08C138,231.05,139.55,228.11,138.88,223.89Zm-9.94-10.18c0-1.12.3-2,1.56-2.2a2.55,2.55,0,0,1,3,1.42,2.93,2.93,0,0,1-.45,3.39,5.09,5.09,0,0,1-4.42,2.11C128.76,216.69,128.91,215.2,128.94,213.71ZM136,228.37a9.49,9.49,0,0,1-7.37,3.8h0c0-3.27-.07-6.19.06-9.08a2.63,2.63,0,0,1,1.25-1.76,4.38,4.38,0,0,1,5.77.81A5.43,5.43,0,0,1,136,228.37Z" fill="#bebbfc"/><path d="M122.59,240.51H103.08a11.21,11.21,0,0,1-2.71-.24,1.44,1.44,0,0,1-.54-.44,1.34,1.34,0,0,1-.26-.64,1.38,1.38,0,0,1,.26-.65,1.49,1.49,0,0,1,.54-.46,6.44,6.44,0,0,1,2.09-.25H142.7c1.13,0,2.82-.34,2.72,1.48-.09,1.52-1.67,1.17-2.71,1.17C136,240.53,129.3,240.51,122.59,240.51Z" fill="#bebbfc"/><path d="M109.48,223.18v11.21c-1.64.42-1.92-.61-2-1.62-.18-3.64-.45-7.3-.36-10.94a89.67,89.67,0,0,1,.95-9.07,9.78,9.78,0,0,1,.77-2c2,1.38,1,3.11,1.06,4.56s-.24,3-.4,4.78a17.28,17.28,0,0,0,7.78.22V212.8c2-.43,2,.84,2.07,1.92.22,4.16.39,8.31.59,12.46.06,1.32.21,2.63.21,3.95a14.25,14.25,0,0,1-.47,2.44c-2.51-1.37-1.53-3.42-1.76-5s-.21-3.4-.31-5.33Z" fill="#bebbfc"/><path d="M63.56,229c-1.92-2.13-2-4.77-2.46-7.35-.27-1.54-.18-3.26-1.63-4.54-.75.37-1.44.74-2.16,1.06C53.53,219.83,51,225,52.09,229a5.46,5.46,0,0,0,3.59,3.39c1.84.22,2.76-1,3.53-2.33.25-.44.43-.9.76-1.62l2.62,3.19C64.11,229.89,64.27,229.74,63.56,229Zm-5.76-.64c-.26.56-1,1.34-1.43,1.27a3,3,0,0,1-1.79-1.32c-1.06-1.66-.28-3.32.36-4.89.58-1.39,1.32-2.75,3.36-2.73C59.77,223.45,58.89,225.91,57.8,228.31Z" fill="#bebbfc"/><path d="M57.24,240.51H48.39a6.79,6.79,0,0,1-2.12-.1,5.89,5.89,0,0,1-1.55-1.14,13.1,13.1,0,0,1,1.67-1.39c.3-.18.79-.06,1.2-.06H68c1,.05,2.3,0,2.25,1.4s-1.37,1.26-2.37,1.27c-3.55,0-7.11,0-10.67,0Z" fill="#bebbfc"/><path d="M127.48,254.55c-1.72-2-1.74-4.46-2.14-6.85a30.56,30.56,0,0,0-.88-3.09c-5,2-7,5-6.5,9.21.2,1.61,1.59,3.33,2.91,3.54,1.6.25,2.4-.77,3-2,.17-.32.35-.62.66-1.16a15.89,15.89,0,0,0,1.07,1.43,13.31,13.31,0,0,0,1.07.92C127.76,256.05,128.14,255.32,127.48,254.55Zm-4.8-.63c-.61,1.29-2.11,1.32-2.45,0a8.7,8.7,0,0,1,.16-4c.31-1.22,1-2.5,2.72-2.28C124.33,249.8,123.62,251.89,122.68,253.92Z" fill="#bebbfc"/><path d="M59.43,253c.68,2.37-.11,3.78-2.1,4.28a4.39,4.39,0,0,1-5.45-3.55,9.55,9.55,0,0,1,2.4-8.46,3.48,3.48,0,0,1,3.92-.8c.38.12.71.92.74,1.41,0,.27-.75.89-1,.81a2.24,2.24,0,0,0-2.92.94,14.3,14.3,0,0,0-1.44,4.55c-.16,1.26.78,2.2,2,2.72s1.91-.17,2.64-.91C58.55,253.72,58.87,253.48,59.43,253Z" fill="#bebbfc"/><path d="M85.31,243.37H82c-.91,0-1.72-.36-1.55-1.36a2.07,2.07,0,0,1,.51-.79,2,2,0,0,1,.82-.46c2.59-.31,5.2-.46,7.8-.63.89,0,1.77.28,1.58,1.31a2.4,2.4,0,0,1-1.33,1.67,28,28,0,0,1-4.5.31Z" fill="#bebbfc"/><path d="M88.65,234.85c-2,.17-4,.35-5.94.5-.92.07-1.94.19-2.12-1.09s.81-1.83,1.86-1.87c2.22-.08,4.44,0,6.65.06,1,0,2,.53,1.64,1.64-.18.61-1.19.94-1.82,1.4Z" fill="#bebbfc"/></g></g></g></svg>