<svg xmlns="http://www.w3.org/2000/svg" xmlns:xlink="http://www.w3.org/1999/xlink" viewBox="0 0 539.78 361.14"><defs><clipPath id="clip-path"><rect x="339.78" y="159.72" width="200" height="200" fill="none"/></clipPath><clipPath id="clip-path-2"><rect x="405.73" y="159.72" width="67.69" height="200.07" fill="none"/></clipPath></defs><g id="Layer_2" data-name="Layer 2"><g id="Layer_3" data-name="Layer 3"><rect width="539.57" height="361.14" fill="none"/><g opacity="0.2"><g clip-path="url(#clip-path)"><path d="M531.78,159.72a8,8,0,0,1,8,8v184a8,8,0,0,1-8,8h-184a8,8,0,0,1-8-8V301.06a8,8,0,0,1,8-8h50.67a8,8,0,0,0,8-8V234.38a8,8,0,0,1,8-8h50.67a8,8,0,0,0,8-8V167.72a8,8,0,0,1,8-8Z" fill="#ff8353"/><path d="M531.78,233.35a8,8,0,0,1,8,8V351.72a8,8,0,0,1-8,8H421.4a8,8,0,0,1-8-8V332.1a14.51,14.51,0,0,1,14.51-14.51H441a14.54,14.54,0,0,0,10.26-4.26,14.45,14.45,0,0,0,4.24-10.28V290A14.51,14.51,0,0,1,470,275.47h13.07A14.51,14.51,0,0,0,497.62,261V247.85a14.51,14.51,0,0,1,14.51-14.5Z" fill="#1b1f29"/><path d="M406.45,293.06l-66.67,66.66H473.11Z" fill="#fff"/><path d="M406.45,330.9l-28.82,28.82h57.64Z" fill="#ff8353"/><path d="M522.53,316.11h-15l10.63-10.63-2.64-2.62-10.61,10.61v-15h-3.73v15l-10.63-10.61-2.62,2.62,10.61,10.63h-15v3.73h15L487.9,330.45l2.62,2.64,10.63-10.62v15h3.73v-15l10.61,10.62,2.64-2.64L507.5,319.84h15Z" fill="#f9f5f2"/><path d="M422.44,210.62V226.5h15.89V210.62Z" fill="#1b1f29"/><path d="M438.26,194.8v15.89h15.88V194.8Z" fill="#1b1f29"/><path d="M422.44,242.25v15.89h15.89V242.25Z" fill="#1b1f29"/><path d="M438.26,226.43v15.89h15.88V226.43Z" fill="#1b1f29"/><g clip-path="url(#clip-path-2)"><path d="M473.43,359.8h-1V193.57a32.83,32.83,0,0,0-65.64,0V359.8h-1V193.57a33.86,33.86,0,0,1,67.7,0Z" fill="#1b1f29"/></g><path d="M497.63,215.53l-6.27-6.24,10.8-10.8-10.8-10.79,6.23-6.23,10.81,10.79,10.84-10.79,6.23,6.23-10.79,10.8,10.79,10.79-6.23,6.23-10.8-10.8Zm10.81-12.25,10.8,10.8,4.78-4.79-10.81-10.8L524,187.69l-4.78-4.78-10.8,10.8-10.81-10.8-4.77,4.78,10.8,10.8-10.8,10.8,4.77,4.78Z" fill="#1b1f29"/></g></g></g></g></svg>