<svg xmlns="http://www.w3.org/2000/svg" xmlns:xlink="http://www.w3.org/1999/xlink" viewBox="0 0 539.78 361.14"><defs><clipPath id="clip-path"><rect x="368.78" y="148.14" width="171" height="213" fill="none"/></clipPath></defs><g id="Layer_2" data-name="Layer 2"><g id="Layer_4" data-name="Layer 4"><rect width="539.57" height="361.14" fill="none"/><g clip-path="url(#clip-path)"><g opacity="0.2"><path d="M539.78,353.14a8,8,0,0,1-8,8H388.13c-7.13,0-9.83-8-2.95-9.87,15.17-4.2,29.78,2.15,45.57-13.61,21.38-21.32,2.16-40.49,23.53-61.81s40.55-2.15,62-23.47c15.84-15.76,9.44-30.35,13.66-45.5,1.92-6.86,9.87-4.15,9.87,3Z" fill="#4098f9"/><path d="M458.19,310.73a31.68,31.68,0,1,0,31.68-31.59A31.64,31.64,0,0,0,458.19,310.73Z" fill="#1b1f29"/><path d="M481.13,319.45a12.34,12.34,0,1,0,0-17.43A12.38,12.38,0,0,0,481.13,319.45Z" fill="#ff8353"/><path d="M539.78,218.49a49.67,49.67,0,0,1,0-70.35Z" fill="#ff8353"/></g></g></g></g></svg>