<svg width="42" height="46" viewBox="0 0 42 46" fill="none" xmlns="http://www.w3.org/2000/svg">
<path d="M18.6666 22.8308C16.6677 22.8308 14.6687 22.8464 12.6645 22.8308C12.2509 22.8308 12.0969 22.913 12.1086 23.3631C12.1413 24.5897 12.1204 25.8175 12.1204 27.0779C12.3983 26.9762 12.5118 26.7726 12.6762 26.6212C13.0677 26.2376 13.4591 25.8384 13.8506 25.4469C14.199 25.1129 14.7548 25.0751 15.0432 25.3465C15.3315 25.6179 15.3041 26.2076 14.9557 26.5743C14.6765 26.8692 14.3829 27.151 14.0959 27.4381C13.4174 28.1166 12.7454 28.8016 12.0578 29.4697C11.5437 29.9707 11.1874 29.959 10.6851 29.4579C9.75172 28.5289 8.82096 27.5977 7.89281 26.6643C7.78341 26.5673 7.69042 26.4531 7.61748 26.3264C7.45177 25.9767 7.45047 25.6413 7.77407 25.3582C8.07809 25.0907 8.3795 25.1168 8.70701 25.3125C8.94763 25.4794 9.16675 25.6753 9.35942 25.8958C9.72476 26.2585 10.0836 26.6291 10.5559 27.1093V25.139C10.5559 24.5205 10.535 23.902 10.5638 23.2862C10.5807 22.9104 10.4424 22.8216 10.0875 22.819C9.59167 22.819 9.08539 22.9182 8.59609 22.7499C8.80355 22.5294 9.07756 22.6037 9.3307 22.5881C9.66995 22.5685 10.0118 22.6155 10.3485 22.5542C10.5533 22.4772 10.5116 22.2932 10.5194 22.1405C10.582 20.8918 10.3615 19.6509 10.4163 18.4009C10.4346 18.0003 10.1684 18.1073 9.95179 18.1791C8.72821 18.5725 7.58939 19.1922 6.59451 20.0058C6.25178 20.2788 5.92339 20.5693 5.61068 20.8762C5.46584 21.0236 5.31449 21.1919 5.06397 21.1097C4.9973 21.0592 4.94352 20.9936 4.90701 20.9183C4.87051 20.843 4.85231 20.7602 4.85389 20.6765C4.74951 19.6744 4.5029 18.6971 4.32023 17.7081C3.63129 13.9659 2.97497 10.2185 2.26384 6.4867C2.23389 6.34366 2.23122 6.19622 2.25601 6.05219C2.33691 5.63856 2.17511 5.25624 2.09552 4.8661C2.01984 4.49684 2.07986 4.19153 2.35648 3.93709C4.44418 2.03859 6.76675 0.565453 9.60211 0.115293C12.3161 -0.315296 14.7261 0.480647 16.8595 2.16125C18.9615 3.81836 20.3825 5.98955 21.4811 8.39302C21.5959 9.18373 21.4811 9.98098 21.5333 10.6543C21.5633 9.97968 21.4746 9.18373 21.579 8.39171C22.7768 5.68553 24.4809 3.3682 26.8804 1.6067C28.1049 0.711095 29.558 0.180439 31.0715 0.0761419C33.6485 -0.130019 35.9554 0.63069 38.1253 1.93811C39.0133 2.47496 39.841 3.10577 40.594 3.81966C40.9124 4.12107 41.0442 4.43944 40.9385 4.90395C40.8511 5.29539 40.6606 5.6999 40.8237 6.12396C40.6697 7.34918 40.4009 8.55482 40.1778 9.76699C39.5371 13.2639 38.903 16.7621 38.2297 20.2525C38.2167 20.3489 38.2114 20.4462 38.214 20.5434C38.214 20.7927 38.1788 21.0327 37.9452 21.1841C37.7691 21.2546 37.6751 21.1319 37.5773 21.0249C36.5396 19.9033 35.269 19.0224 33.8547 18.444C33.6733 18.3683 33.4971 18.2887 33.411 18.0904C33.3629 17.9182 33.3443 17.739 33.3562 17.5606C33.3562 15.9844 33.3627 14.4095 33.3562 12.8346C33.3562 12.4145 33.458 12.083 33.8064 11.8182C34.1845 11.5307 34.4567 11.126 34.5801 10.6673C34.7002 10.2524 34.8411 10.2106 35.2325 10.3789C35.5026 10.4951 35.7362 10.6751 35.9932 10.8121C36.3025 10.9779 36.5922 10.9661 36.8283 10.6882C37.0384 10.4416 36.9953 10.0893 36.7239 9.81267C36.3756 9.45646 35.928 9.25419 35.4896 9.04412C34.6445 8.62255 33.7224 8.37748 32.7795 8.32386C32.5864 8.31472 32.388 8.30299 32.2171 8.42825C31.6952 8.42825 31.1902 8.41391 30.7166 8.70619C30.3694 8.90733 30.098 9.2172 29.9445 9.58793C29.791 9.95866 29.7638 10.3696 29.8671 10.7574C29.9628 11.1465 30.1827 11.4938 30.4935 11.7466C30.8043 11.9995 31.1891 12.1442 31.5895 12.1587C31.7681 12.1637 31.9469 12.1563 32.1245 12.1365C32.2902 12.1209 32.4546 12.1144 32.5264 12.3166C32.5814 12.5706 32.6003 12.8311 32.5825 13.0903C32.5968 15.5056 32.5629 17.9182 32.5642 20.336C32.5851 20.867 32.5642 21.3981 32.5733 21.9291C32.5733 22.5607 32.5981 22.5816 33.2257 22.5894C33.3223 22.5894 33.4188 22.5959 33.5154 22.5972C33.8429 22.6142 34.1926 22.4954 34.481 22.7538C33.9251 22.9221 33.3562 22.7982 32.7938 22.8295C32.5655 22.8438 32.4272 22.8804 32.4298 23.1531C32.4376 24.4474 32.4298 25.7431 32.4298 27.0466C32.6399 27.0466 32.7064 26.8966 32.803 26.8013C33.2805 26.3355 33.7398 25.8514 34.2252 25.3947C34.5332 25.1038 35.0747 25.0972 35.3448 25.3426C35.4833 25.4939 35.5623 25.6903 35.5671 25.8954C35.5719 26.1006 35.5022 26.3005 35.3708 26.4581C34.3387 27.519 33.2962 28.5693 32.2289 29.5897C31.8374 29.9629 31.4577 29.9146 31.0741 29.5336C30.092 28.5619 29.1147 27.5846 28.1422 26.6017C27.7507 26.2102 27.7103 25.7679 28.0117 25.4352C28.3444 25.0672 28.7724 25.0437 29.2056 25.4495C29.7354 25.9493 30.2142 26.5025 30.7153 27.0323L30.8679 26.9644V25.978C30.8679 25.0829 30.8523 24.1891 30.8758 23.2953C30.8849 22.9299 30.7727 22.823 30.4073 22.8256C28.4084 22.8386 26.4081 22.8256 24.4052 22.8256C24.5435 22.5098 24.8358 22.5907 25.0759 22.5894C26.6651 22.5776 28.2557 22.5894 29.845 22.5894C30.7035 22.5894 30.7035 22.5894 30.7061 21.7308C30.7061 21.2598 30.697 20.7901 30.7061 20.3203C30.7322 19.6236 30.7061 18.9255 30.7231 18.2326C30.7335 17.8725 30.6226 17.7107 30.2286 17.7016C27.4037 17.6402 24.9363 18.5197 22.8499 20.4417C22.569 20.6863 22.3032 20.9477 22.0539 21.2246C21.9365 21.3616 21.8178 21.5507 21.5751 21.4698C21.5122 20.3749 21.5061 19.2773 21.5568 18.1817C21.5568 18.1713 21.5803 18.1622 21.5933 18.1517H21.532C21.515 19.2425 21.5464 20.3347 21.515 21.4255C21.2241 21.6082 21.1066 21.325 20.9748 21.1893C20.1672 20.3634 19.3282 19.5831 18.3039 19.0272C16.8973 18.2451 15.3321 17.791 13.7253 17.6989C13.5192 17.6872 13.2986 17.7251 13.1355 17.5437C13.0168 17.3323 13.0455 17.1013 13.0455 16.8756C13.0455 15.5904 13.0638 14.3064 13.0351 13.0225C13.0175 12.7743 13.0596 12.5254 13.1579 12.2968C13.2562 12.0682 13.4078 11.8665 13.6001 11.7086C14.5721 10.837 14.5134 9.56085 13.5139 8.80928C13.3071 8.64992 13.0682 8.5371 12.8138 8.47855C12.5593 8.42 12.2952 8.41709 12.0395 8.47001C11.6585 8.44392 11.2775 8.43871 10.8952 8.44915C10.6512 8.27039 10.3732 8.30821 10.0979 8.333C8.78264 8.45823 7.52306 8.92565 6.44445 9.68872C6.06606 9.94968 5.9695 10.3933 6.21611 10.6934C6.46272 10.9935 6.76152 10.9974 7.08251 10.803C7.58953 10.4818 8.12502 10.208 8.68221 9.98488C8.91316 9.89746 9.14542 9.72395 9.41682 9.88052C9.48758 10.0273 9.51777 10.1904 9.50425 10.3528C9.56688 11.4724 10.3641 12.1914 11.4941 12.1692C11.7303 12.1692 12.016 11.9917 12.2 12.3075C12.2848 12.5606 12.26 12.8294 12.2626 13.0812C12.2809 15.4716 12.2352 17.8621 12.247 20.2512C12.2678 20.8018 12.247 21.3537 12.247 21.9057C12.2535 22.5763 12.2613 22.5855 12.9242 22.5959C13.0207 22.5959 13.1186 22.6077 13.2164 22.6024C14.8383 22.5737 16.4589 22.5894 18.0795 22.6024C18.3065 22.5907 18.574 22.5268 18.6666 22.8308Z" fill="#CBDCE6"/>
<path d="M0.413086 42.0454C1.04331 41.9528 1.67745 41.9984 2.30768 42.0154C2.73826 42.0271 2.8831 41.9254 2.87919 41.4608C2.857 38.2575 2.86745 35.0529 2.86745 31.8483C2.86745 30.8044 3.05664 30.6191 4.08222 30.6191H18.8175C19.8117 30.6191 20.0101 30.8188 20.0101 31.8196V44.2636C20.0101 45.2422 19.7896 45.4588 18.7966 45.4588C13.9827 45.4588 9.16881 45.4588 4.35492 45.4588C3.66076 45.4588 2.96268 45.571 2.26722 45.4144C2.41597 45.2135 2.65866 45.2917 2.8857 45.2239C2.57907 44.4645 2.72261 43.6725 2.69781 42.8922C2.67824 42.2398 2.66912 42.2228 2.00366 42.2189C1.64875 42.2189 1.29253 42.2267 0.937623 42.2189C0.753645 42.2046 0.547482 42.2294 0.413086 42.0454Z" fill="#4098F9"/>
<path d="M36.3617 38.0685C36.3617 40.1675 36.3617 42.2665 36.3617 44.3655C36.3617 45.2293 36.1295 45.4563 35.2565 45.4563H28.0801C27.2437 45.4563 26.9906 45.211 26.9893 44.389C26.9893 40.1414 26.9893 35.8947 26.9893 31.6488C26.9893 30.8659 27.2398 30.618 28.007 30.6167C30.4487 30.6167 32.8892 30.6167 35.3283 30.6167C36.1308 30.6167 36.3591 30.8542 36.3604 31.6736C36.3665 33.8057 36.3669 35.9373 36.3617 38.0685Z" fill="#044388"/>
<path d="M30.8551 20.22C30.8655 20.9638 30.8694 21.7088 30.8916 22.4525C30.9007 22.7983 30.6672 22.7383 30.4649 22.7396C28.6191 22.7474 26.7732 22.7553 24.9273 22.7631C24.7538 22.7631 24.5698 22.7109 24.4054 22.827C23.9174 23.4651 23.3772 24.0288 22.5786 24.2963C21.9523 24.5076 21.2766 24.5237 20.641 24.3424C20.0053 24.1611 19.4397 23.791 19.0191 23.2811C18.8965 23.1324 18.7777 22.981 18.6564 22.831C18.4985 22.7005 18.3132 22.7657 18.1345 22.7644C16.4817 22.7488 14.8289 22.737 13.1762 22.7292C13.1263 22.6755 13.088 22.6121 13.0638 22.5429C13.0395 22.4738 13.0298 22.4004 13.0352 22.3273C13.0548 21.6344 12.9335 20.9377 13.1161 20.2513C13.2466 20.0687 13.4489 20.0621 13.6381 20.0647C16.1582 20.085 18.6585 20.5116 21.0429 21.3278C21.1328 21.3646 21.2178 21.4123 21.296 21.47C21.3664 21.5058 21.4441 21.5244 21.5231 21.5244C21.602 21.5244 21.6797 21.5058 21.7501 21.47C22.6452 21.0172 23.6199 20.8176 24.5854 20.6062C26.4283 20.2078 28.3111 20.0248 30.1961 20.0608C30.4401 20.0648 30.6789 20.0217 30.8551 20.22Z" fill="#4098F9"/>
<path d="M10.5559 22.7328L8.5987 22.7537L4.94522 22.7355C4.23149 22.7355 4.00054 22.5645 3.85832 21.8899C2.93973 17.5406 2.02636 13.1881 1.11821 8.83267C1.02426 8.38381 1.07776 7.98324 1.57881 7.78882C1.85804 7.83971 1.83977 8.09284 1.88675 8.27943C2.44782 10.5028 3.02193 12.721 3.60909 14.934C4.07883 16.7229 4.49506 18.5235 4.93348 20.3202C4.96349 20.4507 4.91521 20.5812 4.99089 20.6999C4.98545 20.8334 5.02599 20.9647 5.10571 21.0718C5.52586 21.3328 5.94992 21.3184 6.41052 21.1605C7.58445 20.77 8.7923 20.49 10.0183 20.3242C10.5624 20.2485 10.6185 20.2902 10.6055 20.8343C10.5859 21.4711 10.6629 22.1039 10.5559 22.7328Z" fill="#4098F9"/>
<path d="M37.8747 21.1671C37.9513 21.0979 38.0114 21.0124 38.0505 20.9169C38.0896 20.8213 38.1066 20.7182 38.1004 20.6151C38.7111 17.6206 39.5461 14.6821 40.3056 11.7241C40.6004 10.5746 40.8575 9.41463 41.202 8.27814C41.2581 8.09155 41.232 7.83841 41.5099 7.78491C41.9679 7.98063 42.0605 8.34989 41.9679 8.79092C41.0502 13.1542 40.1303 17.5175 39.2082 21.8808C39.0621 22.5737 38.8481 22.7316 38.1343 22.7355L34.4809 22.7537L33.4997 22.7185C33.2269 22.0426 33.3483 21.3523 33.4188 20.6634C33.604 20.3881 33.8754 20.4651 34.122 20.5134C34.9814 20.6691 35.8283 20.8871 36.656 21.1658C37.0696 21.308 37.4663 21.3615 37.8747 21.1671Z" fill="#4098F9"/>
<path d="M4.98298 20.7001C4.46106 19.0156 4.06961 17.2893 3.62598 15.5826C2.96313 13.0578 2.32116 10.5278 1.66876 8.00036C1.64306 7.92502 1.61075 7.85211 1.5722 7.78247C1.57314 7.71871 1.56878 7.655 1.55916 7.59197C1.33995 6.6525 1.41432 6.48938 2.26245 6.04053C2.60301 6.88474 2.65389 7.79291 2.83004 8.67236C3.1719 10.3777 3.44461 12.0962 3.75907 13.8068C4.16095 15.9923 4.57849 18.1753 4.98429 20.3608C4.99494 20.4737 4.99451 20.5873 4.98298 20.7001Z" fill="#B7C6CF"/>
<path d="M41.5091 7.78236C41.0798 8.95669 40.8449 10.1845 40.5305 11.3902C39.7619 14.326 39.013 17.2618 38.2536 20.2068C38.2104 20.345 38.1589 20.4805 38.0996 20.6126C38.144 19.7397 38.3762 18.898 38.5302 18.0447C38.9999 15.4455 39.4718 12.8476 39.9459 10.2511C40.1769 8.98278 40.4052 7.71582 40.6401 6.44885C40.6585 6.3184 40.728 6.20061 40.8332 6.12134C41.5874 6.44232 41.7074 6.67196 41.5378 7.45093C41.5209 7.56066 41.5114 7.67138 41.5091 7.78236Z" fill="#B7C6CF"/>
<path d="M0.413078 42.0454C1.07592 42.0558 1.74007 42.0885 2.40292 42.0663C2.7787 42.0545 2.87787 42.1837 2.86091 42.5399C2.83351 43.1062 2.86091 43.6751 2.85048 44.2362C2.84134 44.6276 2.88309 45.0086 3.20277 45.3335C2.87135 45.451 2.56471 45.3505 2.27244 45.4053C2.15027 45.4011 2.03125 45.3655 1.92682 45.302C1.82239 45.2384 1.73607 45.1491 1.67614 45.0426C1.16596 44.2727 0.646647 43.5081 0.142989 42.7344C-0.107535 42.3599 -0.0357774 42.1942 0.413078 42.0454Z" fill="#044388"/>
<path d="M21.5891 8.38647V10.7077H21.4912V8.38778L21.5891 8.38647Z" fill="#D8E4EC"/>
<path d="M30.8559 20.22C27.7674 20.1143 24.7507 20.5045 21.8292 21.5418C21.7821 21.5528 21.734 21.5585 21.6857 21.5588C21.6583 21.5392 21.6478 21.5183 21.6583 21.4988C21.6687 21.4792 21.6765 21.4674 21.6857 21.4674C23.3608 19.3779 25.7732 18.0101 28.4263 17.6456C29.1244 17.5413 29.8147 17.6039 30.514 17.5621C30.7933 17.5452 30.8807 17.6652 30.8755 17.9327C30.8546 18.6947 30.8598 19.458 30.8559 20.22Z" fill="#B7C6CF"/>
<path d="M10.5667 3.88354C12.7144 3.88354 14.3402 4.61293 15.7859 5.78857C16.0769 6.02474 16.1134 6.61582 15.8733 6.90158C15.742 7.05765 15.5541 7.1553 15.3509 7.17315C15.1476 7.191 14.9456 7.12761 14.789 6.99683C14.2119 6.52373 13.5677 6.13896 12.8775 5.85512C11.193 5.1727 9.54891 5.38799 7.93094 6.08607C7.43 6.31754 6.95206 6.59585 6.50348 6.91725C6.07159 7.21214 5.54836 7.18473 5.3148 6.87418C5.05384 6.51797 5.16083 5.98299 5.60969 5.66462C7.17025 4.56336 8.88868 3.92138 10.5667 3.88354Z" fill="#B7C6CF"/>
<path d="M32.2673 3.87842C34.2898 3.9267 36.033 4.64044 37.6262 5.76911C37.9394 5.99223 37.9955 6.55199 37.7658 6.87036C37.7028 6.95445 37.6231 7.02468 37.5318 7.07672C37.4405 7.12876 37.3395 7.16148 37.235 7.17286C37.1305 7.18424 37.0248 7.17405 36.9244 7.14289C36.8241 7.11172 36.7312 7.06025 36.6515 6.9917C35.6975 6.25779 34.5817 5.76295 33.3973 5.54857C31.8185 5.25107 30.378 5.59165 29.0418 6.44891C28.7965 6.60549 28.5682 6.78684 28.3294 6.95385C27.9575 7.21482 27.4017 7.17046 27.1812 6.86644C26.9359 6.5285 27.0507 6.01439 27.4082 5.71298C28.7622 4.54983 30.4824 3.90037 32.2673 3.87842Z" fill="#B7C6CF"/>
<path d="M21.3949 21.5625C19.8827 21.0784 18.3547 20.6491 16.7759 20.443C15.5859 20.289 14.392 20.1546 13.1877 20.2225C13.1681 20.2003 13.1485 20.1768 13.1277 20.1546C12.99 19.3169 12.99 18.4623 13.1277 17.6246L13.1916 17.5593C16.5319 17.588 19.2459 18.9294 21.3884 21.4738C21.4171 21.4946 21.4263 21.5155 21.4171 21.5364C21.408 21.5573 21.4054 21.5625 21.3949 21.5625Z" fill="#B7C6CF"/>
<path d="M32.4475 20.4259C32.4414 17.6832 32.4353 14.9405 32.4292 12.1978C32.4358 12.1665 32.4397 12.1247 32.4632 12.1104C33.2695 11.6158 33.5944 10.8552 33.6545 9.94831C33.9533 9.70562 34.2377 9.99787 34.5313 9.98482C34.4217 8.92792 33.6062 8.3486 32.3588 8.43341C32.3108 8.43156 32.2648 8.41365 32.2283 8.38254C32.1917 8.28076 32.1696 8.192 32.3314 8.1907C33.9836 8.15952 35.5936 8.7142 36.876 9.75647C37.1657 9.98743 37.15 10.2902 37.0652 10.5994C36.9804 10.9087 36.6986 11.0091 36.4389 11.0835C36.2523 11.137 36.0631 11.0222 35.8948 10.9217C35.6586 10.7808 35.4173 10.6451 35.1889 10.4924C34.9188 10.3136 34.7361 10.341 34.6944 10.6881C34.6226 11.2949 34.2168 11.6798 33.781 12.0151C33.683 12.0824 33.6047 12.1745 33.554 12.2821C33.5034 12.3896 33.4822 12.5087 33.4927 12.6271C33.4996 14.4642 33.4996 16.3023 33.4927 18.1412L33.4313 18.1869C33.4008 18.1982 33.3686 18.204 33.3361 18.2039C32.6484 18.1243 32.6602 18.1243 32.6445 18.8563C32.6328 19.3547 32.7241 19.8597 32.5702 20.3516C32.5592 20.3746 32.5418 20.3939 32.52 20.4071C32.4982 20.4204 32.473 20.4269 32.4475 20.4259Z" fill="#B7C6CF"/>
<path d="M10.8473 8.37607C11.2303 8.25842 11.6402 8.26116 12.0217 8.38391C12.4953 8.34607 12.7589 8.67877 13.0211 8.97888C13.2097 9.2017 13.3495 9.4616 13.4314 9.74179C13.5134 10.022 13.5356 10.3162 13.4968 10.6056C13.4579 10.8949 13.3588 11.1728 13.2059 11.4215C13.0529 11.6701 12.8495 11.8839 12.6088 12.0491C12.4627 12.1444 12.3192 12.2683 12.1208 12.1979C10.799 12.5136 9.74867 11.9747 9.42768 10.8174C9.34026 10.4977 9.40029 10.1728 9.38463 9.85052C9.36767 9.09373 10.1245 8.33041 10.8473 8.37607Z" fill="#FEFEFE"/>
<path d="M33.7069 9.9444C33.7839 10.9804 33.3794 11.745 32.4295 12.1978C31.1991 12.4927 30.1827 12.0556 29.8121 11.0365C29.5368 10.2797 29.6203 9.52815 30.1892 8.94882C30.7346 8.39166 31.4274 8.12289 32.2325 8.38255H32.3317C33.0624 8.47649 33.6848 9.1837 33.7069 9.9444Z" fill="#FEFEFE"/>
<path d="M12.1226 12.1979C13.5096 11.5337 13.6284 10.1923 13.1404 9.34161C12.8858 8.90632 12.4925 8.56909 12.0234 8.3839C12.8703 8.00028 13.9807 8.76097 14.2521 9.44731C14.6631 10.4912 14.4334 11.2962 13.4692 12.0348C13.3768 12.0954 13.3023 12.1796 13.2535 12.2787C13.2046 12.3779 13.1831 12.4882 13.1913 12.5984C13.1991 14.2516 13.1912 15.9061 13.1991 17.5567V17.5632C13.1511 17.6068 13.0947 17.6401 13.0334 17.6611C12.3718 17.8451 12.381 17.8451 12.3679 18.5471C12.3601 19.0807 12.4175 19.6157 12.3262 20.1468C12.3155 20.1897 12.293 20.2288 12.2611 20.2595C12.2293 20.2902 12.1894 20.3113 12.1461 20.3203L12.1226 12.1979Z" fill="#B7C6CF"/>
<path d="M10.557 22.7329C10.557 22.0805 10.557 21.4359 10.5792 20.7887C10.5909 20.456 10.4944 20.3842 10.1577 20.4377C8.79838 20.6444 7.4579 20.9603 6.14932 21.3824C5.72395 21.5233 5.35469 21.5128 5.10547 21.077C5.64697 20.8552 5.96144 20.3568 6.39203 20.0006C7.49997 19.1027 8.76547 18.419 10.1238 17.9846C10.4174 17.8868 10.5766 17.8946 10.5766 18.3043C10.5766 19.6091 10.6353 20.9231 10.6601 22.2318C10.6575 22.3962 10.7279 22.5933 10.557 22.7329Z" fill="#B7C6CF"/>
<path d="M37.8745 21.1671C37.6344 21.5429 37.3004 21.5011 36.9403 21.3889C35.8155 21.0379 34.6895 20.6961 33.5112 20.5656C33.4613 20.528 33.4233 20.4768 33.4016 20.4182C33.3612 19.6614 33.2216 18.8993 33.4956 18.1543H33.5021C34.3698 18.5457 35.2375 18.9294 36.0152 19.5009C36.6924 19.9928 37.3435 20.5108 37.8745 21.1671Z" fill="#B7C6CF"/>
<path d="M10.8471 8.37603C10.0838 8.59394 9.61404 9.10282 9.38569 9.85048C8.57349 10.13 7.79562 10.5007 7.06704 10.9556C6.91077 11.0572 6.72113 11.0939 6.53825 11.0581C6.35537 11.0223 6.19359 10.9168 6.08712 10.7638C5.87313 10.4572 5.91359 9.89873 6.20848 9.69387C7.54069 8.77137 8.98512 8.16463 10.6448 8.19334C10.7518 8.19464 10.9436 8.13073 10.8471 8.37603Z" fill="#B7C6CF"/>
<path d="M12.1377 20.3229L12.2251 20.2185C12.5422 19.9798 12.8671 20.0033 13.1972 20.1898L13.1868 20.2225V22.729C12.1429 22.7786 12.1429 22.7786 12.1429 21.7256C12.1442 21.2585 12.1403 20.7901 12.1377 20.3229Z" fill="#1682C1"/>
<path d="M33.4918 20.4992C33.499 20.5208 33.5038 20.5431 33.5061 20.5657C33.5061 21.2834 33.5018 22.0015 33.4931 22.72C32.4492 22.7735 32.4492 22.7735 32.4492 21.7283C32.4492 21.2938 32.4492 20.8606 32.4492 20.4235C32.4767 20.4148 32.5024 20.4011 32.5249 20.3831C32.872 20.2122 33.189 20.3178 33.4918 20.4992Z" fill="#1682C1"/>
<path d="M21.3945 21.5625V21.4686C21.5537 21.325 21.4872 21.1345 21.4885 20.9636C21.4885 19.9941 21.4885 19.0247 21.5889 18.0552C21.5889 19.0247 21.5889 19.9928 21.5889 20.9623C21.5889 21.1332 21.5224 21.3237 21.6816 21.4672C21.6816 21.4986 21.6816 21.5286 21.6816 21.5586C21.644 21.5971 21.5927 21.619 21.5389 21.6198C21.4851 21.6205 21.4332 21.5999 21.3945 21.5625Z" fill="#BCD2E0"/>
<path d="M13.6997 38.4664C13.6867 39.7517 12.5502 40.8491 11.308 40.776C10.0032 40.699 8.94633 39.569 9.03114 38.3308C9.12639 36.9581 10.2616 35.9821 11.5938 36.1008C11.8091 36.1217 11.8835 36.1543 11.8652 36.414C11.8464 36.6045 11.8666 36.7969 11.9248 36.9793C11.9829 37.1617 12.0777 37.3303 12.2032 37.4748C12.3288 37.6194 12.4826 37.7367 12.6551 37.8197C12.8276 37.9027 13.0153 37.9496 13.2065 37.9576C13.705 37.9798 13.705 37.9798 13.6997 38.4664Z" fill="#CBDCE6"/>
<path d="M27.7507 37.2868C27.7507 35.5136 27.7624 33.7403 27.7415 31.9671C27.7415 31.5561 27.8198 31.4034 28.2713 31.4073C30.533 31.4325 32.7946 31.4325 35.0563 31.4073C35.4712 31.4073 35.5782 31.5378 35.5691 31.9292C35.5561 35.4914 35.5561 39.0544 35.5691 42.6182C35.5691 43.0227 35.4582 43.1402 35.0472 43.1402C32.7855 43.1219 30.5238 43.1219 28.2622 43.1402C27.8498 43.1402 27.7402 43.0006 27.7402 42.6039C27.7611 40.8346 27.7507 39.06 27.7507 37.2868Z" fill="#4098F9"/>
<path d="M31.7122 43.897C31.9549 43.897 32.1963 43.897 32.439 43.897C32.6817 43.897 32.8304 44.0209 32.8304 44.2884C32.8355 44.3375 32.83 44.3871 32.8142 44.4339C32.7984 44.4807 32.7728 44.5236 32.739 44.5596C32.7052 44.5956 32.6641 44.6239 32.6184 44.6427C32.5727 44.6614 32.5235 44.6701 32.4742 44.6681C31.9418 44.682 31.409 44.682 30.8758 44.6681C30.8261 44.6687 30.7768 44.6586 30.7313 44.6385C30.6858 44.6185 30.6451 44.5889 30.612 44.5519C30.5789 44.5148 30.5541 44.471 30.5393 44.4235C30.5245 44.3761 30.52 44.326 30.5261 44.2767C30.5217 44.2277 30.5279 44.1784 30.5443 44.1321C30.5607 44.0858 30.5868 44.0436 30.621 44.0083C30.6552 43.973 30.6966 43.9455 30.7423 43.9276C30.7881 43.9098 30.8372 43.902 30.8862 43.9048C31.1603 43.9048 31.4356 43.9048 31.7096 43.9048L31.7122 43.897Z" fill="#FAFBFC"/>
<path d="M13.1978 20.19L12.2257 20.2187C12.2257 19.5245 12.2492 18.829 12.2074 18.1375C12.1774 17.6586 12.3471 17.4851 12.805 17.5607C12.9353 17.5708 13.0662 17.5708 13.1965 17.5607C13.1956 18.4358 13.1961 19.3123 13.1978 20.19Z" fill="#A6B3BC"/>
<path d="M33.4916 20.4992L32.5182 20.3857C32.5182 19.6954 32.5404 19.0052 32.5091 18.3162C32.4934 17.9405 32.6239 17.87 32.9423 17.9783C33.1236 18.0396 33.3076 18.0957 33.4903 18.1544C33.4912 18.9365 33.4916 19.718 33.4916 20.4992Z" fill="#A6B3BC"/>
<path d="M33.7063 9.94436C33.4806 9.21889 33.0539 8.67478 32.3311 8.37859C33.2966 7.98714 34.5779 8.83397 34.745 10.0409C34.7789 10.2797 34.6145 10.2001 34.4944 10.1479C34.2413 10.0435 33.9908 9.93001 33.7063 9.94436Z" fill="#A6B3BC"/>
</svg>
