<svg width="73" height="72" viewBox="0 0 73 72" fill="none" xmlns="http://www.w3.org/2000/svg">
<path d="M42.6801 23.0553C42.5065 22.8332 42.5731 22.5727 42.5731 22.3263C42.5731 17.3975 42.5731 12.4681 42.5731 7.538C42.5731 6.17085 42.9507 5.79321 44.3199 5.79321C51.2385 5.79321 58.1564 5.79321 65.0736 5.79321C66.3701 5.79321 66.7477 6.16277 66.7477 7.43501C66.7477 12.4412 66.7477 17.4453 66.7477 22.4515C66.7477 23.233 66.4812 23.7661 65.6693 23.9277C65.4766 23.9868 65.2735 24.004 65.0736 23.9782C59.8123 23.9782 54.551 23.9782 49.2897 23.9782C49.0615 23.9782 48.7304 24.1317 48.6213 23.8368C48.5264 23.5804 48.7808 23.3804 48.9707 23.2189C50.041 22.3061 51.081 21.3812 52.4461 20.8662C53.9991 20.2806 54.4817 18.8811 54.7038 17.3807C54.7385 16.9543 54.7317 16.5255 54.6836 16.1004C54.7439 15.6805 54.7608 15.2555 54.7341 14.8322C54.7018 14.5575 54.6614 14.2546 54.3646 14.1496C54.0293 14.0305 53.8678 14.3193 53.7204 14.5394C53.387 15.0991 52.927 15.5729 52.3775 15.9227C52.0927 16.0863 51.814 16.2498 51.4647 16.1852C51.317 16.1514 51.1873 16.0635 51.1012 15.9388C50.9578 15.6702 51.0285 15.4037 51.1173 15.1311C51.1658 14.9917 51.2688 14.8261 51.1375 14.709C50.9638 14.5555 50.8023 14.709 50.671 14.8181C49.8108 15.4966 49.1827 16.375 49.007 17.4433C48.8374 18.4732 48.3204 19.0851 47.4359 19.5657C46.0889 20.2968 44.7985 21.1328 43.4819 21.9204C43.2274 22.0739 42.9326 22.1991 42.9063 22.5605C42.8801 22.7443 42.8679 22.9402 42.6801 23.0553Z" fill="#168ED5"/>
<path d="M38.2057 30.1072C38.028 30.5232 37.6988 30.6141 37.2808 30.5636C36.4064 30.4606 35.528 30.4021 34.6556 30.2728C34.177 30.2021 33.9165 30.3576 33.7044 30.7756C33.3733 31.4847 33.2501 32.2732 33.349 33.0495C33.4439 34.1986 33.2924 34.4106 32.2221 34.758C26.3113 36.6744 20.5438 36.3331 14.9318 33.6412C14.0735 33.2373 13.8352 32.8476 14.0372 31.9752C14.54 29.7902 15.1883 27.6597 16.4241 25.7513C17.0788 24.7683 17.8711 23.8842 18.7768 23.126C19.2796 22.4213 20.0934 22.2658 20.8346 22.0194C21.4016 21.8347 21.9982 21.758 22.5935 21.7932C22.7873 21.8458 22.9649 21.9458 23.1105 22.084C24.4797 23.2836 26.7737 23.229 28.1106 22.1789C28.3354 21.9798 28.5853 21.8108 28.8537 21.6761C30.2148 21.6115 31.479 22.0477 32.7654 22.4172C32.8799 22.4676 32.9699 22.5613 33.0158 22.6777C35.2291 23.2364 37.4424 23.7951 39.6557 24.3539C39.8394 24.3983 39.997 24.4367 40.0172 24.6588C40.1222 24.9132 40.0172 25.1475 39.9404 25.3838C39.5042 26.759 38.9832 28.108 38.6096 29.5034C38.5574 29.749 38.4128 29.9652 38.2057 30.1072V30.1072Z" fill="#043C7B"/>
<path d="M61.7491 59.0798C65.3437 59.5766 67.6479 62.1857 67.7488 65.8711C67.8195 68.4621 67.8316 68.4964 65.4002 69.4253C59.2955 71.776 53.2836 71.5417 47.3384 68.7993C46.8639 68.5792 46.5307 68.2702 46.4963 67.7432C46.4378 66.691 46.3752 65.6248 46.565 64.5848C47.1123 61.5799 49.3033 59.5362 52.383 59.0879C55.4985 58.8045 58.6331 58.8018 61.7491 59.0798Z" fill="#168ED5"/>
<path d="M15.8109 59.0798C19.4054 59.5766 21.7096 62.1857 21.8106 65.8711C21.8813 68.4621 21.8934 68.4964 19.462 69.4253C13.3593 71.776 7.33529 71.5417 1.40019 68.7993C0.92562 68.5792 0.592417 68.2702 0.558087 67.7452C0.499523 66.691 0.438934 65.6248 0.626741 64.5848C1.17401 61.5799 3.36509 59.5362 6.44472 59.0879C9.56021 58.8045 12.6949 58.8018 15.8109 59.0798Z" fill="#168ED5"/>
<path d="M38.7803 59.0798C42.3749 59.5766 44.6791 62.1857 44.7801 65.8712C44.8508 68.4621 44.8629 68.4964 42.4315 69.4254C36.3267 71.776 30.3048 71.5417 24.3697 68.7993C23.8951 68.5792 23.5619 68.2702 23.5276 67.7452C23.469 66.6911 23.4064 65.6248 23.5962 64.5848C24.1435 61.5799 26.3346 59.5362 29.4142 59.0879C32.5297 58.8035 35.6644 58.8008 38.7803 59.0798V59.0798Z" fill="#168ED5"/>
<path d="M22.6153 21.9404C21.2587 22.0149 19.9412 22.4212 18.7784 23.1238C16.9124 20.2017 16.9003 17.0413 17.6475 13.8102C18.2957 11.0112 19.3256 8.37588 21.3511 6.25144C22.484 5.06401 23.8108 4.33702 25.5333 4.74292C25.6296 4.76841 25.7304 4.77186 25.8282 4.75302C27.8234 4.28249 29.2451 5.25182 30.4284 6.66744C32.6296 9.2927 33.6595 12.4329 34.0957 15.7751C34.3966 18.0651 34.1462 20.2925 33.0699 22.3827C33.039 22.4773 33.022 22.5759 33.0194 22.6755C31.6482 22.3019 30.283 21.9041 28.8573 21.797C28.6796 21.4618 28.9886 21.2982 29.1299 21.0922C30.2796 19.4587 30.7832 17.4572 30.5436 15.4742C29.2673 16.1931 28.2051 15.763 27.1873 14.9673C26.6076 14.4858 26.0567 13.9706 25.5374 13.4245C25.2044 13.0824 24.8361 12.7764 24.4388 12.5117C23.3927 11.8392 22.6032 11.9361 21.7873 12.8873C21.1641 13.5563 20.8246 14.4409 20.8402 15.355C20.8806 16.8353 20.7513 18.3196 21.446 19.715C21.7106 20.2277 22.0024 20.7259 22.3204 21.2073C22.4557 21.4315 22.7021 21.6193 22.6153 21.9404Z" fill="#168ED5"/>
<path d="M5.09733 50.7781C4.9903 49.8572 4.74797 48.9606 4.7722 48.0114C4.82874 45.893 6.24436 44.4734 8.34861 44.4734H14.0151C15.9639 44.4734 17.329 45.7638 17.4744 47.7045C17.5572 48.799 17.3351 49.8572 17.1574 50.9235C17.0463 52.3249 16.5051 53.5992 15.9457 54.8553C15.4853 55.865 14.6735 56.4486 13.5103 56.4446C11.9513 56.4446 10.3943 56.4264 8.83529 56.4446C8.36765 56.4698 7.90213 56.3653 7.49016 56.1426C7.07819 55.9198 6.7358 55.5875 6.50083 55.1824C5.74695 53.9585 5.28918 52.5756 5.16397 51.1436C5.17162 51.0181 5.14875 50.8927 5.09733 50.7781V50.7781Z" fill="#044387"/>
<path d="M51.0463 50.6104C50.9312 49.4916 50.6121 48.389 50.8444 47.246C50.9847 46.4623 51.3983 45.7537 52.0117 45.2461C52.625 44.7385 53.3985 44.4647 54.1946 44.4733H60.0772C61.8765 44.4733 63.2154 45.685 63.4274 47.4762C63.5809 48.7485 63.3063 49.9743 63.0781 51.2061C62.9488 52.5309 62.4359 53.7365 61.9068 54.932C61.7303 55.383 61.4199 55.7692 61.0173 56.0385C60.6148 56.3079 60.1394 56.4474 59.6551 56.4385C57.9447 56.4728 56.2221 56.4667 54.5197 56.4385C53.3464 56.4223 52.7285 55.5903 52.2317 54.7038C51.5494 53.4394 51.1452 52.0437 51.0463 50.6104V50.6104Z" fill="#044387"/>
<path d="M28.0626 50.6347C27.9334 49.5159 27.6022 48.4133 27.8607 47.2683C28.2383 45.5336 29.5126 44.4734 31.2735 44.4734H37.0895C38.9494 44.4734 40.3003 45.7557 40.4639 47.6277C40.5649 48.799 40.3327 49.9299 40.1287 51.0608C40.0277 52.3047 39.5491 53.4397 39.0725 54.5705C38.5556 55.7923 37.6791 56.485 36.2817 56.4506C34.7994 56.4163 33.3172 56.4224 31.8389 56.4506C30.7666 56.4688 30.0214 55.9841 29.4863 55.1017C28.6824 53.7384 28.1958 52.2117 28.0626 50.6347Z" fill="#044387"/>
<path d="M38.2061 30.1072C38.8119 28.2897 39.4177 26.4722 40.0235 24.6548C40.8838 25.0586 41.5482 24.5982 42.2166 24.158C42.4852 23.9823 42.7518 23.8026 43.0244 23.6248C43.1456 23.3502 43.4061 23.2351 43.6302 23.0937C44.8984 22.3324 46.1404 21.5246 47.445 20.8279C48.1921 20.424 48.594 19.9071 48.5879 19.067C48.848 18.0387 49.4108 17.1122 50.2035 16.4074C50.4761 16.1651 50.7568 15.8783 51.187 15.9328L51.4394 16.0601C51.8049 16.3771 51.5181 16.7022 51.4515 17.0233C51.4212 17.1687 51.3445 17.3303 51.4656 17.4514C51.6292 17.615 51.7968 17.4777 51.9442 17.3989C52.4611 17.1346 52.9018 16.7425 53.2246 16.26C53.3726 15.9964 53.5614 15.7578 53.7839 15.5532C54.2484 15.1675 54.5533 15.2664 54.832 15.8864C55.1239 16.9435 55.0155 18.0711 54.5278 19.0533C54.04 20.0355 53.2072 20.8032 52.1886 21.2096C50.775 21.7569 49.8319 22.8797 48.7031 23.9257H65.6703C65.4058 24.1459 65.0887 24.0469 64.7979 24.0469C59.9392 24.0469 55.0764 24.1317 50.2217 24.0045C48.7031 23.9641 47.6873 24.5154 46.6493 25.4484C44.9166 27.0074 43.1032 28.4775 41.3483 30.0083C40.6597 30.6141 39.9468 30.7009 39.1269 30.3536C38.8436 30.2002 38.5281 30.1158 38.2061 30.1072Z" fill="#CBDCE6"/>
<path d="M28.0623 50.6345C28.3592 51.618 28.648 52.6035 28.959 53.5829C29.1483 54.1833 29.4355 54.7483 29.8092 55.255C30.0277 55.5788 30.3253 55.8414 30.6738 56.0181C31.0222 56.1948 31.4099 56.2797 31.8003 56.2647C33.3351 56.2405 34.8719 56.2526 36.4066 56.2647C37.6183 56.2647 38.4119 55.7094 38.83 54.5946C39.2682 53.4213 39.6923 52.242 40.1204 51.0667C40.292 52.8842 40.0517 54.5744 38.6058 55.8891C38.1607 56.2956 37.6446 56.6167 37.0831 56.8362C36.5359 57.0543 36.3259 57.7389 36.5238 58.6194C36.647 59.1646 37.0811 58.894 37.382 58.9445C37.8445 59.0232 38.3352 58.8274 38.7815 59.0778H29.4154C29.9344 58.8112 30.4937 58.9586 31.0309 58.9566C31.4994 58.9566 31.6913 58.8415 31.6973 58.3286C31.7094 57.5491 31.6549 57.02 30.7482 56.6141C28.8903 55.778 28.1229 54.118 28.0583 52.1249C28.0401 51.6341 28.0603 51.1333 28.0623 50.6345Z" fill="#CADCE6"/>
<path d="M5.0976 50.7781C5.46514 51.8443 5.67314 52.9591 6.12145 53.9991C6.34872 54.5865 6.68286 55.1267 7.10694 55.5924C7.31258 55.8136 7.56307 55.9884 7.84167 56.1051C8.12027 56.2217 8.42057 56.2776 8.72248 56.2689C10.3077 56.2548 11.893 56.2689 13.4782 56.2689C14.6152 56.2689 15.3987 55.7257 15.7986 54.6776C16.2731 53.4377 16.7053 52.1816 17.1556 50.9336C17.1677 52.0301 17.297 53.1388 16.8305 54.1909C16.5801 54.7948 16.2095 55.3415 15.7411 55.7977C15.2728 56.2539 14.7166 56.61 14.1063 56.8444C13.6337 57.0302 13.2824 58.46 13.6176 58.8376C13.769 59.0153 13.9912 58.9366 14.185 58.9568C14.7242 59.0153 15.2836 58.8295 15.8006 59.084H6.43446C6.95548 58.8174 7.51284 58.9648 8.05001 58.9628C8.52054 58.9628 8.70632 58.8457 8.7144 58.3328C8.72854 57.5512 8.66796 57.0262 7.76325 56.6183C5.90336 55.7822 5.13799 54.1182 5.07539 52.125C5.07337 51.6787 5.0875 51.2284 5.0976 50.7781Z" fill="#CBDCE6"/>
<path d="M51.0453 50.6104C51.3421 51.5898 51.6228 52.5773 51.9399 53.5506C52.1463 54.2245 52.4802 54.8525 52.9233 55.4004C53.1376 55.6805 53.4155 55.9055 53.734 56.0568C54.0525 56.2082 54.4025 56.2815 54.755 56.2708C56.3362 56.2506 57.9194 56.2708 59.5026 56.2708C60.5992 56.2708 61.3706 55.7458 61.7705 54.728C62.2248 53.5648 62.6449 52.3854 63.0791 51.2142C63.3234 53.375 62.7681 55.1965 60.8577 56.4404C60.6108 56.6134 60.3382 56.7463 60.0499 56.8342C59.6036 56.9514 59.4623 57.1937 59.4744 57.642C59.5168 59.2252 59.3068 58.9163 60.7971 58.9607C61.1142 58.9708 61.4534 58.8638 61.7462 59.0839H52.3801C52.9011 58.8173 53.4605 58.9627 53.9957 58.9627C54.4702 58.9627 54.6459 58.8355 54.6601 58.3286C54.6823 57.537 54.5974 57.02 53.7008 56.6161C51.8349 55.772 51.0756 54.104 51.019 52.1088C51.0109 51.612 51.0392 51.1112 51.0453 50.6104Z" fill="#CBDCE6"/>
<path d="M48.7431 19.071C48.8036 19.9232 48.4785 20.4846 47.6808 20.9067C46.0895 21.7528 44.5608 22.712 43.0059 23.6268C42.9114 23.5628 42.8328 23.478 42.7761 23.379C42.7194 23.2799 42.6861 23.1692 42.6787 23.0553C42.6908 22.8352 42.7029 22.6151 42.713 22.395C44.4578 21.2621 46.2612 20.2261 48.0544 19.1639C48.2564 19.0569 48.4785 18.8691 48.7431 19.071Z" fill="#1481C1"/>
<path d="M72.4914 16.4679C72.4914 16.894 72.5075 17.3222 72.4914 17.7462C72.4965 17.8603 72.4779 17.9742 72.4367 18.0807C72.3956 18.1873 72.3328 18.2841 72.2523 18.3651C72.1719 18.4462 72.0755 18.5096 71.9693 18.5515C71.863 18.5934 71.7493 18.6128 71.6351 18.6085C71.5204 18.6225 71.404 18.612 71.2935 18.5779C71.1831 18.5438 71.0811 18.4867 70.9942 18.4105C70.9072 18.3342 70.8374 18.2405 70.7892 18.1355C70.7409 18.0304 70.7154 17.9164 70.7143 17.8008C70.6577 16.8754 70.6577 15.9474 70.7143 15.022C70.7177 14.9069 70.7453 14.7939 70.7954 14.6902C70.8455 14.5866 70.917 14.4947 71.005 14.4205C71.0931 14.3464 71.1958 14.2916 71.3065 14.2599C71.4172 14.2282 71.5333 14.2202 71.6473 14.2365C72.1784 14.2647 72.4671 14.5838 72.4894 15.1089C72.5096 15.5652 72.4934 16.0277 72.4914 16.4679Z" fill="#4098F9"/>
<path d="M72.4934 31.9814C72.4934 32.4075 72.4934 32.8336 72.4934 33.2597C72.5003 33.3737 72.4839 33.4879 72.4453 33.5954C72.4067 33.7029 72.3467 33.8015 72.269 33.8851C72.1912 33.9687 72.0972 34.0357 71.9928 34.082C71.8884 34.1283 71.7757 34.1528 71.6614 34.1543C71.5475 34.1737 71.4306 34.1684 71.3189 34.1388C71.2071 34.1092 71.103 34.0559 71.0136 33.9826C70.9242 33.9092 70.8516 33.8176 70.8006 33.7138C70.7497 33.61 70.7216 33.4964 70.7184 33.3808C70.6538 32.4315 70.6538 31.4788 70.7184 30.5294C70.7547 30.0326 71.1384 29.7398 71.6776 29.7943C71.7861 29.7943 71.8935 29.8161 71.9934 29.8584C72.0933 29.9008 72.1836 29.9628 72.259 30.0408C72.3344 30.1189 72.3933 30.2113 72.4322 30.3126C72.4711 30.4139 72.4892 30.5219 72.4854 30.6304C72.5096 31.0787 72.4854 31.531 72.4854 31.9814H72.4934Z" fill="#4098F9"/>
<path d="M9.32821 31.4359C9.32821 31.862 9.34437 32.2881 9.32821 32.7142C9.33384 32.8281 9.31583 32.9419 9.27531 33.0485C9.23479 33.1551 9.17264 33.2521 9.09278 33.3335C9.01291 33.4149 8.91707 33.4788 8.81127 33.5213C8.70547 33.5639 8.59201 33.584 8.47804 33.5805C8.36442 33.5972 8.24854 33.5894 8.13816 33.5578C8.02777 33.5261 7.9254 33.4713 7.83787 33.397C7.75035 33.3226 7.67968 33.2305 7.63058 33.1267C7.58148 33.0229 7.55508 32.9098 7.55314 32.795C7.49661 31.8689 7.49661 30.9403 7.55314 30.0142C7.55397 29.8985 7.57927 29.7843 7.62739 29.6791C7.67551 29.5739 7.74536 29.48 7.83234 29.4037C7.91932 29.3274 8.02146 29.2704 8.13205 29.2364C8.24264 29.2024 8.35917 29.1922 8.47399 29.2064C8.58824 29.2036 8.70187 29.2242 8.80784 29.267C8.91382 29.3098 9.00989 29.3738 9.09013 29.4552C9.17038 29.5366 9.23309 29.6336 9.27438 29.7401C9.31568 29.8467 9.33469 29.9606 9.33024 30.0748C9.34235 30.5332 9.32821 30.9856 9.32821 31.4359Z" fill="#4098F9"/>
<path d="M9.32927 8.11758C9.32927 8.54368 9.34139 8.96978 9.32927 9.39588C9.33531 9.50988 9.31804 9.62391 9.27854 9.73102C9.23903 9.83813 9.17811 9.93606 9.09949 10.0188C9.02087 10.1016 8.92621 10.1675 8.82127 10.2125C8.71634 10.2574 8.60335 10.2805 8.48918 10.2804C8.37523 10.2972 8.259 10.2898 8.14812 10.2586C8.03723 10.2274 7.93418 10.1732 7.84572 10.0994C7.75726 10.0256 7.68538 9.93398 7.63479 9.83049C7.5842 9.727 7.55605 9.61399 7.55217 9.49887C7.49563 8.57348 7.49563 7.64551 7.55217 6.72013C7.55123 6.6048 7.575 6.49061 7.62187 6.38523C7.66875 6.27985 7.73764 6.18573 7.82393 6.10921C7.91021 6.03268 8.01188 5.97551 8.1221 5.94156C8.23232 5.90761 8.34854 5.89765 8.46293 5.91236C8.57678 5.9058 8.69074 5.92311 8.79749 5.9632C8.90425 6.00329 9.00144 6.06525 9.08283 6.14512C9.16422 6.22499 9.22801 6.321 9.27011 6.42698C9.3122 6.53296 9.33166 6.64657 9.32725 6.76052C9.3535 7.21085 9.32725 7.6632 9.32725 8.11354L9.32927 8.11758Z" fill="#4098F9"/>
<path d="M9.32923 15.9165C9.32923 16.3204 9.34135 16.7242 9.32923 17.1281C9.30903 17.6855 9.02833 18.0288 8.4528 18.0429C7.87726 18.0571 7.55819 17.7037 7.53597 17.1625C7.4976 16.288 7.49155 15.4096 7.53597 14.5372C7.53409 14.416 7.55831 14.2959 7.60699 14.1849C7.65568 14.074 7.72769 13.9748 7.81812 13.8941C7.90855 13.8134 8.01528 13.7532 8.13107 13.7175C8.24686 13.6817 8.36898 13.6713 8.48914 13.687C8.60341 13.6868 8.71652 13.71 8.82143 13.7553C8.92635 13.8006 9.02083 13.8669 9.09904 13.9503C9.17724 14.0336 9.23749 14.1321 9.27604 14.2396C9.3146 14.3472 9.33064 14.4615 9.32317 14.5756C9.33933 15.0178 9.32923 15.4641 9.32923 15.9165Z" fill="#4098F9"/>
<path d="M9.32815 23.7014C9.32815 24.1052 9.32815 24.5091 9.32815 24.913C9.31603 25.4865 8.98686 25.8157 8.44364 25.8278C8.32915 25.837 8.21399 25.8224 8.1054 25.785C7.9968 25.7476 7.89711 25.6882 7.81255 25.6105C7.72799 25.5327 7.6604 25.4384 7.61401 25.3333C7.56762 25.2282 7.54343 25.1147 7.54297 24.9999C7.49349 24.0999 7.49349 23.1978 7.54297 22.2979C7.57326 21.7587 7.92464 21.4295 8.50624 21.4699C9.04341 21.5083 9.31401 21.8374 9.32815 22.3605C9.34026 22.8027 9.32815 23.2551 9.32815 23.7014Z" fill="#4098F9"/>
<path d="M72.4964 24.2225C72.4964 24.6264 72.4964 25.0303 72.4964 25.4221C72.4964 25.9794 72.2218 26.3348 71.6463 26.3631C71.5264 26.3797 71.4043 26.3699 71.2886 26.3342C71.1729 26.2985 71.0665 26.238 70.9768 26.1567C70.8871 26.0755 70.8162 25.9755 70.7693 25.8639C70.7224 25.7524 70.7005 25.6319 70.7052 25.5109C70.6608 24.6385 70.6608 23.7601 70.7052 22.8856C70.7002 22.7645 70.7214 22.6437 70.7672 22.5314C70.813 22.4192 70.8823 22.3181 70.9706 22.2349C71.0589 22.1518 71.164 22.0887 71.2788 22.0497C71.3937 22.0108 71.5155 21.997 71.6362 22.0092C72.1794 22.0314 72.4944 22.3727 72.4985 22.9462C72.4985 23.3703 72.4944 23.7964 72.4964 24.2225Z" fill="#4098F9"/>
<path d="M72.4951 8.70692C72.4951 9.11081 72.4951 9.5147 72.4951 9.90647C72.4951 10.478 72.174 10.8132 71.6267 10.8394C71.5127 10.8518 71.3973 10.8402 71.2879 10.8054C71.1786 10.7706 71.0777 10.7134 70.9918 10.6373C70.9059 10.5613 70.8368 10.4681 70.7889 10.3638C70.7411 10.2595 70.7155 10.1464 70.714 10.0317C70.6604 9.10822 70.6604 8.18244 70.714 7.25899C70.7443 6.75413 71.1178 6.45122 71.6469 6.48555C71.7608 6.48248 71.874 6.50322 71.9794 6.54644C72.0847 6.58965 72.1799 6.6544 72.2588 6.73652C72.3377 6.81865 72.3985 6.91634 72.4375 7.02335C72.4765 7.13036 72.4926 7.24432 72.485 7.35794C72.5012 7.80626 72.485 8.25861 72.485 8.70894L72.4951 8.70692Z" fill="#4098F9"/>
<path d="M7.83232 1.51804C7.83232 1.0253 7.71721 0.439662 8.30891 0.213485C8.64392 0.0683584 9.00583 -0.0043253 9.3709 0.000198955C9.73597 0.00472321 10.096 0.0863533 10.4273 0.239738C10.5851 0.325075 10.7094 0.46138 10.7798 0.626418C10.8502 0.791455 10.8626 0.975484 10.815 1.14848C10.7931 1.32426 10.7153 1.48836 10.5932 1.61667C10.471 1.74498 10.311 1.83074 10.1365 1.86134C9.89618 1.91183 9.67 1.87952 9.63163 2.25513C9.57307 2.80845 9.19544 3.08714 8.63605 3.0629C8.07667 3.03867 7.91511 2.57824 7.83838 2.11983C7.81915 1.91977 7.81713 1.71844 7.83232 1.51804V1.51804Z" fill="#4098F9"/>
<path d="M43.6095 40.5373C43.2339 40.5373 42.8563 40.5575 42.4827 40.5373C42.3688 40.5408 42.2554 40.5207 42.1497 40.4781C42.044 40.4356 41.9483 40.3716 41.8686 40.2902C41.7889 40.2087 41.7269 40.1117 41.6866 40.0051C41.6464 39.8985 41.6286 39.7848 41.6345 39.671C41.6198 39.5566 41.6298 39.4404 41.6637 39.3301C41.6977 39.2199 41.7548 39.1182 41.8314 39.032C41.9079 38.9457 42.002 38.8768 42.1074 38.8299C42.2128 38.783 42.327 38.7593 42.4423 38.7602C43.2672 38.7027 44.0952 38.7027 44.9201 38.7602C45.0352 38.7644 45.148 38.7928 45.2513 38.8435C45.3547 38.8941 45.4462 38.966 45.5199 39.0544C45.5936 39.1428 45.6479 39.2457 45.6792 39.3565C45.7105 39.4672 45.7182 39.5833 45.7017 39.6972C45.7012 39.8112 45.6777 39.9239 45.6326 40.0286C45.5874 40.1333 45.5215 40.2277 45.4389 40.3062C45.3562 40.3847 45.2585 40.4457 45.1517 40.4854C45.0448 40.5251 44.931 40.5428 44.8171 40.5373C44.4133 40.5494 44.0094 40.5373 43.6055 40.5373H43.6095Z" fill="#4098F9"/>
<path d="M50.5749 40.5374C50.1992 40.5374 49.8216 40.5556 49.448 40.5374C49.3404 40.5407 49.2333 40.5226 49.1327 40.4844C49.0321 40.4461 48.94 40.3883 48.8618 40.3144C48.7836 40.2405 48.7207 40.1519 48.6768 40.0536C48.6329 39.9553 48.6088 39.8494 48.6059 39.7418C48.5575 39.2107 48.8422 38.8189 49.345 38.7765C50.1947 38.7119 51.048 38.7119 51.8976 38.7765C52.013 38.7801 52.1263 38.8083 52.2299 38.8594C52.3334 38.9104 52.4249 38.9831 52.498 39.0724C52.5711 39.1618 52.6242 39.2658 52.6537 39.3775C52.6832 39.4891 52.6884 39.6057 52.669 39.7196C52.6681 39.8336 52.644 39.9462 52.5982 40.0506C52.5524 40.1551 52.4858 40.249 52.4025 40.3269C52.3191 40.4047 52.2208 40.4648 52.1136 40.5034C52.0063 40.542 51.8923 40.5584 51.7784 40.5516C51.3746 40.5657 50.9707 40.5516 50.5668 40.5516L50.5749 40.5374Z" fill="#4098F9"/>
<path d="M64.5323 40.5395C64.1567 40.5395 63.7811 40.5557 63.4055 40.5395C63.2913 40.5426 63.1777 40.5224 63.0716 40.4802C62.9655 40.4379 62.8691 40.3745 62.7883 40.2939C62.7074 40.2132 62.6438 40.117 62.6013 40.011C62.5589 39.905 62.5384 39.7914 62.5412 39.6772C62.5285 39.5629 62.5398 39.4472 62.5745 39.3375C62.6091 39.2278 62.6663 39.1266 62.7424 39.0403C62.8184 38.9539 62.9116 38.8845 63.0161 38.8363C63.1205 38.7881 63.2339 38.7623 63.3489 38.7604C64.1739 38.7039 65.0018 38.7039 65.8268 38.7604C66.3296 38.7968 66.6345 39.1482 66.6083 39.6894C66.582 40.2306 66.261 40.4971 65.7379 40.5335C65.3361 40.5557 64.9342 40.5395 64.5323 40.5395Z" fill="#4098F9"/>
<path d="M15.7201 1.85907C15.3445 1.85907 14.9689 1.87321 14.5933 1.85907C14.4791 1.86319 14.3654 1.84406 14.2589 1.80282C14.1523 1.76158 14.0553 1.69911 13.9737 1.61921C13.8921 1.53931 13.8276 1.44364 13.7842 1.33802C13.7407 1.23241 13.7192 1.11905 13.7209 1.00485C13.7058 0.890367 13.715 0.773997 13.7479 0.663292C13.7807 0.552587 13.8364 0.450019 13.9115 0.36224C13.9865 0.274461 14.0791 0.203431 14.1834 0.153757C14.2876 0.104083 14.4011 0.0768746 14.5165 0.0738958C15.3442 0.0160582 16.1748 0.0160582 17.0025 0.0738958C17.1174 0.0753082 17.2308 0.101247 17.3349 0.149977C17.439 0.198707 17.5316 0.269107 17.6063 0.356469C17.6811 0.443832 17.7363 0.546144 17.7683 0.656566C17.8004 0.766988 17.8085 0.882976 17.7921 0.996776C17.7961 1.11064 17.7765 1.2241 17.7344 1.32999C17.6924 1.43588 17.6288 1.53191 17.5478 1.61199C17.4668 1.69208 17.37 1.75449 17.2636 1.79528C17.1572 1.83607 17.0436 1.85435 16.9298 1.84898C16.5239 1.87523 16.122 1.85907 15.7201 1.85907Z" fill="#4098F9"/>
<path d="M43.6583 1.8552C43.2545 1.8552 42.8506 1.87741 42.4568 1.8552C42.3497 1.8568 42.2433 1.8371 42.1439 1.79722C42.0445 1.75735 41.954 1.6981 41.8778 1.62293C41.8015 1.54776 41.7409 1.45817 41.6995 1.35937C41.6582 1.26057 41.6369 1.15453 41.6369 1.04743C41.5945 0.508238 41.8853 0.134643 42.3901 0.0982931C43.2391 0.0326653 44.0918 0.0326653 44.9407 0.0982931C45.0561 0.103786 45.1691 0.133991 45.2718 0.186866C45.3746 0.239742 45.4648 0.314058 45.5364 0.404795C45.608 0.495531 45.6593 0.600575 45.6868 0.712832C45.7144 0.825088 45.7175 0.941943 45.6959 1.0555C45.6908 1.16873 45.6631 1.27979 45.6144 1.38212C45.5656 1.48445 45.4968 1.57596 45.4121 1.65127C45.3274 1.72657 45.2285 1.78413 45.1211 1.82054C45.0138 1.85696 44.9003 1.87149 44.7872 1.86328C44.4116 1.86328 44.036 1.86328 43.6583 1.86328V1.8552Z" fill="#4098F9"/>
<path d="M50.6256 1.86128C50.25 1.86128 49.8724 1.87339 49.4968 1.86128C48.9737 1.84108 48.6445 1.56846 48.6042 1.03735C48.5638 0.506239 48.8687 0.126586 49.3675 0.0902362C50.2171 0.0246088 51.0705 0.0246088 51.9201 0.0902362C52.4189 0.130625 52.7278 0.522395 52.6673 1.04947C52.6625 1.26747 52.5717 1.47474 52.4147 1.62606C52.2577 1.77739 52.0472 1.86049 51.8292 1.85724C51.4253 1.87945 51.0214 1.85724 50.6175 1.85724L50.6256 1.86128Z" fill="#4098F9"/>
<path d="M9.26049 40.5456C8.77583 40.5213 8.18616 40.6809 7.9721 40.0528C7.73582 39.3561 7.6611 38.6231 8.03268 37.9425C8.1136 37.7975 8.23881 37.6823 8.38997 37.6136C8.54114 37.5449 8.71033 37.5264 8.87276 37.5608C9.04904 37.5783 9.2158 37.6491 9.35076 37.7639C9.48571 37.8786 9.58245 38.0318 9.62803 38.203C9.68861 38.4191 9.59167 38.6917 9.99556 38.7301C10.5852 38.7866 10.8982 39.1804 10.8134 39.7721C10.7286 40.3638 10.2823 40.5799 9.71284 40.5456C9.5634 40.5375 9.41195 40.5435 9.26049 40.5456Z" fill="#4098F9"/>
<path d="M57.5385 1.85706C57.1629 1.85706 56.7873 1.87322 56.4117 1.85706C56.1933 1.86085 55.9823 1.77799 55.8249 1.62661C55.6674 1.47523 55.5764 1.26765 55.5716 1.04929C55.5495 0.936076 55.5519 0.819444 55.5787 0.707238C55.6054 0.595032 55.6559 0.489855 55.7267 0.398784C55.7974 0.307712 55.8869 0.232858 55.9891 0.179258C56.0912 0.125657 56.2036 0.0945534 56.3188 0.0880392C57.1677 0.0224114 58.0204 0.0224114 58.8693 0.0880392C59.3681 0.124389 59.6771 0.491925 59.6347 1.03313C59.5923 1.57434 59.2651 1.84091 58.7421 1.85908C58.3382 1.87524 57.9343 1.85908 57.5305 1.85908L57.5385 1.85706Z" fill="#4098F9"/>
<path d="M64.5354 1.85908C64.1597 1.85908 63.7841 1.87322 63.4085 1.85908C63.2944 1.86324 63.1806 1.84403 63.0742 1.80262C62.9678 1.76122 62.8709 1.69851 62.7896 1.61832C62.7083 1.53814 62.6442 1.44218 62.6013 1.33634C62.5584 1.23051 62.5376 1.11702 62.5402 1.00284C62.5262 0.888082 62.5367 0.771673 62.5708 0.661222C62.6049 0.55077 62.662 0.44876 62.7382 0.361854C62.8144 0.274948 62.9082 0.205101 63.0132 0.156875C63.1183 0.10865 63.2323 0.0831302 63.3479 0.0819834C64.1729 0.02443 65.0008 0.02443 65.8258 0.0819834C65.9406 0.0839254 66.0537 0.110327 66.1575 0.159426C66.2613 0.208526 66.3534 0.279196 66.4278 0.366722C66.5021 0.454248 66.557 0.556619 66.5886 0.667007C66.6203 0.777395 66.628 0.893263 66.6113 1.00688C66.5851 1.54001 66.2721 1.82677 65.747 1.85504C65.3391 1.87524 64.9372 1.85706 64.5354 1.85908Z" fill="#4098F9"/>
<path d="M71.0428 40.5394C70.8409 40.5394 70.639 40.5394 70.437 40.5394C69.9059 40.5273 69.5727 40.2386 69.5121 39.7317C69.4889 39.6193 69.4895 39.5034 69.5137 39.3912C69.5379 39.2791 69.5853 39.1733 69.6528 39.0805C69.7203 38.9877 69.8064 38.9101 69.9056 38.8525C70.0048 38.7949 70.115 38.7587 70.229 38.7462C70.5925 38.6917 70.6329 38.5443 70.6995 38.2413C70.7367 38.0261 70.8566 37.834 71.0336 37.7061C71.2106 37.5781 71.4306 37.5245 71.6467 37.5567C71.8766 37.5641 72.0943 37.6625 72.2518 37.8302C72.4093 37.998 72.4938 38.2214 72.4867 38.4514C72.4968 38.6533 72.4968 38.8552 72.4968 39.0572C72.5009 40.3597 72.3191 40.5435 71.0428 40.5394Z" fill="#4098F9"/>
<path d="M15.6866 40.5375C15.311 40.5375 14.9334 40.5557 14.5577 40.5375C14.3409 40.5381 14.1323 40.4541 13.9765 40.3032C13.8207 40.1523 13.73 39.9465 13.7237 39.7298C13.7025 39.6165 13.7058 39.5 13.7334 39.3882C13.7609 39.2763 13.8121 39.1716 13.8835 39.0811C13.9548 38.9907 14.0447 38.9165 14.147 38.8636C14.2494 38.8107 14.3619 38.7804 14.477 38.7746C15.3266 38.7089 16.1799 38.7089 17.0295 38.7746C17.5263 38.8129 17.8272 39.1785 17.7848 39.7217C17.7848 39.829 17.7635 39.9352 17.722 40.0341C17.6805 40.133 17.6197 40.2227 17.5432 40.2979C17.4667 40.3731 17.376 40.4323 17.2764 40.4721C17.1767 40.5118 17.0701 40.5313 16.9629 40.5295C16.5388 40.5597 16.1127 40.5375 15.6866 40.5375Z" fill="#4098F9"/>
<path d="M57.5646 40.5396C57.189 40.5396 56.8134 40.5557 56.4378 40.5396C56.3237 40.5437 56.21 40.5246 56.1036 40.4833C55.9972 40.442 55.9004 40.3795 55.8189 40.2996C55.7375 40.2197 55.6732 40.124 55.6299 40.0184C55.5867 39.9128 55.5654 39.7994 55.5674 39.6853C55.5522 39.5777 55.5592 39.468 55.588 39.3631C55.6169 39.2582 55.6669 39.1604 55.735 39.0756C55.8031 38.9908 55.8879 38.9209 55.9841 38.8702C56.0804 38.8194 56.186 38.789 56.2944 38.7806C57.1683 38.716 58.0458 38.716 58.9197 38.7806C59.3821 38.815 59.6648 39.1845 59.6366 39.6874C59.6063 40.2185 59.2933 40.5073 58.7682 40.5355C58.3684 40.5577 57.9665 40.5396 57.5646 40.5396Z" fill="#4098F9"/>
<path d="M72.4936 1.52004C72.4936 1.69371 72.4936 1.8694 72.4936 2.04509C72.4694 2.52773 72.3381 2.96393 71.7828 3.0548C71.1911 3.14366 70.8114 2.83267 70.6963 2.26924C70.6377 1.99056 70.5388 1.91584 70.2722 1.87949C70.1564 1.8729 70.0433 1.84194 69.9403 1.78863C69.8373 1.73531 69.7467 1.66085 69.6745 1.57011C69.6022 1.47938 69.55 1.37441 69.5211 1.26208C69.4922 1.14974 69.4873 1.03258 69.5069 0.918245C69.5432 0.409348 69.8946 0.122589 70.3995 0.0599868C70.6008 0.0412851 70.8032 0.0358882 71.0053 0.0438314C72.2694 0.0458508 72.5017 0.276066 72.4936 1.52004Z" fill="#4098F9"/>
<path d="M22.6577 1.85942C22.3063 1.85942 21.9569 1.85942 21.6055 1.85942C21.032 1.84528 20.7029 1.51612 20.6887 0.972888C20.6804 0.858015 20.6958 0.742658 20.7341 0.634018C20.7723 0.525378 20.8326 0.425788 20.911 0.341462C20.9895 0.257137 21.0844 0.189887 21.19 0.143911C21.2956 0.0979342 21.4096 0.0742177 21.5248 0.0742415C22.325 0.0237555 23.1276 0.0237555 23.9279 0.0742415C24.0491 0.0715873 24.1694 0.095792 24.2802 0.14512C24.391 0.194448 24.4895 0.267677 24.5686 0.359555C24.6478 0.451434 24.7056 0.559686 24.738 0.676548C24.7703 0.793411 24.7764 0.915988 24.7559 1.03549C24.7155 1.57266 24.3903 1.84326 23.8653 1.85942C23.4654 1.87154 23.0615 1.85942 22.6577 1.85942Z" fill="#4098F9"/>
<path d="M22.6564 40.5415C22.3071 40.5415 21.9557 40.5415 21.6043 40.5415C21.4905 40.5497 21.3762 40.5348 21.2683 40.4976C21.1604 40.4604 21.0611 40.4017 20.9766 40.3251C20.892 40.2484 20.8239 40.1555 20.7763 40.0517C20.7287 39.948 20.7026 39.8357 20.6996 39.7216C20.6807 39.608 20.6859 39.4916 20.715 39.3801C20.7441 39.2686 20.7964 39.1645 20.8684 39.0746C20.9404 38.9846 21.0306 38.9109 21.133 38.8581C21.2355 38.8054 21.3479 38.7748 21.4629 38.7685C22.3112 38.7028 23.1632 38.7028 24.0115 38.7685C24.5163 38.8068 24.8011 39.1723 24.7566 39.7216C24.7566 39.8291 24.7352 39.9355 24.6936 40.0345C24.652 40.1336 24.5911 40.2234 24.5144 40.2986C24.4376 40.3738 24.3467 40.433 24.2468 40.4726C24.1469 40.5122 24.0401 40.5316 23.9327 40.5294C23.5086 40.5557 23.0825 40.5294 22.6564 40.5294V40.5415Z" fill="#4098F9"/>
<path d="M29.6507 40.5393C29.2751 40.5393 28.8975 40.5554 28.5239 40.5393C28.4098 40.5422 28.2964 40.5216 28.1906 40.4787C28.0848 40.4359 27.989 40.3718 27.9091 40.2903C27.8291 40.2089 27.7668 40.1119 27.726 40.0053C27.6851 39.8987 27.6667 39.7849 27.6717 39.6709C27.66 39.563 27.6702 39.4539 27.7016 39.35C27.7331 39.2461 27.7851 39.1497 27.8547 39.0664C27.9242 38.9831 28.0099 38.9146 28.1064 38.8651C28.203 38.8156 28.3086 38.7861 28.4168 38.7783C29.266 38.7178 30.1183 38.7178 30.9674 38.7783C31.0826 38.7817 31.1957 38.8097 31.2992 38.8603C31.4027 38.911 31.4941 38.9833 31.5674 39.0722C31.6406 39.1612 31.694 39.2647 31.7239 39.376C31.7538 39.4873 31.7596 39.6037 31.7408 39.7174C31.7411 39.8316 31.7179 39.9446 31.6726 40.0494C31.6273 40.1542 31.5609 40.2486 31.4775 40.3266C31.3942 40.4047 31.2956 40.4647 31.1881 40.503C31.0805 40.5414 30.9662 40.5571 30.8523 40.5494C30.4524 40.5494 30.0506 40.5393 29.6507 40.5393Z" fill="#4098F9"/>
<path d="M36.6778 40.5394C36.3022 40.5394 35.9266 40.5516 35.553 40.5394C35.0279 40.5172 34.7048 40.2507 34.6665 39.7135C34.6281 39.1763 34.9189 38.8068 35.4238 38.7704C36.272 38.7048 37.124 38.7048 37.9723 38.7704C38.087 38.7788 38.1987 38.8112 38.3001 38.8655C38.4015 38.9198 38.4904 38.9947 38.561 39.0855C38.6316 39.1763 38.6824 39.2809 38.71 39.3926C38.7377 39.5042 38.7416 39.6204 38.7215 39.7337C38.7162 39.9522 38.6247 40.1598 38.4669 40.3111C38.3092 40.4625 38.098 40.5453 37.8794 40.5415C37.4795 40.5536 37.0797 40.5374 36.6778 40.5394Z" fill="#4098F9"/>
<path d="M36.6675 1.85762C36.2919 1.85762 35.9143 1.87176 35.5407 1.85762C35.0136 1.83541 34.6945 1.55874 34.6642 1.02359C34.6465 0.903957 34.6552 0.781884 34.6897 0.66596C34.7242 0.550037 34.7836 0.443079 34.8639 0.352608C34.9442 0.262137 35.0433 0.19035 35.1543 0.142296C35.2653 0.0942421 35.3854 0.0710878 35.5063 0.0744619C36.3059 0.0249841 37.1078 0.0249841 37.9074 0.0744619C38.0214 0.0778569 38.1335 0.10453 38.2368 0.152841C38.3401 0.201153 38.4324 0.270081 38.508 0.355387C38.5837 0.440693 38.6411 0.540575 38.6767 0.648889C38.7124 0.757204 38.7255 0.871662 38.7152 0.985225C38.7203 1.09949 38.7017 1.21356 38.6606 1.32029C38.6195 1.42702 38.5568 1.52411 38.4764 1.60546C38.396 1.6868 38.2996 1.75065 38.1934 1.793C38.0871 1.83536 37.9733 1.85529 37.859 1.85156C37.4692 1.87579 37.0674 1.85762 36.6675 1.85762Z" fill="#4098F9"/>
<path d="M29.7781 0.0598904C30.1527 0.0356374 30.5284 0.0356374 30.903 0.0598904C31.4422 0.13057 31.7673 0.463777 31.7269 1.03124C31.6885 1.56235 31.3614 1.83901 30.8343 1.84911C30.0831 1.86122 29.3339 1.84911 28.5826 1.84911C28.0111 1.84911 27.68 1.50984 27.6739 0.962576C27.6678 0.41531 28.0334 0.0962402 28.5766 0.0538321C28.9805 0.0195018 29.3844 0.0538321 29.7781 0.0538321V0.0598904Z" fill="#4098F9"/>
<path d="M48.7439 19.0708C47.1889 19.6766 45.8844 20.7126 44.4344 21.4941C43.8649 21.801 43.3742 22.2574 42.7139 22.3927C43.2389 21.5668 44.186 21.3366 44.9352 20.8418C45.9793 20.1552 47.0678 19.5393 48.1522 18.9173C48.6793 18.6164 48.647 18.0893 48.7459 17.6168C48.9923 16.4273 49.6519 15.3635 50.6078 14.6139C50.7997 14.4564 51.0783 14.1938 51.3389 14.3796C51.5994 14.5654 51.46 14.8845 51.3227 15.1309C51.1916 15.3785 51.1435 15.6616 51.1854 15.9386C49.9394 16.6434 49.1882 17.738 48.7439 19.0708Z" fill="#1581C1"/>
<path d="M54.8305 15.8885C54.4125 15.2826 54.0227 15.4099 53.6774 15.9511C53.217 16.6902 52.6677 17.3182 51.8478 17.6656C51.658 17.7463 51.4298 17.9665 51.242 17.7686C51.0541 17.5707 51.1208 17.29 51.2137 17.0557C51.3389 16.7326 51.5671 16.4499 51.4439 16.0621C52.3567 15.9369 52.9363 15.3594 53.4351 14.6485C53.6754 14.3012 53.849 13.6934 54.3801 13.8549C54.9597 14.0306 54.986 14.6384 54.9557 15.1817C54.9355 15.422 55.0243 15.6764 54.8305 15.8885Z" fill="#1481C1"/>
<path d="M22.6142 21.9407C20.6736 19.8082 20.3727 17.2031 20.6816 14.5274C20.8169 13.348 21.6388 12.3888 22.8424 11.9183C23.3089 11.7365 23.735 11.8799 24.1409 12.098C24.6058 12.3512 25.0321 12.6695 25.4071 13.0431C25.8736 13.5015 26.332 13.968 26.8207 14.4062C27.9354 15.4159 29.1107 16.2015 30.6798 15.2019C31.0009 17.716 30.4112 19.893 28.8522 21.7973C27.2892 23.4815 24.6296 23.8228 22.6142 21.9407Z" fill="#CBDCE6"/>
</svg>
