<svg width="48" height="43" viewBox="0 0 48 43" fill="none" xmlns="http://www.w3.org/2000/svg">
<path d="M25.0248 17.9827C25.3442 18.1051 25.2613 17.7843 25.2871 17.6919C25.6868 16.2469 26.0946 14.8019 26.4371 13.342C26.6832 12.2926 27.6062 11.723 28.6868 12.0166C34.604 13.6274 40.5349 15.1934 46.4602 16.7743C47.4458 17.038 47.9555 17.8726 47.6972 18.8622C46.6034 22.9829 45.5014 27.1012 44.3913 31.2173C43.6274 34.0651 42.8335 36.9061 42.1185 39.7662C41.8466 40.8414 40.9359 41.445 39.8538 41.1392C36.9693 40.3235 34.063 39.5773 31.1663 38.8011C31.0031 38.7576 30.8455 38.6652 30.7014 38.8364C29.7023 38.585 28.7113 38.3022 27.7108 38.033C25.9274 37.5518 24.1412 37.0815 22.3591 36.603C21.9959 36.5193 21.6482 36.3789 21.3287 36.1871C21.0256 35.9913 20.9209 36.0647 20.9209 36.4277C20.9209 37.0802 21.4021 37.6511 22.1606 37.8577C23.2223 38.1527 24.2866 38.43 25.351 38.7141C26.4484 39.0068 27.5441 39.3027 28.6379 39.6017C28.8336 39.6561 29.1708 39.6765 29.1381 39.9157C29.1055 40.155 28.7765 40.0911 28.5686 40.0911C20.437 40.0911 12.3054 40.0911 4.17382 40.0911C4.02098 40.1002 3.86766 40.0846 3.71979 40.0449C3.50066 39.9476 3.32232 39.7769 3.21548 39.5623C2.03285 37.5423 1.96897 35.4951 3.05372 33.4099C3.36909 32.8037 3.80816 32.5562 4.51502 32.559C9.70091 32.5848 14.8868 32.5739 20.0713 32.5726C21.1343 32.5726 21.1398 32.5726 21.4008 31.5612C21.7148 30.3378 21.7732 30.4452 20.5349 30.4439C15.247 30.4439 9.96053 30.4289 4.67269 30.4602C3.83805 30.4602 3.3487 30.1516 2.99799 29.4325C1.99071 27.3649 2.03558 25.3545 3.225 23.3726C3.32346 23.1842 3.47597 23.0296 3.66297 22.9286C3.84997 22.8276 4.06291 22.7848 4.27441 22.8057C5.22595 22.8492 6.17749 22.7377 7.11544 22.8682C7.3139 22.9471 7.35468 23.1401 7.41721 23.3114C8.11863 25.2375 8.84859 27.1529 9.54865 29.0791C9.82052 29.8131 10.1631 29.9762 10.8808 29.7112C14.7726 28.2703 18.6576 26.8117 22.5576 25.3898C22.9423 25.2539 23.1883 25.0255 23.2862 24.6231C23.384 24.2208 23.4887 23.8361 23.5798 23.4392C24.0365 21.8691 24.4199 20.28 24.8671 18.7073C24.9405 18.4708 24.8644 18.2016 25.0248 17.9827Z" fill="#CBDCE6"/>
<path d="M25.0253 17.9827C25.0934 18.2041 25.0934 18.4409 25.0253 18.6623C24.5726 20.2664 24.139 21.8772 23.6999 23.4853C23.5966 23.6579 23.4213 23.7191 23.2459 23.7857C19.2114 25.3082 15.1578 26.7763 11.1219 28.2947C10.0603 28.6929 9.66065 28.5067 9.27052 27.4247C8.7363 25.9457 8.15586 24.4831 7.63931 23C7.37968 22.3136 7.14042 21.6203 6.88079 20.9338C6.81969 20.796 6.794 20.645 6.80603 20.4947C6.42542 19.1966 5.898 17.95 5.43174 16.6886C4.30621 13.6246 3.16436 10.5716 2.03339 7.50489C1.75336 6.74773 1.9124 6.38476 2.63829 6.11561C7.55186 4.29228 12.4672 2.46988 17.3844 0.648357C18.2286 0.335709 18.5249 0.483872 18.843 1.34026C20.8766 6.82747 22.9115 12.3142 24.9478 17.8005C24.9628 17.8617 24.9968 17.9215 25.0253 17.9827Z" fill="#4098F9"/>
<path d="M6.79885 20.4976C7.19034 21.2805 7.45133 22.1125 7.71912 22.9444C7.56144 23.132 7.39153 23.0939 7.21617 22.9743C6.1287 22.9648 5.04122 22.962 3.96326 22.943C3.74305 22.943 3.6343 23.0504 3.51739 23.2149C2.10775 25.1302 2.11319 28.0705 3.51739 29.9885C3.71314 30.2604 3.92519 30.2794 4.21337 30.2794C9.90811 30.2794 15.6029 30.2794 21.2976 30.2794C21.9161 30.2794 21.9175 30.2794 21.7611 30.8721C21.6537 31.2799 21.5097 31.6877 21.4417 32.0955C21.3629 32.5835 21.1453 32.733 20.637 32.7316C15.2132 32.7099 9.7894 32.7316 4.36562 32.7031C3.82188 32.7031 3.55003 32.8893 3.28903 33.3257C2.04523 35.4327 2.22195 38.271 3.73082 39.9865C3.91233 40.0299 4.10007 40.0409 4.28542 40.0191C12.398 40.0191 20.5087 40.0227 28.6176 40.03C29.0255 40.03 29.4156 39.9131 29.822 39.894C30.6376 39.8614 31.4342 40.0395 32.243 40.049C32.9512 40.17 33.3685 40.6281 33.3563 41.2724C33.3441 41.9167 32.8833 42.3898 32.2022 42.4727C32.0336 42.4874 31.8643 42.492 31.6952 42.4863C22.3239 42.4863 12.9531 42.4895 3.58265 42.4958C3.26309 42.5107 2.94481 42.4461 2.65634 42.3078C2.36786 42.1695 2.11819 41.9618 1.92969 41.7033C0.825472 40.3267 0.176232 38.6411 0.0717612 36.8795C-0.0327092 35.1178 0.412747 33.3673 1.34653 31.8698C1.54091 31.5572 1.51781 31.3601 1.33566 31.0651C-0.710153 27.7333 -0.38664 23.9503 2.17436 20.9992C2.3031 20.8419 2.46631 20.7163 2.65134 20.6321C2.83637 20.548 3.03829 20.5075 3.24146 20.5139C4.4268 20.5057 5.61214 20.5003 6.79885 20.4976Z" fill="#044387"/>
<path d="M32.2409 40.0379C31.109 40.0379 29.9763 40.0379 28.8426 40.0379C20.6865 40.0379 12.5305 40.0379 4.37441 40.0379C4.16099 40.0379 3.93399 40.1045 3.73145 39.9713C3.96933 39.9632 4.20585 39.9496 4.44238 39.9496H29.0791L29.0927 39.8748L24.8176 38.733C23.8728 38.4801 22.9254 38.2395 21.9861 37.9717C21.0468 37.7039 20.5519 36.7551 20.8456 35.9137C20.8863 35.7981 20.9162 35.6228 21.059 35.7628C21.9072 36.5906 23.0613 36.592 24.0971 36.8897C26.0559 37.4525 28.0392 37.95 30.0021 38.4828C30.2563 38.5522 30.5377 38.5902 30.7076 38.8363C30.7361 38.9138 30.766 38.9912 30.7905 39.0701C30.9849 39.6682 31.2826 40.1168 32.0262 39.9564C32.086 39.9441 32.1689 40.0094 32.2409 40.0379Z" fill="#B7C6CF"/>
<path d="M27.2847 16.5649C27.4568 15.7535 27.6807 14.9539 27.9549 14.1711C28.103 13.7755 28.451 13.6464 28.8751 13.7633C31.5462 14.477 34.2201 15.1825 36.8953 15.8975C39.6139 16.6248 42.3326 17.3615 45.0513 18.0874C45.8669 18.3049 46.083 18.6311 45.8778 19.4467C45.7079 20.1155 45.5339 20.7857 45.3449 21.4504C45.1859 22.0064 44.7264 22.2334 44.1664 22.0825C40.5995 21.1228 37.0326 20.1667 33.4656 19.2143C31.6428 18.7263 29.8172 18.2424 27.9956 17.7462C27.5335 17.6116 27.1923 17.3588 27.2847 16.5649Z" fill="#FEFEFE"/>
<path d="M7.21582 22.9716L7.71877 22.9417L9.24395 26.964C9.28473 27.0741 9.31736 27.1882 9.35815 27.2983C9.78362 28.4551 10.0378 28.5626 11.2082 28.1276C15.3705 26.5779 19.5337 25.0314 23.6978 23.4881C23.6978 23.5221 23.6978 23.5561 23.691 23.5887C23.5551 24.7305 23.0821 25.4361 21.8518 25.8221C19.2922 26.6228 16.8046 27.6531 14.2885 28.5911C13.182 28.9989 12.0727 29.4148 10.969 29.839C10.1248 30.1625 9.73468 29.9749 9.42067 29.1172C8.78314 27.3731 8.12386 25.6359 7.48225 23.8918C7.37214 23.5928 7.22805 23.3005 7.21582 22.9716Z" fill="#B7C6CF"/>
<path d="M36.0923 27.2506C35.6519 25.58 36.7285 24.0507 38.342 23.7014C39.8658 23.371 41.4359 24.4177 41.7648 25.9959C41.8586 26.4793 41.8377 26.978 41.7037 27.4518C41.7209 27.7405 41.6314 28.0254 41.4522 28.2524C40.3171 29.8673 37.7602 30.2996 36.2772 28.0608C36.1107 27.8258 36.0442 27.5345 36.0923 27.2506Z" fill="#FEFEFE"/>
<path d="M33.9573 35.0858C33.6651 33.6898 34.202 32.6499 35.3642 31.9077C37.0077 30.8569 39.4205 32.0232 39.6747 33.9549C39.7391 34.4011 39.7061 34.856 39.5782 35.2884C39.5999 35.4119 39.5959 35.5385 39.5665 35.6604C39.537 35.7822 39.4827 35.8967 39.4069 35.9966C39.1257 36.4513 38.73 36.8241 38.2594 37.0779C37.7889 37.3316 37.2599 37.4573 36.7255 37.4425C36.1911 37.4276 35.6699 37.2727 35.2142 36.9932C34.7585 36.7137 34.3841 36.3194 34.1286 35.8498C34.0076 35.6119 33.8921 35.3645 33.9573 35.0858Z" fill="#FEFEFE"/>
<path d="M27.4496 25.0104C27.333 24.5787 27.3172 24.126 27.4032 23.6871C27.4892 23.2483 27.6748 22.8351 27.9457 22.4793C28.6091 21.5645 29.9399 21.1132 31.1049 21.4557C32.2698 21.7983 33.1439 22.9129 33.1547 24.0629C33.1771 24.4156 33.1446 24.7697 33.0582 25.1123C33.1208 25.6901 32.7401 26.0503 32.3894 26.401C30.9907 27.8025 28.5506 27.4477 27.6317 25.7214C27.5067 25.5012 27.3735 25.2795 27.4496 25.0104Z" fill="#FEFEFE"/>
<path d="M25.3074 32.7437C25.0832 30.8189 25.8512 29.6812 27.6863 29.2516C29.119 28.9145 30.8128 30.1012 31.0208 31.5625C31.0963 32.025 31.0656 32.4987 30.931 32.9476C31.0208 33.5906 30.6048 33.9998 30.1984 34.3573C29.872 34.6472 29.4873 34.8639 29.0702 34.9928C28.653 35.1217 28.2132 35.1598 27.7801 35.1046C27.347 35.0494 26.9308 34.902 26.5594 34.6725C26.188 34.4431 25.87 34.1367 25.6269 33.7741C25.4203 33.4656 25.249 33.1393 25.3074 32.7437Z" fill="#FEFEFE"/>
<path d="M25.3082 32.7439C25.4239 33.2253 25.6594 33.6696 25.9928 34.0357C26.3262 34.4018 26.7466 34.6777 27.2151 34.8378C27.6836 34.9979 28.185 35.0371 28.6726 34.9517C29.1603 34.8663 29.6185 34.6591 30.0047 34.3493C30.4707 34.0067 30.7993 33.5094 30.9318 32.9464C31.2336 33.202 31.0093 33.5024 30.9481 33.743C30.6762 34.8169 29.5222 35.7168 28.5013 35.7943C26.8932 35.9152 25.7677 34.9515 25.4278 33.9007C25.315 33.535 25.073 33.1571 25.3082 32.7439Z" fill="#B8C7D0"/>
<path d="M33.957 35.0859C34.5388 37.1331 36.8225 37.9528 38.4564 36.796C38.9852 36.4222 39.4175 35.9491 39.5779 35.2871C39.8797 35.4951 39.6717 35.786 39.6295 35.9858C39.3495 37.2854 37.8937 38.2464 36.4623 38.1254C35.194 38.0181 33.9203 36.6886 33.8673 35.4068C33.8632 35.2926 33.8428 35.1689 33.957 35.0859Z" fill="#B8C7D0"/>
<path d="M27.4499 25.0105C27.942 26.3467 28.9602 27.1311 30.2162 27.1379C31.5334 27.146 32.5583 26.4147 33.0586 25.1124C33.2258 25.3449 33.1632 25.5896 33.0926 25.8329C32.7065 27.1623 31.4532 28.0255 30.0136 27.9521C28.7685 27.8882 27.5791 26.7845 27.3711 25.4849C27.3466 25.3259 27.2977 25.1464 27.4499 25.0105Z" fill="#B8C7CF"/>
<path d="M36.0924 27.2507C36.3643 28.5027 37.5999 29.3917 38.7431 29.4678C40.0318 29.5534 41.1124 28.8085 41.7038 27.4519C41.9349 28.2131 41.5488 28.8031 41.0866 29.3033C40.2832 30.1719 39.2542 30.5077 38.1056 30.1502C36.9569 29.7927 36.2718 28.9934 36.019 27.8271C35.9796 27.6422 35.9293 27.4247 36.0924 27.2507Z" fill="#B8C7D0"/>
<path d="M8.3563 13.5132C7.91723 13.4874 7.62496 13.3065 7.52708 12.9151C7.42921 12.5236 7.5366 12.1593 7.93489 11.9771C8.33317 11.795 8.75049 11.6509 9.15829 11.4973L13.0039 10.07C13.1137 10.0263 13.2257 9.98859 13.3396 9.95712C13.8236 9.83886 14.2096 10.0292 14.3673 10.456C14.525 10.8829 14.3456 11.2907 13.8752 11.4783C13.0297 11.8154 12.1706 12.1212 11.3156 12.4393C10.4605 12.7574 9.63952 13.0632 8.79944 13.3732C8.64312 13.4303 8.48 13.4724 8.3563 13.5132Z" fill="#FEFEFE"/>
<path d="M13.0083 6.93255C13.0042 7.09632 12.9499 7.25491 12.8526 7.38672C12.7553 7.51853 12.6198 7.6172 12.4645 7.66934C10.711 8.32726 8.95744 8.98653 7.19574 9.62406C7.09374 9.6678 6.98379 9.68999 6.87281 9.6892C6.76183 9.68841 6.65221 9.66467 6.55084 9.61948C6.44948 9.57428 6.35857 9.50862 6.2838 9.42659C6.20904 9.34457 6.15204 9.24795 6.11641 9.14284C5.97232 8.69562 6.16942 8.28647 6.66015 8.09888C8.39738 7.44368 10.1378 6.79753 11.8814 6.16046C12.0067 6.10866 12.143 6.08894 12.2779 6.10308C12.4128 6.11721 12.542 6.16474 12.6539 6.2414C12.7658 6.31805 12.8567 6.42143 12.9186 6.54211C12.9805 6.66279 13.0113 6.79697 13.0083 6.93255Z" fill="#FEFEFE"/>
<path d="M9.73223 17.3084C9.31083 17.2948 9.02672 17.1086 8.93972 16.7089C8.84049 16.2549 9.0077 15.9083 9.45764 15.7383C10.3099 15.4148 11.165 15.1008 12.0186 14.7868C12.9049 14.4578 13.7858 14.1235 14.6789 13.804C15.1669 13.63 15.5883 13.804 15.7664 14.2376C15.9444 14.6713 15.7663 15.1199 15.2783 15.3061C13.5275 15.9722 11.7685 16.6138 10.0109 17.2608C9.91971 17.2855 9.82641 17.3014 9.73223 17.3084Z" fill="#FEFEFE"/>
<path d="M40.396 27.0386C40.3675 27.2778 40.1894 27.4545 39.9202 27.3553C39.1291 27.063 38.3502 26.7354 37.5727 26.4037C37.5291 26.3855 37.4898 26.3583 37.4573 26.324C37.4248 26.2897 37.3998 26.2489 37.384 26.2044C37.3681 26.1599 37.3617 26.1126 37.3652 26.0654C37.3686 26.0183 37.3819 25.9724 37.4041 25.9307C37.4884 25.7105 37.6529 25.5936 37.8812 25.6847C38.6506 25.9878 39.4146 26.3072 40.1799 26.6213C40.3376 26.6879 40.396 26.8197 40.396 27.0386Z" fill="#064488"/>
<path d="M38.3424 34.9268C38.3111 35.1388 38.1494 35.3495 37.8476 35.2367C37.0755 34.9513 36.317 34.6264 35.5598 34.3028C35.5107 34.2877 35.4654 34.2622 35.427 34.228C35.3885 34.1938 35.3579 34.1518 35.3372 34.1047C35.3164 34.0577 35.306 34.0067 35.3067 33.9553C35.3073 33.9039 35.319 33.8532 35.341 33.8067C35.3554 33.7527 35.3815 33.7026 35.4176 33.66C35.4537 33.6173 35.4987 33.5832 35.5495 33.5601C35.6004 33.5369 35.6557 33.5254 35.7115 33.5262C35.7674 33.527 35.8223 33.5401 35.8725 33.5647C36.6228 33.8597 37.3677 34.1724 38.1113 34.485C38.2581 34.5421 38.3574 34.6644 38.3424 34.9268Z" fill="#064488"/>
<path d="M37.7114 33.2888C37.6584 33.5036 37.5592 33.6694 37.3036 33.6599C37.0481 33.6504 36.8958 33.5131 36.8958 33.2453C36.8936 33.1938 36.9023 33.1425 36.9212 33.0946C36.9402 33.0467 36.969 33.0034 37.0058 32.9673C37.0426 32.9313 37.0865 32.9034 37.1348 32.8855C37.1831 32.8676 37.2346 32.86 37.286 32.8633C37.5565 32.8606 37.6775 33.0468 37.7114 33.2888Z" fill="#134E8E"/>
<path d="M36.3697 35.1227C36.6266 35.1607 36.7966 35.2926 36.7775 35.5536C36.778 35.6052 36.7674 35.6563 36.7463 35.7034C36.7253 35.7505 36.6945 35.7925 36.6558 35.8267C36.6171 35.8609 36.5716 35.8863 36.5222 35.9013C36.4729 35.9164 36.4209 35.9206 36.3697 35.9138C36.1115 35.8989 35.9619 35.7616 35.9823 35.491C35.9826 35.4411 35.993 35.3918 36.0128 35.346C36.0327 35.3002 36.0615 35.2589 36.0977 35.2245C36.1339 35.1901 36.1766 35.1634 36.2233 35.1459C36.2701 35.1284 36.3199 35.1205 36.3697 35.1227Z" fill="#0A488B"/>
<path d="M31.062 23.3046C30.5821 23.8972 30.9138 24.2044 31.5799 24.4056C31.7811 24.4668 31.7824 24.7115 31.7036 24.8923C31.6248 25.073 31.4154 25.2022 31.2468 25.0962C30.6093 24.6965 30.2872 24.9262 30.0914 25.5787C30.0772 25.6238 30.0534 25.6653 30.0215 25.7002C29.9896 25.7352 29.9505 25.7627 29.9069 25.781C29.8633 25.7992 29.8162 25.8077 29.7689 25.8059C29.7217 25.8041 29.6754 25.792 29.6333 25.7704C29.4036 25.678 29.2948 25.4659 29.3995 25.2837C29.7611 24.6544 29.5708 24.3186 28.9101 24.1269C28.8646 24.1129 28.8227 24.0891 28.7876 24.0569C28.7524 24.0248 28.7248 23.9853 28.7067 23.9412C28.6886 23.8971 28.6806 23.8496 28.6831 23.8021C28.6856 23.7545 28.6986 23.7081 28.7212 23.6661C28.8136 23.4541 28.9931 23.3181 29.2065 23.4282C29.7801 23.7287 30.1703 23.7001 30.3402 22.9769C30.3878 22.7744 30.612 22.6806 30.8418 22.7676C31.047 22.8519 31.1041 23.0123 31.062 23.3046Z" fill="#054488"/>
<path d="M27.6185 31.8562C27.5259 31.6631 27.4446 31.4648 27.3752 31.2622C27.3031 31.0121 27.2623 30.7416 27.5899 30.6287C27.889 30.5241 28.01 30.7565 28.1337 30.9604C28.1603 31.0021 28.1796 31.0481 28.1908 31.0963C28.2805 31.583 28.5347 31.5952 28.9207 31.3873C29.1736 31.2513 29.5093 31.1453 29.6643 31.5014C29.8356 31.8956 29.4998 32.0547 29.2075 32.139C28.7848 32.26 28.6638 32.4489 28.9153 32.8404C28.9799 32.9588 29.0192 33.0893 29.0308 33.2237C29.0512 33.308 29.0389 33.3968 28.9966 33.4724C28.9542 33.548 28.8849 33.6048 28.8025 33.6315C28.7245 33.6671 28.6366 33.674 28.5541 33.6511C28.4715 33.6282 28.3997 33.577 28.3512 33.5065C28.2914 33.4451 28.2452 33.3719 28.2152 33.2917C28.0956 32.7656 27.8469 32.612 27.3493 32.9192C27.1115 33.062 26.8056 33.0796 26.6697 32.7371C26.5514 32.4217 26.8056 32.2953 27.0313 32.1621C27.2202 32.0493 27.4948 32.0805 27.6185 31.8562Z" fill="#054488"/>
</svg>
